<svg width="120" height="24" viewBox="0 0 120 24" fill="none" xmlns="http://www.w3.org/2000/svg">
<g clip-path="url(#clip0)">
<path d="M111.024 18.3477C111.024 16.7702 111.214 14.4986 111.214 11.8484C111.214 6.92654 109.194 5.09663 103.705 5.09663C101.054 5.09663 98.7197 5.47523 97.2684 6.10623L97.4577 10.0185C98.7197 9.32436 100.55 8.69336 102.316 8.69336C104.84 8.69336 105.535 9.70296 105.535 12.1639V12.5425C105.345 12.5425 104.904 12.5425 104.714 12.5425C98.5304 12.5425 95.6278 14.4355 95.6278 17.906C95.6278 21.5028 97.3946 23.5851 102.506 23.5851C105.219 23.5851 107.806 23.2065 111.277 23.2065C111.024 21.8814 111.024 19.799 111.024 18.3477ZM103.831 20.2408C101.938 20.2408 101.118 19.6097 101.118 18.0322C101.118 16.5178 102.127 15.6344 104.714 15.6344C104.967 15.6344 105.219 15.6344 105.471 15.6344C105.471 17.0857 105.408 18.8525 105.535 20.0515C105.093 20.1777 104.462 20.2408 103.831 20.2408ZM56.1268 20.0515C53.0349 20.0515 51.3943 18.4739 51.3943 15.9499V15.8237C51.9622 15.8237 53.0349 15.8868 53.6659 15.8868C59.1557 15.8868 61.9321 14.1831 61.9321 10.4602C61.9321 7.24204 59.5974 5.15973 54.6124 5.15973C48.4917 5.15973 46.0938 7.87305 45.5259 12.7318C44.6425 12.6687 43.6329 12.6687 42.3078 12.6687C42.3078 12.4163 42.3078 12.1639 42.3078 11.8484C42.3078 6.92654 40.2886 5.09663 34.7989 5.09663C32.1486 5.09663 29.8139 5.47523 28.3626 6.10623L28.5519 10.0185C29.8139 9.32436 31.6438 8.69336 33.4106 8.69336C35.9347 8.69336 36.6919 9.70296 36.6919 12.1639V12.5425C36.5026 12.5425 36.0609 12.5425 35.8716 12.5425C29.6877 12.5425 26.7851 14.4355 26.7851 17.906C26.7851 21.5028 28.5519 23.5851 33.663 23.5851C36.3764 23.5851 38.9635 23.2065 42.434 23.2065C42.1816 21.7552 42.1816 19.6728 42.1816 18.2846C42.1816 17.5274 42.2447 16.644 42.2447 15.6344C43.696 15.6344 44.7687 15.6975 45.4628 15.6975C45.9676 21.5028 48.9965 23.5851 55.1803 23.5851C57.4519 23.5851 59.7867 23.2065 61.0487 22.6386L60.8594 18.7263C59.6605 19.4835 57.9567 20.0515 56.1268 20.0515ZM34.9882 20.2408C33.0951 20.2408 32.2748 19.6097 32.2748 18.0322C32.2748 16.5178 33.2844 15.6344 35.8716 15.6344C36.124 15.6344 36.3764 15.6344 36.6288 15.6344C36.6288 17.0857 36.5657 18.8525 36.6919 20.0515C36.2502 20.1777 35.5561 20.2408 34.9882 20.2408ZM51.3312 12.7318C51.3312 10.2709 52.0884 8.44095 54.36 8.44095C55.622 8.44095 56.5054 9.13506 56.5054 10.334C56.5054 12.0377 55.3696 12.858 52.9718 12.858C52.4039 12.858 51.7729 12.858 51.3312 12.7949V12.7318ZM93.3561 15.0665C93.3561 13.5521 93.3561 11.596 93.3561 11.596C93.3561 7.11584 91.4 5.15973 85.8472 5.15973C82.7552 5.15973 80.5467 5.72763 77.0762 5.72763C77.2655 8.88266 77.2655 12.7318 77.2655 15.1296C77.2655 17.5905 77.2024 21.9445 77.0762 23.3327H83.0077C82.8815 21.9445 82.7553 17.8429 82.7553 15.1296C82.7553 13.5521 82.7553 11.6591 82.8184 9.13506C83.3863 8.94576 84.1435 8.75646 84.9638 8.75646C87.0461 8.75646 87.7402 9.70296 87.7402 12.4163C87.7402 12.4163 87.7402 14.12 87.7402 15.0665C87.7402 17.5274 87.6771 21.8814 87.5509 23.2696H93.4823C93.4823 21.8814 93.3561 17.8429 93.3561 15.0665ZM74.6784 19.3573L74.9308 23.2696C74.4891 23.3958 73.0378 23.6482 71.1448 23.6482C67.2325 23.6482 65.1502 22.0076 65.1502 17.9691C65.1502 14.8141 65.2133 11.3436 65.2133 9.45056H63.1941C63.2572 8.56715 63.1941 7.36825 63.1941 6.48484C66.2229 5.98003 67.1694 4.27632 67.6742 0.931992H71.0186C70.8924 2.3202 70.8293 4.27632 70.7662 5.66453H74.2998V9.45056H70.7031V16.3285C70.7031 18.9787 71.271 19.7359 73.0378 19.7359C73.6688 19.7359 74.3629 19.6097 74.6784 19.3573ZM7.16082 3.51911C7.91803 3.51911 8.61213 3.77151 9.18004 4.33942L12.4613 7.62065L15.7425 4.33942C16.3104 3.77151 17.0045 3.51911 17.7617 3.51911C18.4558 3.51911 19.213 3.77151 19.7809 4.33942L23.8194 8.37785C24.9552 9.51366 24.9552 11.2805 23.8194 12.4163L12.4613 23.7113L1.10317 12.3532C-0.0326402 11.2174 -0.0326402 9.45056 1.10317 8.31475L5.1416 4.27632C5.70951 3.77151 6.40361 3.51911 7.16082 3.51911ZM112.16 5.15973H115.252V5.79073H114.053V8.94576H113.296V5.79073H112.097L112.16 5.15973ZM115.946 5.15973H116.956L117.461 6.80034C117.587 7.30514 117.839 8.25165 117.839 8.25165C117.839 8.25165 118.092 7.30514 118.218 6.80034L118.723 5.15973H119.732V8.94576H119.038V7.55755C119.038 6.86344 119.101 5.85383 119.101 5.85383C119.101 5.85383 118.849 6.73724 118.659 7.49445L118.218 8.94576H117.524L117.082 7.49445C116.83 6.73724 116.64 5.85383 116.64 5.85383C116.64 5.85383 116.703 6.92654 116.703 7.55755V8.94576H116.009V5.15973H115.946Z" fill="#7D3F98"/>
</g>
<defs>
<clipPath id="clip0">
<rect width="119.891" height="23.1579" fill="white" transform="translate(0.0935669 0.742691)"/>
</clipPath>
</defs>
</svg>
