<svg width="123" height="122" viewBox="0 0 123 122" fill="none" xmlns="http://www.w3.org/2000/svg">
<g filter="url(#filter0_d)">
<path fill-rule="evenodd" clip-rule="evenodd" d="M114.184 57.3269C114.184 86.2266 90.6344 109.654 61.5924 109.654C32.5465 109.654 9 86.2266 9 57.3269C9 28.428 32.5465 5 61.5924 5C90.6344 5 114.184 28.428 114.184 57.3269Z" fill="white" stroke="#3353B0" stroke-width="0.63"/>
<path fill-rule="evenodd" clip-rule="evenodd" d="M62.5 38C53.9533 38 47 44.728 47 53C47 61.272 53.9533 68 62.5 68C71.0477 68 78 61.272 78 53C78 44.728 71.0477 38 62.5 38ZM62.5 66C55.0563 66 49 60.168 49 53C49 45.832 55.0563 40 62.5 40C69.9437 40 76 45.832 76 53C76 60.168 69.9437 66 62.5 66ZM82.178 52.9999L84.8872 47.8299C85.1266 47.3729 84.9742 46.8139 84.5323 46.5339L79.5415 43.3789L79.2449 37.5758C79.2183 37.0638 78.799 36.6528 78.2743 36.6268L72.3385 36.3358L69.1138 31.4588C68.8275 31.0278 68.2568 30.8738 67.7884 31.1118L62.4999 33.7588L57.2114 31.1118C56.7451 30.8758 56.1713 31.0268 55.886 31.4588L52.6613 36.3358L46.7255 36.6268C46.2008 36.6528 45.7815 37.0638 45.7549 37.5758L45.4583 43.3789L40.4674 46.5339C40.0266 46.8139 39.8732 47.3729 40.1126 47.8299L42.8217 52.9999L40.1126 58.1699C39.8732 58.6269 40.0266 59.1859 40.4674 59.4659L45.4583 62.6209L45.7549 68.4239C45.7784 68.8829 46.1231 69.2429 46.57 69.3359L41.1598 78.5C40.988 78.791 40.9778 79.148 41.1312 79.447C41.2846 79.748 41.5832 79.953 41.9238 79.993L49.224 80.845L53.6258 86.599C53.8313 86.868 54.1576 87.012 54.5053 86.998C54.8489 86.978 55.1588 86.791 55.3306 86.5L62.4999 74.358L69.6692 86.5C69.841 86.791 70.1509 86.978 70.4935 86.998C70.5149 86.999 70.5344 87 70.5548 87C70.876 87 71.1797 86.853 71.374 86.599L75.7758 80.845L83.075 79.993C83.4166 79.953 83.7152 79.748 83.8696 79.447C84.023 79.148 84.0118 78.791 83.84 78.5L78.4298 69.3359C78.8777 69.2429 79.2214 68.8829 79.2449 68.4239L79.5415 62.6209L84.5323 59.4659C84.9742 59.1859 85.1266 58.6269 84.8872 58.1699L82.178 52.9999ZM54.4957 84L50.8063 79.0211C50.6406 78.7967 50.3922 78.6509 50.1175 78.6182L44 77.8809L49.0782 69L52.8434 69.1897L56.0279 74.1656C56.3096 74.6061 56.8762 74.7601 57.3368 74.5194L61 72.6246L54.4957 84ZM81 77.8809L74.8825 78.6182C74.6078 78.6509 74.3594 78.7967 74.1937 79.0211L70.5033 84L64 72.6246L67.6632 74.5194C67.8096 74.5959 67.9682 74.6316 68.1227 74.6316C68.456 74.6316 68.7792 74.4654 68.9721 74.1656L72.1566 69.1897L75.9218 69L81 77.8809ZM77.3801 60.6374C77.105 60.8106 76.9334 61.1017 76.9161 61.4194L76.642 66.776L71.1479 67.0443C70.8209 67.0611 70.5234 67.2294 70.3457 67.4957L67.3596 72L62.4635 69.5548C62.3173 69.4826 62.1589 69.4459 62.0005 69.4459C61.8421 69.4459 61.6827 69.4826 61.5375 69.5548L56.6415 72L53.6553 67.4957C53.4776 67.2294 53.1801 67.0611 52.8542 67.0443L47.3591 66.776L47.0839 61.4194C47.0676 61.1017 46.8961 60.8106 46.6209 60.6374L42 57.724L44.5089 52.9514C44.6572 52.6683 44.6572 52.3317 44.5089 52.0486L42 47.276L46.6209 44.3626C46.8961 44.1894 47.0676 43.8983 47.0839 43.5806L47.3591 38.224L52.8542 37.9557C53.1801 37.9389 53.4776 37.7706 53.6553 37.5043L56.6415 33L61.5375 35.4452C61.8289 35.5897 62.1721 35.5897 62.4635 35.4452L67.3596 33L70.3457 37.5043C70.5234 37.7706 70.8209 37.9389 71.1479 37.9557L76.643 38.224L76.9171 43.5806C76.9344 43.8983 77.106 44.1894 77.3801 44.3626L82 47.276L79.4931 52.0486C79.3428 52.3317 79.3428 52.6683 79.4931 52.9514L82 57.724L77.3801 60.6374ZM70.0002 50H64.6212L62.9542 44.7C62.8232 44.283 62.4362 44 62.0002 44C61.5642 44 61.1772 44.283 61.0462 44.7L59.3782 50H54.0003C53.5743 50 53.1943 50.271 53.0553 50.673C52.9153 51.076 53.0473 51.522 53.3823 51.786L57.7852 55.2489L56.1013 60.7049C55.9733 61.1209 56.1283 61.5709 56.4853 61.8199C56.8423 62.0689 57.3182 62.0589 57.6642 61.7949L62.0002 58.4809L66.3362 61.7949C66.5152 61.9319 66.7292 61.9999 66.9432 61.9999C67.1442 61.9999 67.3432 61.9399 67.5162 61.8199C67.8722 61.5709 68.0272 61.1209 67.8982 60.7049L66.2152 55.2489L70.6182 51.786C70.9531 51.522 71.0841 51.076 70.9451 50.673C70.8061 50.271 70.4262 50 70.0002 50ZM64.3868 53.7845C64.0678 54.0401 63.9367 54.4712 64.057 54.8682L64.9992 58L62.5944 56.1163C62.4192 55.9789 62.2099 55.9108 62.0005 55.9108C61.7911 55.9108 61.5817 55.9789 61.4066 56.1163L59.0018 58L59.9449 54.8682C60.0643 54.4712 59.9332 54.0401 59.6142 53.7845L57 51.6772H60.1533C60.5809 51.6772 60.9585 51.3935 61.0867 50.9754L62.0005 48L62.9143 50.9754C63.0425 51.3935 63.4201 51.6772 63.8477 51.6772H67L64.3868 53.7845Z" fill="#3353B0"/>
</g>
<defs>
<filter id="filter0_d" x="0.685001" y="0.684998" width="121.814" height="121.284" filterUnits="userSpaceOnUse" color-interpolation-filters="sRGB">
<feFlood flood-opacity="0" result="BackgroundImageFix"/>
<feColorMatrix in="SourceAlpha" type="matrix" values="0 0 0 0 0 0 0 0 0 0 0 0 0 0 0 0 0 0 127 0"/>
<feOffset dy="4"/>
<feGaussianBlur stdDeviation="4"/>
<feColorMatrix type="matrix" values="0 0 0 0 0 0 0 0 0 0 0 0 0 0 0 0 0 0 0.25 0"/>
<feBlend mode="normal" in2="BackgroundImageFix" result="effect1_dropShadow"/>
<feBlend mode="normal" in="SourceGraphic" in2="effect1_dropShadow" result="shape"/>
</filter>
</defs>
</svg>
