<svg width="107" height="106" viewBox="0 0 107 106" fill="none" xmlns="http://www.w3.org/2000/svg">
<path fill-rule="evenodd" clip-rule="evenodd" d="M106.184 53.3269C106.184 82.2266 82.6344 105.654 53.5924 105.654C24.5465 105.654 1 82.2266 1 53.3269C1 24.428 24.5465 1 53.5924 1C82.6344 1 106.184 24.428 106.184 53.3269Z" fill="white" stroke="#3353B0" stroke-width="0.63"/>
<path fill-rule="evenodd" clip-rule="evenodd" d="M81.7336 45.1778L79.0552 44.4915C78.7039 44.3991 78.3267 44.504 78.0694 44.7635L74.9074 47.9396L72.7984 44.0939C73.3791 44.3223 74.0064 44.4593 74.6667 44.4593C77.5156 44.4593 79.8333 42.1305 79.8333 39.2679C79.8333 36.4054 77.5156 34.0766 74.6667 34.0766C72.1598 34.0766 70.0673 35.8811 69.6013 38.266L67.0768 33.6654C67.0748 33.6612 67.0706 33.655 67.0675 33.6488C67.0613 33.6363 67.0541 33.6249 67.0479 33.6135C66.9931 33.5211 66.9125 33.4069 66.9125 33.4069L66.9105 33.4089C66.6294 32.977 66.2543 32.6147 65.7883 32.3655C65.3408 32.1256 64.8386 32 64.3344 32C63.1843 32 62.1354 32.6323 61.6033 33.6384L59.0654 38.2639C58.5983 35.8811 56.5069 34.0766 54 34.0766C51.4931 34.0766 49.4006 35.8811 48.9346 38.265L46.404 33.6529C45.8646 32.6323 44.8157 32 43.6656 32C43.1614 32 42.6592 32.1256 42.2117 32.3655C41.7457 32.6147 41.3706 32.9781 41.0885 33.41L41.0864 33.4089C41.0864 33.4089 40.9821 33.5564 40.9418 33.6301C40.9397 33.6322 40.9376 33.6363 40.9366 33.6394L38.3987 38.2639C37.9327 35.8811 35.8402 34.0766 33.3333 34.0766C30.4844 34.0766 28.1667 36.4054 28.1667 39.2679C28.1667 42.1305 30.4844 44.4593 33.3333 44.4593C33.9936 44.4593 34.6198 44.3233 35.2016 44.0939L33.0926 47.9396L29.9306 44.7635C29.6722 44.504 29.2951 44.3991 28.9448 44.4915L26.1971 45.1986C24.2855 45.834 23 47.623 23 49.6507V57.9569C23 60.4633 24.7784 62.5607 27.1333 63.0424V76.6459C27.1333 77.2201 27.5963 77.6842 28.1667 77.6842H38.5C39.0704 77.6842 39.5333 77.2201 39.5333 76.6459V49.9041L43.6667 41.8865L47.8 49.9041V76.6459C47.8 77.2201 48.2629 77.6842 48.8333 77.6842H59.1667C59.7371 77.6842 60.2 77.2201 60.2 76.6459V49.9041L64.3333 41.8865L68.4667 49.9041V76.6459C68.4667 77.2201 68.9296 77.6842 69.5 77.6842H79.8333C80.4037 77.6842 80.8667 77.2201 80.8667 76.6459V63.0424C83.2216 62.5607 85 60.4633 85 57.9569V49.6507C85 47.623 83.7145 45.834 81.7336 45.1778ZM74.6667 36.1531C76.3758 36.1531 77.7667 37.5506 77.7667 39.2679C77.7667 40.9853 76.3758 42.3828 74.6667 42.3828C72.9575 42.3828 71.5667 40.9853 71.5667 39.2679C71.5667 37.5506 72.9575 36.1531 74.6667 36.1531ZM30.2333 39.2679C30.2333 37.5506 31.6242 36.1531 33.3333 36.1531C35.0425 36.1531 36.4333 37.5506 36.4333 39.2679C36.4333 40.9853 35.0425 42.3828 33.3333 42.3828C31.6242 42.3828 30.2333 40.9853 30.2333 39.2679ZM54 36.1531C55.7091 36.1531 57.1 37.5506 57.1 39.2679C57.1 40.9853 55.7091 42.3828 54 42.3828C52.2909 42.3828 50.9 40.9853 50.9 39.2679C50.9 37.5506 52.2909 36.1531 54 36.1531ZM54 44.4593C54.6603 44.4593 55.2865 44.3233 55.8683 44.0939L54 47.4994L52.1317 44.0939C52.7135 44.3233 53.3397 44.4593 54 44.4593ZM37.5824 49.1731C37.507 49.3205 37.4667 49.4846 37.4667 49.6507V75.6077H34.3667V62.11C34.3667 61.5359 33.9037 61.0718 33.3333 61.0718C32.7629 61.0718 32.3 61.5359 32.3 62.11V75.6077H29.2V51.7273C29.2 51.1531 28.7371 50.689 28.1667 50.689C27.5963 50.689 27.1333 51.1531 27.1333 51.7273V60.8797C25.9326 60.4498 25.0667 59.3088 25.0667 57.9569V49.6507C25.0667 48.52 25.7817 47.5233 26.7768 47.19L28.8848 46.6491L32.6028 50.3848C32.8322 50.6163 33.1587 50.7233 33.478 50.6786C33.8004 50.6319 34.0815 50.4377 34.2385 50.1512L41.2962 37.289L42.5021 39.6293L37.5824 49.1731ZM58.2491 49.1731C58.1736 49.3205 58.1333 49.4846 58.1333 49.6507V75.6077H55.0333V62.11C55.0333 61.5359 54.5704 61.0718 54 61.0718C53.4296 61.0718 52.9667 61.5359 52.9667 62.11V75.6077H49.8667V49.6507C49.8667 49.4846 49.8264 49.3205 49.7509 49.1731L42.7542 35.6018C42.6251 35.3568 42.5982 35.0764 42.6788 34.8117C42.7594 34.5469 42.9382 34.3278 43.182 34.198C43.678 33.9364 44.3177 34.1316 44.5863 34.6403L53.0948 50.1512C53.4596 50.8146 54.5404 50.8146 54.9052 50.1512L63.4219 34.6258C63.6803 34.1378 64.324 33.9364 64.818 34.198C65.0618 34.3278 65.2406 34.5469 65.3212 34.8117C65.4018 35.0764 65.3749 35.3568 65.2396 35.6122L58.2491 49.1731ZM82.9333 57.9569C82.9333 59.3088 82.0674 60.4498 80.8667 60.8807V51.7273C80.8667 51.1531 80.4037 50.689 79.8333 50.689C79.2629 50.689 78.8 51.1531 78.8 51.7273V75.6077H75.7V62.11C75.7 61.5359 75.2371 61.0718 74.6667 61.0718C74.0963 61.0718 73.6333 61.5359 73.6333 62.11V75.6077H70.5333V49.6507C70.5333 49.4846 70.493 49.3205 70.4176 49.1731L65.4969 39.6293L66.7038 37.2869L73.7615 50.1512C73.9185 50.4377 74.1996 50.6319 74.522 50.6786C74.8454 50.7233 75.1668 50.6163 75.3972 50.3848L79.1152 46.6491L81.1539 47.1692C82.2183 47.5233 82.9333 48.52 82.9333 49.6507V57.9569Z" fill="#3353B0"/>
</svg>
