<svg width="123" height="123" viewBox="0 0 123 123" fill="none" xmlns="http://www.w3.org/2000/svg">
<g filter="url(#filter0_d)">
<path fill-rule="evenodd" clip-rule="evenodd" d="M61.5924 109.654C32.5465 109.654 9 86.2266 9 57.3269C9 28.428 32.5465 5 61.5924 5C90.6344 5 114.184 28.428 114.184 57.3269C114.184 86.2266 90.6344 109.654 61.5924 109.654Z" fill="white" stroke="#3353B0"/>
<path fill-rule="evenodd" clip-rule="evenodd" d="M84.1252 57.9231C85.256 57.0812 86 55.7465 86 54.2308C86 51.6858 83.9295 49.6154 81.3846 49.6154H67.5385V39.4615C67.5385 35.8994 64.6391 33 61.0769 33H59.2308C58.7203 33 58.3077 33.4126 58.3077 33.9231V41.9695L51.3302 53.3077H38.9231C38.4126 53.3077 38 53.7203 38 54.2308C38 54.7412 38.4126 55.1538 38.9231 55.1529H50.9231V79.1538H38.9231C38.4126 79.1538 38 79.5665 38 80.0769C38 80.5874 38.4126 81 38.9231 81H51.8462C52.3566 81 52.7692 80.5874 52.7692 80.0769V80.0538C53.5428 80.6391 54.4954 81 55.5385 81H75.8462C78.3911 81 80.4615 78.9295 80.4615 76.3846C80.4615 75.3415 80.1006 74.3889 79.5154 73.6154H79.5385C82.0834 73.6154 84.1538 71.5449 84.1538 69C84.1538 67.8194 83.6951 66.7523 82.9631 65.9354C84.7289 65.2874 86 63.6028 86 61.6154C86 60.0997 85.256 58.7649 84.1252 57.9231ZM81.2647 64.3333H78.5294C78.0252 64.3333 77.6176 64.7431 77.6176 65.25C77.6176 65.7569 78.0252 66.1667 78.5294 66.1667H79.4412C80.9492 66.1667 82.1765 67.4005 82.1765 68.9167C82.1765 70.4328 80.9492 71.6667 79.4412 71.6667H75.7941C75.2899 71.6667 74.8824 72.0764 74.8824 72.5833C74.8824 73.0903 75.2899 73.5 75.7941 73.5C77.3022 73.5 78.5294 74.7338 78.5294 76.25C78.5294 77.7662 77.3022 79 75.7941 79H55.7353C54.2272 79 53 77.7662 53 76.25V54.5094L60.1592 42.8137C60.2467 42.6688 60.2941 42.5029 60.2941 42.3333V35H61.2059C63.7196 35 65.7647 37.0561 65.7647 39.5833V50.5833C65.7647 51.0902 66.1723 51.5 66.6765 51.4991H81.2647C82.7728 51.5 84 52.7338 84 54.25C84 55.7662 82.7728 57 81.2647 57H79.4412C78.937 57 78.5294 57.4098 78.5294 57.9167C78.5294 58.4236 78.937 58.8333 79.4412 58.8333H81.2647C82.7728 58.8333 84 60.0672 84 61.5833C84 63.0995 82.7728 64.3333 81.2647 64.3333ZM49 76C49 74.897 48.103 74 47 74C45.897 74 45 74.897 45 76C45 77.103 45.897 78 47 78C48.103 78 49 77.103 49 76Z" fill="#3353B0"/>
</g>
<defs>
<filter id="filter0_d" x="0.5" y="0.5" width="122.184" height="121.654" filterUnits="userSpaceOnUse" color-interpolation-filters="sRGB">
<feFlood flood-opacity="0" result="BackgroundImageFix"/>
<feColorMatrix in="SourceAlpha" type="matrix" values="0 0 0 0 0 0 0 0 0 0 0 0 0 0 0 0 0 0 127 0"/>
<feOffset dy="4"/>
<feGaussianBlur stdDeviation="4"/>
<feColorMatrix type="matrix" values="0 0 0 0 0 0 0 0 0 0 0 0 0 0 0 0 0 0 0.25 0"/>
<feBlend mode="normal" in2="BackgroundImageFix" result="effect1_dropShadow"/>
<feBlend mode="normal" in="SourceGraphic" in2="effect1_dropShadow" result="shape"/>
</filter>
</defs>
</svg>
