<svg width="22" height="22" viewBox="0 0 22 22" fill="none" xmlns="http://www.w3.org/2000/svg">
<g clip-path="url(#clip0)">
<path d="M11.0007 22C17.0738 22 21.9971 17.0752 21.9971 11C21.9971 4.92488 17.0738 0 11.0007 0C4.92749 0 0.00421143 4.92488 0.00421143 11C0.00421143 17.0752 4.92749 22 11.0007 22Z" fill="#8CAAFF"/>
<path d="M11 0C10.995 0 10.9901 0.000171854 10.9851 0.000171854V21.9998C10.9901 21.9998 10.995 22 11 22C17.0732 22 21.9965 17.0751 21.9965 11C21.9965 4.92482 17.0732 0 11 0Z" fill="#3353B0"/>
<path d="M4.78295 11.2185L9.2307 15.6663C9.42468 15.8603 9.73922 15.8603 9.9332 15.6663L17.2351 8.36434C17.4291 8.17036 17.4291 7.85583 17.2351 7.66185L15.9061 6.33277C15.7121 6.13879 15.3975 6.13879 15.2036 6.33277L9.89255 11.6437C9.69857 11.8377 9.38404 11.8377 9.19006 11.6437L6.81001 9.26365C6.61985 9.0735 6.31288 9.0692 6.11748 9.25394L4.79292 10.5063C4.58961 10.6985 4.5851 11.0207 4.78295 11.2185Z" fill="#FFF5F5"/>
<path d="M15.9061 6.33273C15.7121 6.13875 15.3975 6.13875 15.2036 6.33273L10.9851 10.5512V14.6144L17.2351 8.36434C17.4291 8.17036 17.4291 7.85582 17.2351 7.6618L15.9061 6.33273Z" fill="white"/>
<g clip-path="url(#clip1)">
<path d="M11.0007 22C17.0738 22 21.9971 17.0752 21.9971 11C21.9971 4.92488 17.0738 0 11.0007 0C4.92749 0 0.00421143 4.92488 0.00421143 11C0.00421143 17.0752 4.92749 22 11.0007 22Z" fill="#8CAAFF"/>
<path d="M11 0C10.995 0 10.9901 0.000171854 10.9851 0.000171854V21.9998C10.9901 21.9998 10.995 22 11 22C17.0732 22 21.9965 17.0751 21.9965 11C21.9965 4.92482 17.0732 0 11 0Z" fill="#3353B0"/>
<path d="M4.78295 11.2185L9.2307 15.6663C9.42468 15.8603 9.73922 15.8603 9.9332 15.6663L17.2351 8.36434C17.4291 8.17036 17.4291 7.85583 17.2351 7.66185L15.9061 6.33277C15.7121 6.13879 15.3975 6.13879 15.2036 6.33277L9.89255 11.6437C9.69857 11.8377 9.38404 11.8377 9.19006 11.6437L6.81001 9.26365C6.61985 9.0735 6.31288 9.0692 6.11748 9.25394L4.79292 10.5063C4.58961 10.6985 4.5851 11.0207 4.78295 11.2185Z" fill="#FFF5F5"/>
<path d="M15.9061 6.33273C15.7121 6.13875 15.3975 6.13875 15.2036 6.33273L10.9851 10.5512V14.6144L17.2351 8.36434C17.4291 8.17036 17.4291 7.85582 17.2351 7.6618L15.9061 6.33273Z" fill="white"/>
<g clip-path="url(#clip2)">
<path d="M11.0007 22C17.0738 22 21.9971 17.0752 21.9971 11C21.9971 4.92488 17.0738 0 11.0007 0C4.92749 0 0.00421143 4.92488 0.00421143 11C0.00421143 17.0752 4.92749 22 11.0007 22Z" fill="#8CAAFF"/>
<path d="M11 0C10.995 0 10.9901 0.000171854 10.9851 0.000171854V21.9998C10.9901 21.9998 10.995 22 11 22C17.0732 22 21.9965 17.0751 21.9965 11C21.9965 4.92482 17.0732 0 11 0Z" fill="#3353B0"/>
<path d="M4.78295 11.2185L9.2307 15.6663C9.42468 15.8603 9.73922 15.8603 9.9332 15.6663L17.2351 8.36434C17.4291 8.17036 17.4291 7.85583 17.2351 7.66185L15.9061 6.33277C15.7121 6.13879 15.3975 6.13879 15.2036 6.33277L9.89255 11.6437C9.69857 11.8377 9.38404 11.8377 9.19006 11.6437L6.81001 9.26365C6.61985 9.0735 6.31288 9.0692 6.11748 9.25394L4.79292 10.5063C4.58961 10.6985 4.5851 11.0207 4.78295 11.2185Z" fill="#FFF5F5"/>
<path d="M15.9061 6.33273C15.7121 6.13875 15.3975 6.13875 15.2036 6.33273L10.9851 10.5512V14.6144L17.2351 8.36434C17.4291 8.17036 17.4291 7.85582 17.2351 7.6618L15.9061 6.33273Z" fill="white"/>
</g>
</g>
</g>
<defs>
<clipPath id="clip0">
<rect width="22" height="22" fill="white"/>
</clipPath>
<clipPath id="clip1">
<rect width="22" height="22" fill="white"/>
</clipPath>
<clipPath id="clip2">
<rect width="22" height="22" fill="white"/>
</clipPath>
</defs>
</svg>
