<svg width="104" height="39" viewBox="0 0 104 39" fill="none" xmlns="http://www.w3.org/2000/svg">
<g clip-path="url(#clip0)">
<path d="M12.1876 0.0233917C12.1876 0.0233917 14.3866 1.55892 13.9466 3.68201C13.9322 3.75348 12.554 2.21796 11.8221 2.28977C11.7493 2.29782 13.2261 3.68201 12.4093 5.36384C11.1631 7.92651 8.45289 8.94896 7.20777 11.0731C5.75809 13.5414 6.09498 16.2571 7.55339 17.8963C9.0867 19.6225 13.2292 19.8594 14.565 17.3276C15.6092 15.3454 14.9536 13.8572 14.9536 13.8572C14.9536 13.8572 12.9762 17.7158 9.97881 15.7709C8.81296 15.0119 8.46532 12.4861 9.44073 10.9815C10.3265 9.61438 11.7479 8.49663 13.5644 8.60401C14.7537 8.67515 15.6301 9.72478 15.6301 9.72478C15.6301 9.72478 18.9355 1.05658 12.1876 0.0233917Z" fill="#FFB819"/>
<path d="M9.90593 6.54098C8.7525 8.50434 6.30424 10.0204 5.0655 11.7881C2.94103 14.8213 2.81776 17.8064 5.36108 19.2184C6.18534 19.6745 7.10331 19.8124 8.37027 19.6305L8.37866 19.854C8.01322 20.2929 4.75951 20.9355 3.00048 19.4731C1.31569 18.0685 1.12323 14.8401 3.06934 12.316C4.57142 10.3691 7.31324 9.09124 8.55803 6.53158C9.37591 4.84841 8.25674 3.00585 8.37396 3.25819C8.3743 3.25819 10.9085 4.83029 9.90593 6.54098Z" fill="#FFB819"/>
<path d="M14.7783 21.0536L0.0947472 21.6053L0.0584717 23.369L4.0031 24.9961L1.29083 38.2021L2.15573 37.5246L7.19098 24.8176L5.57772 23.1479L14.7783 21.0536Z" fill="#332A86"/>
<path fill-rule="evenodd" clip-rule="evenodd" d="M3.65008 36.9162C3.74849 36.9162 3.84355 36.9404 3.9376 36.9911C4.02929 37.0401 4.10285 37.1136 4.15391 37.2068C4.20597 37.2998 4.23217 37.3961 4.23217 37.4978C4.23217 37.5974 4.20597 37.6951 4.15491 37.7867C4.10487 37.879 4.03164 37.9491 3.94096 38.0011C3.84926 38.0508 3.75185 38.078 3.65042 38.078C3.55133 38.078 3.45426 38.0511 3.36122 38.0011C3.26919 37.9494 3.19865 37.8793 3.14592 37.7867C3.09486 37.6951 3.06967 37.5974 3.06967 37.4978C3.06967 37.3961 3.09587 37.2998 3.14793 37.2068C3.19999 37.1139 3.27221 37.0404 3.36525 36.9911C3.45795 36.9407 3.55402 36.9162 3.65008 36.9162ZM3.65008 37.0126C3.5688 37.0126 3.49053 37.0323 3.41194 37.0743C3.33468 37.1169 3.27557 37.1766 3.23123 37.2531C3.18757 37.3337 3.16573 37.4142 3.16573 37.4978C3.16573 37.5817 3.1879 37.6615 3.23022 37.7377C3.27322 37.8139 3.33267 37.8746 3.40992 37.9186C3.48718 37.9598 3.56678 37.981 3.65008 37.981C3.73405 37.981 3.81533 37.9598 3.89259 37.9186C3.96883 37.8746 4.02929 37.8139 4.07195 37.7377C4.11528 37.6615 4.13577 37.5817 4.13577 37.4978C4.13577 37.4146 4.11394 37.334 4.06993 37.2531C4.02593 37.1763 3.96648 37.1169 3.88956 37.0743C3.81231 37.0323 3.73204 37.0126 3.65008 37.0126ZM3.39649 37.8176V37.1944H3.61078C3.68535 37.1944 3.73842 37.1998 3.77167 37.2115C3.80391 37.2226 3.83112 37.2424 3.84993 37.2719C3.86975 37.3008 3.87915 37.3317 3.87915 37.3635C3.87915 37.4088 3.86202 37.4481 3.83011 37.4823C3.79652 37.5159 3.75252 37.5347 3.69945 37.5401C3.72129 37.5478 3.73909 37.5598 3.75252 37.5723C3.77872 37.5951 3.80895 37.637 3.84422 37.6968L3.9208 37.8179H3.79854L3.74346 37.7202C3.69945 37.6424 3.66519 37.5937 3.63698 37.5753C3.61817 37.5595 3.59197 37.5538 3.5567 37.5538H3.49692V37.8179H3.39649V37.8176ZM3.49658 37.4662H3.61985C3.67829 37.4662 3.71826 37.4572 3.73875 37.4407C3.76059 37.4216 3.77201 37.4008 3.77201 37.3719C3.77201 37.3542 3.76596 37.336 3.75555 37.3229C3.74513 37.3072 3.7317 37.2968 3.71255 37.2894C3.69509 37.2827 3.66184 37.2776 3.61112 37.2776H3.49624V37.4662H3.49658Z" fill="#332A86"/>
<path d="M23.3588 36.7911H22.2463L22.077 35.6394H20.3922L19.9005 36.7911H18.78L21.2951 31.4922C21.365 31.4597 21.4456 31.4305 21.5369 31.4033C21.6283 31.3768 21.7197 31.3631 21.811 31.3631C21.9934 31.3631 22.1429 31.4033 22.2584 31.4839C22.374 31.5641 22.4505 31.704 22.4882 31.9026L23.3588 36.7911ZM20.755 34.77H21.9481L21.6659 32.6439L20.755 34.77Z" fill="#D51067"/>
<path d="M25.1 36.7911H24.0117L24.6405 32.9818C24.7641 32.9607 24.8985 32.9496 25.0436 32.9496C25.194 32.9496 25.315 32.9818 25.4063 33.0459C25.4977 33.1107 25.5675 33.2207 25.6159 33.3761C25.7395 33.2422 25.89 33.1238 26.0673 33.0217C26.2447 32.9197 26.4677 32.8687 26.7364 32.8687C26.9783 32.8687 27.1744 32.9224 27.3249 33.0298C27.4754 33.1372 27.5802 33.2741 27.6393 33.4405C27.693 33.5962 27.7199 33.768 27.7199 33.9559C27.7199 34.0522 27.7145 34.1479 27.7038 34.2418C27.693 34.3358 27.6796 34.4287 27.6635 34.5197L27.2846 36.7908H26.1963L26.5752 34.5197C26.5859 34.4606 26.594 34.4042 26.5994 34.3506C26.6048 34.2969 26.6074 34.2432 26.6074 34.1895C26.6074 34.0663 26.5792 33.9613 26.5228 33.8754C26.4664 33.7895 26.3522 33.7466 26.1802 33.7466C26.0082 33.7466 25.8578 33.819 25.7288 33.9637C25.5998 34.1086 25.5165 34.2939 25.4789 34.5193L25.1 36.7911Z" fill="#D51067"/>
<path d="M34.4107 36.7911H33.2983L33.129 35.6394H31.4442L30.9524 36.7911H29.8319L32.347 31.4922C32.4169 31.4597 32.4975 31.4305 32.5889 31.4033C32.6802 31.3768 32.7716 31.3631 32.863 31.3631C33.0453 31.3631 33.1948 31.4033 33.3103 31.4839C33.4259 31.5641 33.5025 31.704 33.5401 31.9026L34.4107 36.7911ZM31.8069 34.77H33L32.7179 32.6439L31.8069 34.77Z" fill="#D51067"/>
<path d="M37.7155 35.5834C37.9895 35.723 38.1269 35.8921 38.1269 36.0908C38.1269 36.2035 38.0943 36.3005 38.0299 36.3807C37.9657 36.4612 37.8958 36.5283 37.8206 36.5824C37.702 36.6629 37.5502 36.7381 37.3651 36.8079C37.1797 36.8773 36.9339 36.9125 36.6275 36.9125C36.332 36.9125 36.0848 36.8683 35.8859 36.7797C35.6871 36.6911 35.5258 36.573 35.4022 36.425C35.2783 36.2777 35.19 36.1072 35.1362 35.9139C35.0825 35.7206 35.0556 35.5193 35.0556 35.3096C35.0556 34.9824 35.1067 34.6693 35.2088 34.3717C35.3109 34.0734 35.456 33.8147 35.6441 33.5945C35.8322 33.3744 36.0633 33.1986 36.3373 33.067C36.6114 32.9355 36.9231 32.8697 37.2724 32.8697C37.4605 32.8697 37.6271 32.8966 37.7722 32.9503C37.9173 33.0039 38.0396 33.0764 38.139 33.1677C38.2388 33.2586 38.3133 33.3663 38.3647 33.4895C38.4158 33.6133 38.4417 33.7475 38.4417 33.8922C38.4417 34.1928 38.3745 34.4358 38.2401 34.6213C38.1058 34.8062 37.9365 34.9525 37.7319 35.0599C37.5277 35.1673 37.3047 35.2401 37.0628 35.2777C36.821 35.3153 36.5926 35.3341 36.3776 35.3341C36.3239 35.3341 36.2755 35.3341 36.2325 35.3341C36.1895 35.3341 36.1466 35.3314 36.1036 35.3264V35.3747C36.1036 35.4982 36.1237 35.6055 36.164 35.6968C36.2043 35.7884 36.2554 35.8633 36.3172 35.9223C36.379 35.9817 36.4488 36.026 36.5268 36.0552C36.6047 36.0847 36.6813 36.0995 36.7565 36.0995C36.9769 36.0995 37.165 36.0488 37.3208 35.9465C37.4763 35.8438 37.608 35.723 37.7155 35.5834ZM36.4179 34.6895C36.5416 34.6895 36.6648 34.6764 36.7888 34.6495C36.9124 34.6227 37.0252 34.5807 37.1273 34.5244C37.2294 34.468 37.3114 34.3985 37.3732 34.3153C37.435 34.2321 37.4659 34.1338 37.4659 34.021C37.4659 33.9301 37.439 33.8506 37.3853 33.7838C37.3316 33.7163 37.2375 33.6828 37.1032 33.6828C36.8721 33.6828 36.6769 33.7744 36.5187 33.9566C36.3602 34.1391 36.246 34.3807 36.1761 34.6814C36.2245 34.6868 36.2661 34.6891 36.3011 34.6891C36.3357 34.6895 36.3746 34.6895 36.4179 34.6895Z" fill="#D51067"/>
<path d="M41.1899 36.6464C41.0609 36.7431 40.9181 36.8115 40.7629 36.8518C40.6068 36.8921 40.4324 36.9122 40.2386 36.9122C39.8359 36.9122 39.5346 36.8075 39.3361 36.5978C39.1373 36.3887 39.0375 36.0988 39.0375 35.728C39.0375 35.6639 39.0415 35.5965 39.0499 35.5267C39.0577 35.4572 39.0671 35.3844 39.0782 35.3092L39.6666 31.7818C39.7308 31.7714 39.7953 31.763 39.8598 31.7577C39.9242 31.7523 39.9834 31.7499 40.0371 31.7499C40.2574 31.7499 40.4143 31.8023 40.5087 31.907C40.6024 32.0117 40.6498 32.1419 40.6498 32.2976C40.6498 32.3301 40.6484 32.362 40.6457 32.3942C40.6427 32.4264 40.6387 32.4583 40.6333 32.4909L40.5611 32.958H41.5926L41.4555 33.7878H40.424L40.1657 35.3659C40.155 35.4196 40.1469 35.4696 40.1419 35.5149C40.1362 35.5606 40.1338 35.6049 40.1338 35.6475C40.1338 35.927 40.2574 36.0663 40.5047 36.0663C40.6279 36.0663 40.7357 36.029 40.8268 35.9535C40.9181 35.8787 41.0014 35.7901 41.0767 35.6881C41.2164 35.7471 41.3158 35.8183 41.3753 35.9015C41.4344 35.9847 41.4639 36.072 41.4639 36.1632C41.4639 36.2438 41.4421 36.3256 41.3995 36.4085C41.3565 36.4924 41.2866 36.5713 41.1899 36.6464Z" fill="#D51067"/>
<path d="M43.0846 36.7911H41.9963L42.6251 32.9818C42.7487 32.9607 42.8834 32.9496 43.0282 32.9496C43.1783 32.9496 43.2995 32.9818 43.3909 33.0459C43.4819 33.1107 43.5521 33.2207 43.6002 33.3761C43.7241 33.2422 43.8742 33.1238 44.0519 33.0217C44.2293 32.9197 44.4523 32.8687 44.7207 32.8687C44.9628 32.8687 45.159 32.9224 45.3095 33.0298C45.46 33.1372 45.5647 33.2741 45.6242 33.4405C45.6776 33.5962 45.7045 33.768 45.7045 33.9559C45.7045 34.0522 45.6988 34.1479 45.6884 34.2418C45.6776 34.3358 45.6642 34.4287 45.648 34.5197L45.2692 36.7908H44.1809L44.5598 34.5197C44.5705 34.4606 44.5786 34.4042 44.584 34.3506C44.5893 34.2969 44.592 34.2432 44.592 34.1895C44.592 34.0663 44.5638 33.9613 44.5074 33.8754C44.451 33.7895 44.3364 33.7466 44.1648 33.7466C43.9925 33.7466 43.8423 33.819 43.713 33.9637C43.5844 34.1086 43.5011 34.2939 43.4635 34.5193L43.0846 36.7911Z" fill="#D51067"/>
<path d="M48.5901 36.3723C48.4665 36.5334 48.32 36.6639 48.1507 36.7629C47.9814 36.8626 47.7786 36.9119 47.5418 36.9119C47.3214 36.9119 47.1401 36.8756 46.9976 36.8035C46.8552 36.7307 46.742 36.6314 46.6591 36.5052C46.5754 36.3794 46.5163 36.2273 46.4817 36.0505C46.4468 35.8733 46.4293 35.68 46.4293 35.4703C46.4293 35.1374 46.4817 34.8156 46.5868 34.5039C46.6916 34.1925 46.8421 33.916 47.0383 33.6744C47.2344 33.4325 47.4696 33.2378 47.7436 33.0905C48.0177 32.9432 48.3244 32.869 48.6626 32.869C48.8776 32.869 49.114 32.9026 49.3717 32.9697C49.6296 33.0368 49.8741 33.1405 50.1052 33.2801L49.6861 35.8169C49.6699 35.8971 49.6622 35.9861 49.6622 36.0827C49.6622 36.2008 49.6713 36.3203 49.6904 36.4411C49.7089 36.5616 49.7371 36.6679 49.7751 36.7589C49.6837 36.8126 49.5866 36.8501 49.4849 36.8716C49.3827 36.8931 49.2806 36.9038 49.1785 36.9038C49.0062 36.9038 48.8692 36.8626 48.7674 36.7793C48.6653 36.6961 48.6062 36.5606 48.5901 36.3723ZM48.6062 33.6747C48.4665 33.6747 48.3321 33.716 48.2031 33.7992C48.0741 33.8824 47.9586 34.0009 47.8565 34.1539C47.7544 34.3069 47.6724 34.4935 47.611 34.7136C47.5488 34.9338 47.5183 35.1811 47.5183 35.4545C47.5183 35.879 47.6634 36.0908 47.9539 36.0908C48.0503 36.0908 48.139 36.0683 48.2196 36.0226C48.3002 35.9767 48.3731 35.9166 48.4372 35.8411C48.5014 35.7663 48.5555 35.679 48.5985 35.5797C48.6411 35.4804 48.6707 35.3743 48.6871 35.2616L48.937 33.7717C48.8292 33.7069 48.719 33.6747 48.6062 33.6747Z" fill="#D51067"/>
<path d="M56.224 35.3176C56.3473 35.4092 56.4427 35.5015 56.5102 35.5955C56.5774 35.6894 56.6113 35.782 56.6113 35.8733C56.6113 36.0236 56.5693 36.1508 56.486 36.2559C56.4027 36.3609 56.2858 36.4589 56.1357 36.5498C55.9745 36.6518 55.7729 36.7404 55.5308 36.8156C55.2889 36.8911 55.0229 36.9283 54.7331 36.9283C54.3888 36.9283 54.0922 36.8719 53.8423 36.7592C53.5924 36.6464 53.3855 36.4907 53.2216 36.2921C53.0577 36.0934 52.9354 35.8572 52.8545 35.5834C52.7742 35.3096 52.7335 35.0089 52.7335 34.6817C52.7335 34.2898 52.79 33.8922 52.9028 33.4895C53.0157 33.0872 53.1863 32.7234 53.4147 32.3983C53.6435 32.0734 53.9347 31.8077 54.2894 31.6013C54.644 31.3943 55.0632 31.2909 55.5469 31.2909C55.9016 31.2909 56.1958 31.3553 56.4293 31.4842C56.663 31.613 56.8367 31.7634 56.9495 31.9352C56.9868 31.9946 57.0127 32.055 57.0261 32.1164C57.0396 32.1781 57.0463 32.2385 57.0463 32.2976C57.0463 32.4533 56.9969 32.5838 56.8975 32.6882C56.7977 32.7929 56.654 32.8667 56.4662 32.9097C56.3695 32.6838 56.2432 32.507 56.0873 32.3781C55.9311 32.2493 55.7138 32.1848 55.4347 32.1848C55.2144 32.1848 55.0081 32.2412 54.818 32.354C54.6273 32.4667 54.4617 32.6331 54.3219 32.8533C54.1822 33.0734 54.0707 33.3459 53.9874 33.671C53.9041 33.9959 53.8624 34.3703 53.8624 34.7945C53.8624 34.9663 53.8836 35.1274 53.9269 35.2777C53.9696 35.428 54.0327 35.5582 54.1164 35.6683C54.1997 35.7784 54.3018 35.8656 54.4227 35.93C54.5436 35.9945 54.682 36.0267 54.8379 36.0267C54.9937 36.0267 55.1385 36.0062 55.2732 35.9663C55.4072 35.9257 55.5321 35.8723 55.6477 35.8052C55.7635 35.7384 55.8693 35.6616 55.9664 35.5757C56.0625 35.4894 56.1485 35.4039 56.224 35.3176Z" fill="#D51067"/>
<path d="M58.7633 36.9122C58.4782 36.9122 58.2404 36.8679 58.0496 36.7793C57.8591 36.6907 57.706 36.5726 57.5904 36.4246C57.4749 36.2773 57.3916 36.1069 57.3405 35.9136C57.2895 35.7203 57.2636 35.519 57.2636 35.3092C57.2636 34.9821 57.3096 34.669 57.4006 34.3713C57.4917 34.073 57.6264 33.8143 57.8037 33.5942C57.9811 33.3741 58.2001 33.1982 58.4607 33.0667C58.721 32.9352 59.021 32.8694 59.3595 32.8694C59.6336 32.8694 59.866 32.9137 60.0568 33.0023C60.2476 33.0909 60.4018 33.2086 60.5203 33.3566C60.6389 33.5043 60.7246 33.6747 60.7786 33.868C60.832 34.061 60.8592 34.2626 60.8592 34.4717C60.8592 34.7888 60.8173 35.0948 60.734 35.3898C60.6507 35.6854 60.5234 35.9455 60.3511 36.171C60.1787 36.3965 59.9614 36.5766 59.6981 36.7105C59.4351 36.8448 59.1234 36.9122 58.7633 36.9122ZM58.3361 35.3579C58.3361 35.6049 58.3855 35.7888 58.4852 35.9099C58.5843 36.0304 58.7096 36.0908 58.8597 36.0908C58.9833 36.0908 59.1019 36.0549 59.2148 35.982C59.3276 35.9099 59.4254 35.8039 59.509 35.6643C59.592 35.5247 59.6581 35.3515 59.7065 35.1445C59.7549 34.9381 59.779 34.7005 59.779 34.4321C59.779 34.1851 59.7293 34.0012 59.6302 33.8801C59.5305 33.7596 59.4059 33.6992 59.2554 33.6992C59.1318 33.6992 59.0136 33.7351 58.9007 33.8076C58.7878 33.8801 58.6894 33.9861 58.6061 34.1257C58.5228 34.2653 58.4573 34.4385 58.4086 34.6452C58.3603 34.8519 58.3361 35.0894 58.3361 35.3579Z" fill="#D51067"/>
<path d="M65.6476 33.7472C65.5559 33.7472 65.473 33.771 65.3977 33.8197C65.3221 33.8684 65.2566 33.9298 65.2002 34.0049C65.1438 34.0804 65.0964 34.1633 65.0591 34.2546C65.0215 34.3462 64.9973 34.4345 64.9863 34.5204L64.6077 36.7914H63.5195L63.8983 34.5204C63.9091 34.4613 63.9171 34.4049 63.9222 34.3512C63.9279 34.2975 63.9306 34.2492 63.9306 34.2063C63.9306 33.9002 63.8013 33.7472 63.5436 33.7472C63.4093 33.7472 63.2759 33.8157 63.1443 33.9526C63.0126 34.0895 62.9256 34.2788 62.8823 34.52L62.5037 36.7911H61.4155L62.0439 32.9818C62.1675 32.9607 62.3022 32.9496 62.4473 32.9496C62.5974 32.9496 62.7184 32.9818 62.8097 33.0459C62.9014 33.1107 62.971 33.2207 63.0193 33.3761C63.1429 33.2422 63.2934 33.1238 63.4708 33.0217C63.6481 32.9197 63.8711 32.8687 64.1398 32.8687C64.3709 32.8687 64.5483 32.9197 64.6719 33.0217C64.7955 33.1238 64.8872 33.2607 64.946 33.4325C65.0266 33.3466 65.1072 33.2687 65.1878 33.1993C65.2684 33.1295 65.3571 33.0701 65.4538 33.0221C65.5505 32.9738 65.6594 32.9362 65.7806 32.9093C65.9012 32.8825 66.0396 32.8691 66.1954 32.8691C66.4319 32.8744 66.6217 32.9308 66.7638 33.0382C66.9062 33.1456 67.0069 33.2801 67.0661 33.4409C67.1195 33.5966 67.1463 33.7684 67.1463 33.9563C67.1463 34.0526 67.1406 34.1482 67.1302 34.2422C67.1195 34.3361 67.106 34.4291 67.0899 34.52L66.711 36.7911H65.6228L66.002 34.52C66.0178 34.418 66.0258 34.3163 66.0258 34.214C66.0258 34.0583 65.9976 33.9418 65.9412 33.8637C65.8858 33.7861 65.7873 33.7472 65.6476 33.7472Z" fill="#D51067"/>
<path d="M68.727 32.9499C68.856 32.9499 68.9712 32.9741 69.0733 33.0224C69.1757 33.0707 69.256 33.1808 69.3155 33.3523C69.4226 33.2341 69.5637 33.1241 69.7387 33.0224C69.9133 32.9204 70.1216 32.8694 70.3631 32.8694C70.5784 32.8694 70.7611 32.9096 70.9116 32.9898C71.0617 33.0704 71.1816 33.1818 71.2703 33.3241C71.359 33.4667 71.4231 33.6301 71.4635 33.8157C71.5038 34.0009 71.5242 34.1982 71.5242 34.4076C71.5242 34.7405 71.4769 35.0586 71.3832 35.3619C71.2888 35.6653 71.1558 35.931 70.9838 36.1596C70.8115 36.3877 70.6049 36.5699 70.3628 36.7068C70.1209 36.8438 69.8549 36.9122 69.565 36.9122C69.3927 36.9122 69.2449 36.8884 69.1217 36.8397C68.9977 36.7911 68.8929 36.7377 68.8076 36.6787L68.5013 38.5471H67.4372L68.3478 32.9821C68.4123 32.9717 68.4784 32.9633 68.5453 32.958C68.6131 32.9526 68.6733 32.9499 68.727 32.9499ZM69.3719 36.1069C69.5059 36.1069 69.6362 36.0706 69.7629 35.9981C69.8888 35.9253 69.999 35.8169 70.093 35.6716C70.1871 35.5267 70.2627 35.3472 70.3191 35.1324C70.3755 34.9173 70.4037 34.668 70.4037 34.3834C70.4037 34.1418 70.355 33.9647 70.2583 33.8519C70.1616 33.7392 70.038 33.6828 69.8875 33.6828C69.7965 33.6828 69.7118 33.7056 69.6336 33.7512C69.5556 33.7969 69.4861 33.8559 69.4243 33.9284C69.3625 34.0009 69.3098 34.0811 69.2668 34.17C69.2238 34.2589 69.1969 34.3458 69.1862 34.4318L68.9205 36.0022C68.9796 36.0455 69.0397 36.0736 69.1015 36.0867C69.1633 36.1002 69.2537 36.1069 69.3719 36.1069Z" fill="#D51067"/>
<path d="M74.394 36.3723C74.2704 36.5334 74.1236 36.6639 73.9544 36.7629C73.7851 36.8626 73.5825 36.9119 73.3457 36.9119C73.1254 36.9119 72.944 36.8756 72.8016 36.8035C72.6592 36.7307 72.5463 36.6314 72.463 36.5052C72.3797 36.3794 72.3206 36.2273 72.2857 36.0505C72.2508 35.8733 72.2336 35.68 72.2336 35.4703C72.2336 35.1374 72.2857 34.8156 72.3905 34.5039C72.4956 34.1925 72.6458 33.916 72.8422 33.6744C73.0384 33.4325 73.2735 33.2378 73.5479 33.0905C73.8217 32.9432 74.1284 32.869 74.4666 32.869C74.6816 32.869 74.9184 32.9026 75.176 32.9697C75.4339 33.0368 75.6785 33.1405 75.9095 33.2801L75.4904 35.8169C75.4742 35.8971 75.4662 35.9861 75.4662 36.0827C75.4662 36.2008 75.4756 36.3203 75.4944 36.4411C75.5135 36.5616 75.5418 36.6679 75.579 36.7589C75.488 36.8126 75.3909 36.8501 75.2892 36.8716C75.1867 36.8931 75.0849 36.9038 74.9828 36.9038C74.8109 36.9038 74.6738 36.8626 74.5714 36.7793C74.4689 36.6961 74.4098 36.5606 74.394 36.3723ZM74.4098 33.6747C74.2701 33.6747 74.1361 33.716 74.0068 33.7992C73.8778 33.8824 73.7619 34.0009 73.6605 34.1539C73.558 34.3069 73.4761 34.4935 73.4146 34.7136C73.3528 34.9338 73.3222 35.1811 73.3222 35.4545C73.3222 35.879 73.4673 36.0908 73.7572 36.0908C73.8543 36.0908 73.9429 36.0683 74.0236 36.0226C74.1038 35.9767 74.1764 35.9166 74.2412 35.8411C74.3057 35.7663 74.3594 35.679 74.4021 35.5797C74.4454 35.4804 74.475 35.3743 74.4911 35.2616L74.7407 33.7717C74.6325 33.7069 74.5227 33.6747 74.4098 33.6747Z" fill="#D51067"/>
<path d="M77.4811 36.7911H76.3929L77.022 32.9818C77.1453 32.9607 77.2799 32.9496 77.4247 32.9496C77.5752 32.9496 77.6964 32.9818 77.7875 33.0459C77.8785 33.1107 77.9487 33.2207 77.9971 33.3761C78.1207 33.2422 78.2711 33.1238 78.4488 33.0217C78.6258 32.9197 78.8489 32.8687 79.1176 32.8687C79.3594 32.8687 79.5556 32.9224 79.7064 33.0298C79.8565 33.1372 79.9616 33.2741 80.0208 33.4405C80.0745 33.5962 80.1014 33.768 80.1014 33.9559C80.1014 34.0522 80.0957 34.1479 80.0849 34.2418C80.0745 34.3358 80.0607 34.4287 80.0449 34.5197L79.6657 36.7908H78.5775L78.9567 34.5197C78.9671 34.4606 78.9755 34.4042 78.9809 34.3506C78.9862 34.2969 78.9886 34.2432 78.9886 34.1895C78.9886 34.0663 78.9604 33.9613 78.9039 33.8754C78.8475 33.7895 78.7333 33.7466 78.5613 33.7466C78.389 33.7466 78.2386 33.819 78.1096 33.9637C77.9806 34.1086 77.8973 34.2939 77.86 34.5193L77.4811 36.7911Z" fill="#D51067"/>
<path d="M80.7463 37.782C80.8427 37.782 80.926 37.7655 80.9962 37.7333C81.0657 37.7011 81.1288 37.6515 81.1853 37.5843C81.2417 37.5172 81.2964 37.434 81.3502 37.335C81.4039 37.2354 81.4604 37.1162 81.5198 36.9766L81.5843 36.8317H81.3586L80.7537 33.0627C80.9421 32.9872 81.1352 32.9499 81.3344 32.9499C81.4473 32.9499 81.5396 32.9701 81.6125 33.0103C81.6847 33.0506 81.7438 33.1056 81.7895 33.1754C81.8352 33.2452 81.8688 33.3257 81.8906 33.417C81.9118 33.5086 81.9279 33.6053 81.9387 33.7069L82.1083 35.7525L82.9628 33.6828C83.0538 33.4627 83.1667 33.2855 83.3013 33.1513C83.4357 33.0174 83.605 32.9499 83.8092 32.9499C83.9167 32.9499 84.0161 32.9607 84.1078 32.9821C84.1988 33.0039 84.2744 33.0308 84.3335 33.0627L82.3582 37.2505C82.2672 37.438 82.1785 37.6156 82.0925 37.782C82.0065 37.9481 81.9054 38.0934 81.7902 38.2165C81.6747 38.34 81.5403 38.438 81.3875 38.5108C81.234 38.583 81.0472 38.6195 80.8272 38.6195C80.6546 38.6195 80.5112 38.6044 80.3956 38.5749C80.2801 38.5454 80.1877 38.5095 80.1175 38.4662C80.0157 38.4021 79.9391 38.3343 79.8878 38.2649C79.8367 38.1951 79.8108 38.1145 79.8108 38.0229C79.8108 37.83 79.9375 37.6501 80.19 37.4833C80.2656 37.5907 80.354 37.6672 80.4561 37.7129C80.5578 37.7592 80.6542 37.782 80.7463 37.782Z" fill="#D51067"/>
<path d="M20.0661 16.8883C19.1135 16.0541 18.8603 14.9672 18.8603 14.0257C18.8603 13.3649 19.0648 12.22 19.9979 11.366C20.6979 10.7251 21.6209 10.3375 23.0696 10.3375C23.6711 10.3375 24.0305 10.3754 24.4773 10.4338C24.8467 10.4825 25.1574 10.5694 25.449 10.5996C25.5558 10.6086 25.5947 10.6566 25.5947 10.7157C25.5947 10.7929 25.5659 10.9103 25.546 11.2486C25.5269 11.569 25.537 12.1039 25.5172 12.2985C25.5067 12.4442 25.4876 12.5213 25.3996 12.5213C25.3223 12.5213 25.3032 12.4442 25.3032 12.3076C25.2935 12.0063 25.1675 11.6673 24.9233 11.4143C24.6039 11.0754 23.8455 10.812 22.9513 10.812C22.1056 10.812 21.5527 11.0264 21.1258 11.4143C20.4161 12.065 20.231 12.9861 20.231 13.9283C20.231 16.238 21.9904 17.3843 23.2919 17.3843C24.1565 17.3843 24.6815 17.2866 25.0698 16.841C25.2357 16.6554 25.3616 16.3749 25.3996 16.1994C25.4285 16.0447 25.4486 16.0061 25.5269 16.0061C25.5944 16.0061 25.6142 16.0736 25.6142 16.1518C25.6142 16.2679 25.4973 17.1125 25.3996 17.4423C25.3529 17.6074 25.3129 17.6561 25.1477 17.7235C24.7587 17.8802 24.0208 17.947 23.3994 17.947C22.068 17.9467 20.9495 17.6557 20.0661 16.8883Z" fill="#332A86"/>
<path d="M34.358 17.4618C32.4921 17.4618 31.375 15.8598 31.375 13.8414C31.375 11.4237 32.6483 10.8023 33.7655 10.8023C35.3576 10.8023 36.6114 12.1522 36.6114 14.327C36.6114 17.1319 35.0385 17.4618 34.358 17.4618ZM33.9512 17.9467C36.4186 17.9467 37.9721 16.1904 37.9721 13.9673C37.9721 11.7442 36.4673 10.3378 34.0466 10.3378C31.1331 10.3378 30.0351 12.4824 30.0351 14.1424C30.0348 15.8598 31.1614 17.9467 33.9512 17.9467Z" fill="#332A86"/>
<path d="M42.0245 11.4237C41.8015 10.8902 41.6369 10.7835 41.2852 10.6872C41.1401 10.6479 40.9846 10.6479 40.9074 10.6479C40.8194 10.6479 40.7905 10.6184 40.7905 10.5607C40.7905 10.4825 40.8973 10.4727 41.0417 10.4727C41.5573 10.4727 42.1125 10.5023 42.4521 10.5023C42.6949 10.5023 43.1605 10.4727 43.6462 10.4727C43.7637 10.4727 43.8705 10.4932 43.8705 10.5607C43.8705 10.6281 43.8114 10.6479 43.7248 10.6479C43.5693 10.6479 43.4231 10.657 43.3456 10.716C43.278 10.7647 43.2485 10.8328 43.2485 10.9197C43.2485 11.0455 43.3372 11.317 43.4729 11.6677L45.1432 16.0739H45.1818C45.599 15.0055 46.8633 11.8808 47.096 11.2385C47.1448 11.1133 47.1834 10.967 47.1834 10.8808C47.1834 10.8029 47.1448 10.7254 47.0567 10.6966C46.9399 10.6573 46.7944 10.6479 46.6678 10.6479C46.5825 10.6479 46.5039 10.6375 46.5039 10.5701C46.5039 10.4936 46.5899 10.4731 46.7756 10.4731C47.261 10.4731 47.6697 10.5026 47.7957 10.5026C47.961 10.5026 48.4178 10.4731 48.7083 10.4731C48.8356 10.4731 48.9122 10.4936 48.9122 10.561C48.9122 10.6284 48.8544 10.6482 48.7573 10.6482C48.6603 10.6482 48.4567 10.6482 48.2811 10.765C48.1551 10.8516 48.0093 11.0174 47.7463 11.6381C47.3678 12.5505 47.1055 13.0747 46.5825 14.2683C45.9581 15.6867 45.5019 16.745 45.2887 17.2299C45.0374 17.7923 44.977 17.9477 44.8426 17.9477C44.7146 17.9477 44.6562 17.8121 44.4731 17.3571L42.0245 11.4237Z" fill="#332A86"/>
<path d="M53.062 13.2888C53.062 11.8116 53.062 11.5395 53.0409 11.2308C53.0224 10.8992 52.9451 10.7439 52.6237 10.6764C52.5464 10.6566 52.3809 10.6476 52.2445 10.6476C52.1383 10.6476 52.0806 10.6278 52.0806 10.5603C52.0806 10.4929 52.1474 10.4724 52.2939 10.4724C52.8081 10.4724 53.4214 10.5019 53.6938 10.5019C54.0028 10.5019 55.9389 10.5019 56.1223 10.4929C56.306 10.4724 56.4622 10.4536 56.5394 10.4338C56.5881 10.4241 56.6462 10.3952 56.6956 10.3952C56.7447 10.3952 56.7534 10.4338 56.7534 10.4825C56.7534 10.5506 56.7044 10.6674 56.6771 11.113C56.6661 11.21 56.6462 11.6375 56.6281 11.7546C56.6184 11.8032 56.5985 11.862 56.531 11.862C56.4622 11.862 56.4417 11.8116 56.4417 11.7251C56.4417 11.6569 56.4333 11.4932 56.3839 11.3757C56.3164 11.2009 56.2193 11.0848 55.7326 11.0264C55.5694 11.0066 54.5466 10.9872 54.3538 10.9872C54.3051 10.9872 54.2857 11.0167 54.2857 11.0848V13.5404C54.2857 13.6086 54.2961 13.6465 54.3538 13.6465C54.5678 13.6465 55.6849 13.6465 55.9086 13.6274C56.1428 13.6082 56.2872 13.5787 56.3752 13.4817C56.442 13.4032 56.482 13.3545 56.5314 13.3545C56.5687 13.3545 56.5989 13.3747 56.5989 13.4331C56.5989 13.4908 56.5492 13.6461 56.521 14.1414C56.5005 14.3354 56.4823 14.7233 56.4823 14.7914C56.4823 14.8689 56.4823 14.9763 56.3943 14.9763C56.3255 14.9763 56.3063 14.9377 56.3063 14.8884C56.2986 14.7914 56.2986 14.6649 56.269 14.5391C56.22 14.3451 56.0846 14.1995 55.7246 14.1602C55.5395 14.1411 54.5772 14.132 54.3444 14.132C54.2964 14.132 54.286 14.1693 54.286 14.229V14.9951C54.286 15.3246 54.2769 16.2182 54.286 16.4991C54.3058 17.1695 54.461 17.3158 55.4532 17.3158C55.7044 17.3158 56.1132 17.3158 56.3658 17.1977C56.619 17.0816 56.7359 16.8773 56.8034 16.4799C56.8212 16.3739 56.8427 16.335 56.9096 16.335C56.9868 16.335 56.9868 16.4128 56.9868 16.5081C56.9868 16.733 56.9096 17.3923 56.8602 17.587C56.794 17.838 56.7047 17.838 56.3359 17.838C54.8691 17.838 54.2175 17.7816 53.6455 17.7816C53.4218 17.7816 52.8084 17.8098 52.4201 17.8098C52.2942 17.8098 52.2267 17.7816 52.2267 17.7128C52.2267 17.6645 52.2653 17.6356 52.3815 17.6356C52.5273 17.6356 52.6438 17.6165 52.7312 17.5964C52.9253 17.5578 52.974 17.3447 53.0147 17.0628C53.0627 16.6544 53.0627 15.8877 53.0627 14.9951V13.2888H53.062Z" fill="#332A86"/>
<path d="M63.1456 16.491C63.1661 17.2474 63.2927 17.5004 63.4862 17.5685C63.6514 17.6262 63.8365 17.6366 63.9927 17.6366C64.0978 17.6366 64.1573 17.6557 64.1573 17.7138C64.1573 17.7913 64.0693 17.8108 63.9343 17.8108C63.3018 17.8108 62.9135 17.7826 62.7298 17.7826C62.6404 17.7826 62.1853 17.8108 61.6801 17.8108C61.5535 17.8108 61.4662 17.8017 61.4662 17.7138C61.4662 17.6554 61.5233 17.6366 61.6217 17.6366C61.7463 17.6366 61.9233 17.6262 62.058 17.588C62.3113 17.5108 62.3499 17.2289 62.3603 16.384L62.4476 10.6368C62.4476 10.4442 62.4759 10.3073 62.5729 10.3073C62.6797 10.3073 62.7671 10.4338 62.9337 10.6086C63.0492 10.7345 64.5271 12.3166 65.9442 13.725C66.6056 14.385 67.9189 15.7823 68.0814 15.9363H68.1305L68.0334 11.5794C68.0237 10.9868 67.9363 10.8023 67.7022 10.705C67.5585 10.6472 67.3243 10.6472 67.1893 10.6472C67.0711 10.6472 67.0331 10.6177 67.0331 10.56C67.0331 10.4818 67.1393 10.4721 67.285 10.4721C67.7902 10.4721 68.2578 10.5016 68.4613 10.5016C68.5695 10.5016 68.9363 10.4721 69.4125 10.4721C69.5392 10.4721 69.6362 10.4818 69.6362 10.56C69.6362 10.6177 69.5785 10.6472 69.4612 10.6472C69.3642 10.6472 69.2873 10.6472 69.17 10.6761C68.899 10.7553 68.8204 10.9586 68.8113 11.5019L68.7045 17.6259C68.7045 17.839 68.6652 17.9265 68.5785 17.9265C68.4724 17.9265 68.3542 17.8198 68.2487 17.7135C67.6367 17.1316 66.3923 15.8595 65.3826 14.8585C64.3225 13.8112 63.2447 12.5975 63.068 12.4133H63.0405L63.1456 16.491Z" fill="#332A86"/>
<path d="M76.1081 11.0167L74.6601 11.0546C74.0958 11.0757 73.8623 11.1241 73.7179 11.3365C73.6202 11.4821 73.5715 11.5979 73.5513 11.6767C73.5328 11.7546 73.5036 11.7928 73.4458 11.7928C73.377 11.7928 73.3572 11.7442 73.3572 11.6375C73.3572 11.4821 73.5429 10.5999 73.561 10.5207C73.5913 10.3956 73.6202 10.3378 73.6773 10.3378C73.7565 10.3378 73.8533 10.4342 74.0958 10.4539C74.3772 10.4828 74.7467 10.5026 75.0675 10.5026H78.915C79.2274 10.5026 79.44 10.4731 79.5861 10.4539C79.7326 10.4244 79.8098 10.4056 79.8485 10.4056C79.916 10.4056 79.9254 10.4627 79.9254 10.6093C79.9254 10.8123 79.8965 11.4824 79.8965 11.7351C79.8874 11.8321 79.8676 11.8905 79.8098 11.8905C79.7326 11.8905 79.7114 11.8405 79.7024 11.6959L79.6933 11.5891C79.6741 11.3368 79.4118 11.0647 78.5452 11.0459L77.3236 11.017V14.9961C77.3236 15.8887 77.3236 16.6554 77.3703 17.0735C77.3999 17.3457 77.4576 17.5584 77.7502 17.5974C77.8859 17.6178 78.0999 17.6366 78.245 17.6366C78.3531 17.6366 78.4018 17.6655 78.4018 17.7138C78.4018 17.7826 78.3225 17.8108 78.2167 17.8108C77.5759 17.8108 76.9632 17.7826 76.6915 17.7826C76.4678 17.7826 75.8551 17.8108 75.4669 17.8108C75.3402 17.8108 75.2727 17.7826 75.2727 17.7138C75.2727 17.6655 75.312 17.6366 75.4269 17.6366C75.574 17.6366 75.6899 17.6175 75.7772 17.5974C75.972 17.5588 76.0305 17.3457 76.06 17.0638C76.1087 16.6554 76.1087 15.8887 76.1087 14.9961V11.0167H76.1081Z" fill="#332A86"/>
<path d="M85.8722 11.1039C85.8722 11.0268 85.8907 10.9872 85.9589 10.967C86.0573 10.9388 86.2323 10.9298 86.4744 10.9298C87.0485 10.9298 87.9617 11.3278 87.9617 12.7052C87.9617 13.5015 87.6796 13.9478 87.3884 14.1616C87.2137 14.2881 87.0874 14.3273 86.6975 14.3273C86.4546 14.3273 86.1634 14.2978 85.9589 14.2304C85.8907 14.2008 85.8722 14.1616 85.8722 14.0555V11.1039ZM84.7248 14.9961C84.7248 15.8887 84.7248 16.6554 84.6761 17.0638C84.6388 17.3457 84.5901 17.5588 84.3946 17.5974C84.3073 17.6178 84.1908 17.6366 84.0443 17.6366C83.9281 17.6366 83.8908 17.6655 83.8908 17.7138C83.8908 17.7826 83.9577 17.8108 84.0843 17.8108C84.4732 17.8108 85.0842 17.7826 85.269 17.7826C85.4154 17.7826 86.1335 17.8108 86.6971 17.8108C86.8244 17.8108 86.8906 17.7826 86.8906 17.7138C86.8906 17.6655 86.8526 17.6366 86.7757 17.6366C86.6588 17.6366 86.4452 17.6175 86.2994 17.5974C86.0082 17.5588 85.9498 17.3457 85.9202 17.0638C85.8715 16.6554 85.8715 15.8887 85.8715 14.9864V14.8501C85.8715 14.7924 85.8991 14.773 85.9495 14.773L86.7952 14.7927C86.8627 14.7927 86.9218 14.8025 86.9685 14.8595C87.0965 15.0058 87.5432 15.6669 87.9322 16.1998C88.4746 16.9481 88.8448 17.4051 89.262 17.6266C89.5145 17.7635 89.7587 17.8114 90.3025 17.8114H91.2249C91.3418 17.8114 91.4086 17.7916 91.4086 17.7145C91.4086 17.6662 91.3713 17.6373 91.2937 17.6373C91.2151 17.6373 91.1278 17.6269 91.0213 17.6078C90.8752 17.5789 90.4768 17.5115 89.9317 16.9484C89.3597 16.3461 88.6899 15.4817 87.8234 14.3965C88.8055 13.5988 89.1078 12.9374 89.1078 12.2207C89.1078 11.57 88.7188 11.0764 88.4464 10.8909C87.9208 10.5311 87.2702 10.4734 86.6588 10.4734C86.3582 10.4734 85.6189 10.5029 85.2891 10.5029C85.0839 10.5029 84.4729 10.4734 83.9573 10.4734C83.8115 10.4734 83.7434 10.4939 83.7434 10.5613C83.7434 10.6288 83.8032 10.6486 83.9086 10.6486C84.0436 10.6486 84.2102 10.6576 84.2872 10.6774C84.6079 10.7449 84.6872 10.9003 84.7063 11.2318C84.7241 11.5405 84.7241 11.8123 84.7241 13.2898V14.9961H84.7248Z" fill="#332A86"/>
<path d="M95.9672 15.2971C95.9672 14.7726 95.8701 14.5585 95.7435 14.2766C95.676 14.1226 94.3738 11.9875 94.0332 11.4821C93.791 11.1244 93.5478 10.8804 93.3628 10.7744C93.2375 10.7056 93.0722 10.6479 92.9553 10.6479C92.8781 10.6479 92.8082 10.6281 92.8082 10.5606C92.8082 10.5023 92.8778 10.4727 92.9933 10.4727C93.1696 10.4727 93.8985 10.5023 94.2186 10.5023C94.4225 10.5023 94.8202 10.4727 95.2578 10.4727C95.3542 10.4727 95.4043 10.5023 95.4043 10.5606C95.4043 10.6184 95.3354 10.6281 95.189 10.6674C95.1016 10.6872 95.0533 10.7643 95.0533 10.8418C95.0533 10.9197 95.102 11.0351 95.1715 11.1727C95.3059 11.463 96.6665 13.8015 96.8234 14.0746C96.9191 13.8414 98.1434 11.7066 98.2791 11.4053C98.3769 11.1915 98.4155 11.0264 98.4155 10.8992C98.4155 10.8023 98.3768 10.6962 98.2116 10.6566C98.1236 10.6368 98.0369 10.618 98.0369 10.5603C98.0369 10.4929 98.0856 10.4724 98.2022 10.4724C98.523 10.4724 98.8333 10.5019 99.1148 10.5019C99.3281 10.5019 99.9689 10.4724 100.153 10.4724C100.262 10.4724 100.33 10.4929 100.33 10.5502C100.33 10.6177 100.251 10.6472 100.145 10.6472C100.048 10.6472 99.8631 10.6865 99.7177 10.764C99.5131 10.8603 99.4067 10.9784 99.1941 11.2378C98.8719 11.6277 97.5113 13.9085 97.3376 14.3266C97.1915 14.676 97.1915 14.977 97.1915 15.2967V16.093C97.1915 16.2484 97.1915 16.6554 97.2197 17.0638C97.2409 17.3457 97.3279 17.5588 97.6188 17.5974C97.7558 17.6178 97.9704 17.6366 98.1048 17.6366C98.2116 17.6366 98.2603 17.6655 98.2603 17.7138C98.2603 17.7826 98.1824 17.8108 98.0557 17.8108C97.4438 17.8108 96.8321 17.7826 96.5705 17.7826C96.327 17.7826 95.7143 17.8108 95.3549 17.8108C95.2192 17.8108 95.1416 17.791 95.1416 17.7138C95.1416 17.6655 95.1896 17.6366 95.2985 17.6366C95.4335 17.6366 95.549 17.6175 95.6377 17.5974C95.8298 17.5588 95.9185 17.3457 95.937 17.0638C95.9679 16.6554 95.9679 16.2484 95.9679 16.093V15.2971H95.9672Z" fill="#332A86"/>
<path d="M20.051 26.4458L21.2679 20.7083H22.0001L21.4748 23.1878H23.4874L24.0124 20.7083H24.7446L23.5277 26.4458H22.7955L23.3524 23.823H21.3404L20.7835 26.4458H20.051Z" fill="#332A86"/>
<path d="M26.6037 24.6502C26.3649 25.7703 26.6195 25.9924 27.1287 25.9924C27.5741 25.9924 27.8845 25.636 27.996 25.2304H28.7118C28.5129 26.1196 27.8767 26.5253 27.033 26.5253C26.1822 26.5253 25.5622 26.2709 25.9353 24.4988C26.1906 23.323 26.5245 22.3536 27.9164 22.3536C29.0617 22.3536 29.2206 22.9808 28.9344 24.3079L28.8622 24.6502H26.6037ZM28.2748 24.1572C28.5206 22.9888 28.2267 22.8459 27.7494 22.8459C27.336 22.8459 26.9537 23.0445 26.7075 24.1572H28.2748Z" fill="#332A86"/>
<path d="M32.5526 25.8659H32.5361C32.2345 26.3266 31.8842 26.5253 31.3827 26.5253C30.5319 26.5253 30.4046 25.9773 30.5635 25.2059C30.8265 23.9908 32.0269 23.9344 32.9422 23.9579C33.0695 23.4257 33.1968 22.8455 32.4968 22.8455C32.0592 22.8455 31.7646 23.1398 31.7169 23.5606H31.0092C31.2322 22.6633 31.7727 22.3533 32.6245 22.3533C33.6583 22.3533 33.8179 22.8848 33.6741 23.5606L33.2687 25.4921C33.1972 25.8092 33.1572 26.1357 33.1414 26.4458H32.425L32.5526 25.8659ZM31.2077 25.2535C31.1204 25.6428 31.24 25.9921 31.6773 25.9921C32.075 25.9921 32.6238 25.7465 32.8307 24.4505C32.2103 24.4593 31.3908 24.4029 31.2077 25.2535Z" fill="#332A86"/>
<path d="M35.7647 26.4458H35.1127L36.3296 20.7083H36.9816L35.7647 26.4458Z" fill="#332A86"/>
<path d="M38.6116 22.4328L38.7782 21.6613L39.4946 21.3677L39.2642 22.4328H40.1389L40.0351 22.9257H39.1604L38.6355 25.3807C38.5874 25.6357 38.5152 25.9609 39.1124 25.9609C39.1604 25.9609 39.2639 25.9458 39.4147 25.9293L39.3025 26.4293C39.0879 26.4458 38.8655 26.4934 38.6506 26.4934C38.0305 26.4934 37.8075 26.2391 37.9032 25.7777L38.5082 22.9254H37.8475L37.9513 22.4325H38.6116V22.4328Z" fill="#332A86"/>
<path d="M42.8747 26.4458L43.4554 23.7284C43.5592 23.2354 43.4712 22.8848 42.915 22.8848C42.263 22.8848 41.9842 23.4096 41.8411 24.0848L41.3393 26.4454H40.688L41.905 20.708H42.5569L42.088 22.9489H42.1196C42.4776 22.4804 42.8038 22.3533 43.3288 22.3533C44.013 22.3533 44.3233 22.6949 44.1319 23.6005L43.5276 26.4458H42.8747Z" fill="#332A86"/>
<path d="M51.5112 22.2892C51.5905 21.9633 51.6385 21.6378 51.519 21.455C51.4075 21.2721 51.0813 21.2087 50.9305 21.2087C50.3256 21.2087 50.0075 21.5744 49.9682 21.6536C49.9282 21.717 49.7609 21.8607 49.5463 22.8459L49.2202 24.38C48.9256 25.7857 49.3468 25.9532 49.9124 25.9532C50.1348 25.9532 50.827 25.874 51.0736 24.7532H51.8287C51.479 26.5645 50.1983 26.5645 49.8244 26.5645C49.1087 26.5645 48.0191 26.5169 48.496 24.2925L48.8379 22.671C49.1805 21.0503 49.9998 20.5889 51.1293 20.5889C52.267 20.5889 52.5773 21.1775 52.267 22.2895H51.5112V22.2892Z" fill="#332A86"/>
<path d="M55.4394 25.8659H55.4236C55.1207 26.3266 54.771 26.5253 54.2695 26.5253C53.4187 26.5253 53.2908 25.9773 53.4503 25.2059C53.7133 23.9908 54.9138 23.9344 55.829 23.9579C55.9557 23.4257 56.0836 22.8455 55.3837 22.8455C54.946 22.8455 54.6514 23.1398 54.6037 23.5606H53.896C54.1191 22.6633 54.6595 22.3533 55.5106 22.3533C56.5452 22.3533 56.7047 22.8848 56.5609 23.5606L56.1555 25.4921C56.084 25.8092 56.044 26.1357 56.0282 26.4458H55.3114L55.4394 25.8659ZM54.0945 25.2535C54.0072 25.6428 54.1268 25.9921 54.5641 25.9921C54.9618 25.9921 55.51 25.7465 55.7175 24.4505C55.0968 24.4593 54.2776 24.4029 54.0945 25.2535Z" fill="#332A86"/>
<path d="M59.4149 23.0365H59.4314C59.8361 22.4244 60.1787 22.3536 60.8149 22.3536L60.6711 23.0287C60.6238 23.0204 60.5603 23.013 60.5045 23.0053C60.4488 22.9975 60.393 22.9888 60.3296 22.9888C59.6061 22.9888 59.3115 23.5374 59.1919 24.078L58.6914 26.4461H58.0388L58.8903 22.4331H59.5422L59.4149 23.0365Z" fill="#332A86"/>
<path d="M62.4765 24.6502C62.2377 25.7703 62.4923 25.9924 63.0015 25.9924C63.4469 25.9924 63.7572 25.636 63.8688 25.2304H64.5845C64.3857 26.1196 63.7495 26.5253 62.9064 26.5253C62.0557 26.5253 61.4349 26.2709 61.8088 24.4988C62.0634 23.323 62.3972 22.3536 63.7888 22.3536C64.9348 22.3536 65.0937 22.9808 64.8069 24.3079L64.736 24.6502H62.4765ZM64.1469 24.1572C64.3934 22.9888 64.0988 22.8459 63.6219 22.8459C63.2087 22.8459 62.8268 23.0445 62.58 24.1572H64.1469Z" fill="#332A86"/>
<path d="M103.739 10.2425C103.739 10.8751 103.226 11.3757 102.611 11.3757C102.002 11.3757 101.482 10.8751 101.482 10.2425C101.482 9.61069 102.008 9.1154 102.611 9.1154C103.231 9.1154 103.739 9.61673 103.739 10.2425ZM101.616 10.2425C101.616 10.8036 102.067 11.2445 102.611 11.2445C103.16 11.2445 103.605 10.7976 103.605 10.2425C103.605 9.70901 103.172 9.24896 102.611 9.24896C102.067 9.24896 101.616 9.69659 101.616 10.2425ZM102.199 9.62847H102.628C102.718 9.62847 103.041 9.62847 103.041 9.93249C103.041 9.9684 103.041 10.1587 102.814 10.2248C102.939 10.2543 102.981 10.308 102.999 10.4573C103.016 10.606 103.029 10.7194 103.07 10.8388H102.898C102.873 10.7617 102.862 10.7137 102.837 10.5224C102.819 10.3382 102.772 10.2905 102.575 10.2905H102.366V10.8392H102.199V9.62847ZM102.366 10.1469H102.628C102.712 10.1469 102.867 10.1469 102.867 9.96269C102.867 9.77142 102.718 9.77142 102.628 9.77142H102.366V10.1469Z" fill="#332A86"/>
</g>
<defs>
<clipPath id="clip0">
<rect width="103.681" height="38.5965" fill="white" transform="translate(0.0584717 0.0233917)"/>
</clipPath>
</defs>
</svg>
