<svg width="109" height="24" viewBox="0 0 109 24" fill="none" xmlns="http://www.w3.org/2000/svg">
<g clip-path="url(#clip0)">
<path d="M23.5395 2.13931C16.1102 0.254625 8.32511 0.277777 0.907161 2.20662C0.691068 5.12995 0.758543 8.06733 1.10864 10.9777C2.48773 18.0435 6.7803 21.6358 12.2235 23.9006C17.6829 21.6357 21.9967 18.0049 23.338 10.9777C23.7073 8.04618 23.7748 5.08456 23.5395 2.13931" fill="#EB0029"/>
<path d="M19.4123 7.7749H17.4037V9.90557L19.3876 9.83916V9.85133L19.4123 9.85043V13.8009H17.4037V13.79H17.3789V11.7926H15.3277V13.8008H13.2522V15.9324H15.3034V15.9436H15.3277V17.8855H14.3234L14.3073 17.8747H14.2991L12.3108 16.549L10.2392 17.8855H9.23489V17.8747H9.21013V15.9324H11.2857V13.8009H9.23489V13.7901H9.21013V11.7927H7.09163V13.8009H5.15028V13.7901H5.12551V9.83916H7.13461V7.77502H5.15028V7.76369H5.12551V5.75504H6.06341L6.07948 5.76633H6.08727L8.14331 7.22527L10.2145 5.75504H11.2188V5.76625H11.2436V7.7749H9.168V9.83912H11.2188V9.8504H11.2435V11.9155H13.2947V9.83912H15.3702V7.7749H13.319V7.76361H13.2947V5.755H14.2991L14.3147 5.76628H14.3234L16.3789 7.22522L18.4505 5.755H19.3876V5.76628H19.4123L19.4123 7.7749ZM12.3147 20.0283C12.1518 20.0234 11.9915 19.9866 11.8427 19.9202C11.6018 19.8175 11.4037 19.6348 11.2821 19.4028C11.1605 19.1709 11.1228 18.904 11.1755 18.6475C11.2281 18.391 11.3678 18.1605 11.5709 17.9952C11.7741 17.8299 12.0281 17.7399 12.29 17.7404C12.4408 17.7392 12.5901 17.7712 12.7272 17.8342C12.9322 17.9211 13.1055 18.069 13.2234 18.2579C13.3412 18.4468 13.398 18.6675 13.3859 18.8898C13.3943 19.1827 13.2863 19.467 13.0855 19.6804C12.8847 19.8938 12.6076 20.0189 12.3147 20.0283H12.3147ZM8.13889 3.74673C8.29846 3.75486 8.45499 3.79349 8.60001 3.86055C8.80596 3.94468 8.98242 4.08785 9.1072 4.27203C9.23198 4.45621 9.2995 4.67318 9.30126 4.89565C9.30633 5.04009 9.2829 5.18411 9.2323 5.3195C9.18171 5.45489 9.10494 5.57898 9.00639 5.6847C8.90784 5.79042 8.78942 5.87569 8.65792 5.93564C8.52641 5.9956 8.38438 6.02906 8.23994 6.03413C8.2145 6.035 8.18905 6.035 8.16361 6.03413C8.00933 6.03874 7.85597 6.00894 7.71464 5.94691C7.50552 5.85792 7.32673 5.71016 7.19994 5.52155C7.07315 5.33294 7.00382 5.1116 7.00036 4.88436C7.01785 4.5882 7.14345 4.30876 7.35331 4.09907C7.56318 3.88937 7.84272 3.76401 8.13889 3.74676V3.74673ZM16.3745 3.81324C16.5292 3.8061 16.6836 3.83385 16.8261 3.89445C17.0703 3.98772 17.2737 4.16446 17.4 4.39334C17.5264 4.62222 17.5676 4.88845 17.5164 5.14483C17.4652 5.40121 17.3249 5.63118 17.1203 5.79398C16.9158 5.95677 16.6602 6.04188 16.3988 6.0342C16.2387 6.04021 16.0792 6.01102 15.9316 5.94868C15.7207 5.86384 15.5409 5.71627 15.4166 5.52593C15.2923 5.33559 15.2294 5.11167 15.2365 4.88443C15.2372 4.59913 15.3512 4.32581 15.5535 4.12459C15.7558 3.92338 16.0297 3.81075 16.315 3.81149C16.3348 3.81154 16.3547 3.81214 16.3745 3.81329" fill="white"/>
<path d="M83.5811 18.1182C83.5811 16.8051 84.1282 16.1364 85.0643 16.1364C85.9275 16.1364 86.4381 16.7078 86.4381 17.9236V18.1425C86.1029 18.1766 85.7658 18.1888 85.429 18.1789C84.7846 18.1789 83.9458 18.1546 83.581 18.1181L83.5811 18.1182ZM87.2527 20.3917C86.7859 20.721 86.2312 20.9031 85.66 20.9144C84.505 20.9144 83.581 20.2214 83.581 18.5923H85.4533C86.1176 18.6093 86.7818 18.5563 87.4351 18.4343L87.4959 18.3735C87.5115 18.2362 87.5196 18.0982 87.5202 17.9601C87.5548 17.6606 87.5215 17.3571 87.4227 17.0723C87.3239 16.7874 87.1622 16.5285 86.9496 16.3147C86.737 16.1009 86.479 15.9378 86.1947 15.8375C85.9104 15.7372 85.6071 15.7022 85.3074 15.7352C84.6445 15.7508 84.0046 15.9812 83.4837 16.3917C83.2616 16.5278 83.0676 16.7053 82.9123 16.9145C82.5895 17.48 82.4296 18.1238 82.4503 18.7747C82.4213 19.145 82.4727 19.5173 82.6009 19.866C82.7292 20.2146 82.9313 20.5315 83.1934 20.7947C83.4555 21.058 83.7714 21.2615 84.1195 21.3913C84.4676 21.5211 84.8397 21.5741 85.2102 21.5467C85.911 21.5466 86.5932 21.3206 87.1554 20.9023L87.35 20.4889L87.2527 20.3917ZM81.0283 21.3522V21.0968L80.9797 21.0482C80.8217 21.0482 80.3961 21.0117 80.3353 20.9996C80.2016 20.9753 80.153 20.9145 80.1286 20.7565C80.0722 20.1787 80.0478 19.5983 80.0557 19.0179V18.2518C80.0413 17.9976 80.07 17.7427 80.1408 17.498C80.2746 17.1698 80.6636 16.6227 81.0891 16.6227C81.2381 16.6127 81.3853 16.66 81.5006 16.7549C81.6158 16.8498 81.6904 16.9852 81.7092 17.1333L81.7457 17.1576H81.9402L81.9767 17.1212C81.9728 16.7098 82.0054 16.2988 82.0739 15.8932L82.0374 15.8081C81.9278 15.755 81.8066 15.7299 81.6849 15.7352C81.4313 15.7463 81.1843 15.8198 80.9659 15.9492C80.7475 16.0785 80.5643 16.2598 80.4326 16.4768L79.9949 17.0361C79.9984 16.6298 80.0228 16.224 80.0678 15.8203L79.9584 15.7474C79.4099 15.9588 78.8313 16.0819 78.2442 16.1121L78.1955 16.1607V16.416L78.2442 16.4646H78.6332C78.8885 16.4646 79.0101 16.5254 79.0223 16.647C79.0466 16.7929 79.0709 17.4737 79.0709 18.0816V19.03C79.0709 19.4676 79.0344 20.4038 78.998 20.7564C78.9959 20.8142 78.9744 20.8697 78.9369 20.9139C78.8994 20.958 78.8481 20.9882 78.7913 20.9995C78.6229 21.0314 78.452 21.0477 78.2806 21.0481L78.2198 21.0967V21.352L78.2806 21.4007C78.7669 21.3642 79.1195 21.352 79.5693 21.352C79.9827 21.352 80.5298 21.3642 80.9918 21.4007L81.0283 21.3522ZM75.8977 19.8811C75.7226 20.1356 75.4934 20.3483 75.2265 20.5039C74.9595 20.6594 74.6614 20.754 74.3536 20.7807C73.7458 20.7807 73.4418 20.4403 73.4418 19.7595C73.4323 19.5703 73.4777 19.3823 73.5727 19.2184C73.6676 19.0544 73.8079 18.9214 73.9768 18.8355C74.5896 18.5677 75.2357 18.3836 75.8977 18.2884L75.8977 19.8811ZM76.8703 19.4312C76.8703 18.6653 76.8946 17.9844 76.8946 17.5103C76.9082 17.2575 76.8653 17.005 76.769 16.7709C76.6727 16.5369 76.5255 16.3272 76.3381 16.1572C76.1506 15.9872 75.9276 15.8611 75.6853 15.7881C75.4429 15.7151 75.1874 15.697 74.9372 15.7352C74.2371 15.7627 73.5623 16.0046 73.0041 16.4282C72.955 16.4552 72.9164 16.4981 72.8947 16.5498V17.2428L72.9312 17.3036L73.1986 17.3644L73.2351 17.3401C73.2981 17.0845 73.4051 16.8418 73.5512 16.6228C73.6772 16.5188 73.823 16.4415 73.9797 16.3955C74.1364 16.3495 74.3009 16.3359 74.4631 16.3553C75.3506 16.3553 75.8977 16.7687 75.8977 17.9237C74.8644 17.9984 73.8581 18.2883 72.9433 18.7747C72.7687 18.9295 72.6302 19.1209 72.5378 19.3352C72.4453 19.5495 72.4012 19.7815 72.4084 20.0148C72.3978 20.2145 72.4298 20.4141 72.5022 20.6004C72.5745 20.7868 72.6856 20.9557 72.8282 21.0959C72.9707 21.2361 73.1413 21.3445 73.3289 21.4138C73.5164 21.4831 73.7165 21.5119 73.916 21.4981C74.1571 21.496 74.396 21.4507 74.6211 21.3643L75.8977 20.3674L75.8734 21.3157L75.9585 21.3886C76.2867 21.3643 76.5664 21.3521 76.8095 21.3521C77.1018 21.3484 77.394 21.3606 77.6849 21.3886L77.7335 21.3521V21.109L77.6849 21.0604L77.3809 21.0239C76.9432 20.9753 76.8703 20.647 76.8703 19.8689L76.8703 19.4312ZM71.606 20.9631L71.8248 20.416L71.7276 20.2944C71.1016 20.7523 70.3385 20.9838 69.5636 20.9509C67.3022 20.9509 65.904 19.4069 65.904 17.0239C65.904 14.641 67.2779 13.3523 69.1866 13.3523C70.4146 13.3523 71.0711 13.8994 71.1806 14.2276C71.2309 14.4632 71.2513 14.7042 71.2414 14.9449L71.29 14.9935H71.5818L71.6426 14.9449C71.6488 14.4266 71.7017 13.9098 71.8006 13.4009L71.7641 13.328C70.9612 13.0043 70.1008 12.8472 69.2353 12.866C66.7186 12.866 64.6153 14.4951 64.6153 17.2185C64.588 17.8067 64.6856 18.3941 64.9017 18.9418C65.1178 19.4896 65.4475 19.9854 65.869 20.3966C66.2905 20.8078 66.7943 21.125 67.3473 21.3275C67.9002 21.5299 68.4898 21.6129 69.0772 21.5711C69.9586 21.5915 70.8302 21.382 71.606 20.9632L71.606 20.9631ZM62.0443 17.79C62.0794 17.5139 62.0512 17.2335 61.962 16.97C61.8727 16.7064 61.7247 16.4666 61.5291 16.2686C61.3335 16.0707 61.0954 15.9198 60.8329 15.8274C60.5704 15.735 60.2904 15.7035 60.0139 15.7353C59.7345 15.7267 59.4589 15.803 59.2237 15.9542C58.8468 16.2824 58.4942 16.5985 58.166 16.8538C58.166 14.8478 58.1781 13.0119 58.2146 12.7445L58.1052 12.6715C57.5427 12.8986 56.9476 13.034 56.3423 13.0727L56.2937 13.1213V13.3767L56.3423 13.4253H56.7313C56.9867 13.4253 57.1082 13.4861 57.1204 13.6198C57.1569 13.7535 57.169 14.714 57.169 16.5255V19.03C57.169 19.4677 57.1325 20.4039 57.0961 20.7564C57.094 20.8143 57.0725 20.8698 57.035 20.9139C56.9975 20.9581 56.9462 20.9882 56.8894 20.9996C56.721 21.0315 56.5501 21.0478 56.3787 21.0482L56.3179 21.0968V21.3521L56.3787 21.4007C56.8651 21.3643 57.2176 21.3521 57.6675 21.3521C58.1173 21.3521 58.4699 21.3643 58.9684 21.4007L59.0048 21.3521V21.0968L58.9562 21.0482C58.7811 21.0427 58.6065 21.0265 58.4334 20.9996C58.2997 20.9631 58.2632 20.9145 58.2268 20.7564C58.1703 20.1787 58.146 19.5983 58.1538 19.0179V18.0817C58.151 17.8788 58.1591 17.6758 58.1781 17.4738C58.2853 17.1824 58.479 16.9307 58.7333 16.7525C58.9875 16.5744 59.2902 16.4782 59.6006 16.4768C60.8285 16.4768 61.0596 17.4616 61.0596 18.568V18.7747C61.0596 19.5042 61.0353 20.2458 60.9745 20.8172C60.938 20.9631 60.8894 21.109 60.8407 21.2549C60.8407 21.2914 60.8772 21.3886 60.9136 21.3886C61.1271 21.3596 61.3426 21.3474 61.558 21.3521C61.9349 21.3521 62.4091 21.3643 62.7981 21.4007L62.8346 21.3521V21.0968L62.786 21.0482C62.5064 21.0482 62.2389 21.0117 62.1538 20.8658C62.0567 20.4725 62.0198 20.0667 62.0444 19.6622L62.0443 17.79ZM53.2906 19.9298C53.2906 20.7808 53.4973 21.4495 54.6645 21.4495C54.8786 21.4594 55.0928 21.4306 55.2967 21.3644C55.6006 21.1577 55.8195 20.9875 56.0018 20.8781L55.9775 20.7322C55.7636 20.7903 55.5427 20.8189 55.321 20.8173C54.5794 20.8173 54.2633 20.3674 54.2633 18.9936L54.2998 16.4647H55.7709L55.8195 16.4039L56.0018 16.0392L55.941 15.9663C55.6493 15.9785 55.3331 15.9906 54.9562 15.9906H54.2997C54.2997 15.3098 54.3848 13.9602 54.4213 13.7292L54.2997 13.6076C53.9738 13.7802 53.6367 13.9305 53.2906 14.0575C53.3149 14.2277 53.327 14.8599 53.327 15.9663L52.3422 16.1243L52.2936 16.1851V16.4161L52.3544 16.4647H53.327L53.2906 19.9298ZM51.1995 16.5256C51.1995 14.8356 51.2238 13.0119 51.2603 12.7445L51.1509 12.6715C50.5885 12.8986 49.9933 13.034 49.388 13.0727L49.3394 13.1214V13.3767L49.388 13.4253H49.7771C50.0324 13.4253 50.154 13.4861 50.1662 13.6198C50.2026 13.7535 50.2148 14.8113 50.2148 16.5255V19.0301C50.2148 19.4677 50.1783 20.4039 50.1419 20.7565C50.1398 20.8143 50.1183 20.8698 50.0808 20.914C50.0433 20.9581 49.992 20.9883 49.9352 20.9996C49.7668 21.0315 49.5959 21.0478 49.4245 21.0482L49.3637 21.0968V21.3521L49.4245 21.4008C49.9108 21.3643 50.2634 21.3521 50.7132 21.3521C51.1631 21.3521 51.5157 21.3643 52.0141 21.4008L52.0506 21.3521V21.0968L52.002 21.0482C51.8269 21.0427 51.6523 21.0265 51.4792 20.9996C51.3455 20.9631 51.309 20.9145 51.2725 20.7565C51.2161 20.1787 51.1917 19.5983 51.1996 19.0179L51.1995 16.5256ZM48.0146 19.4313C48.0146 18.6653 48.0389 17.9845 48.0389 17.5103C48.0525 17.2576 48.0096 17.0051 47.9133 16.771C47.817 16.537 47.6698 16.3273 47.4823 16.1573C47.2948 15.9873 47.0718 15.8612 46.8295 15.7882C46.5872 15.7152 46.3317 15.6971 46.0815 15.7353C45.3813 15.7628 44.7065 16.0047 44.1484 16.4283C44.0992 16.4553 44.0607 16.4982 44.039 16.5499V17.2429L44.0754 17.3037L44.3429 17.3645L44.3794 17.3402C44.4424 17.0846 44.5493 16.8418 44.6955 16.6229C44.8215 16.5189 44.9672 16.4416 45.124 16.3956C45.2807 16.3496 45.4451 16.3359 45.6073 16.3554C46.4948 16.3554 47.0419 16.7688 47.0419 17.9238C46.0086 17.9985 45.0023 18.2884 44.0876 18.7748C43.9129 18.9296 43.7745 19.121 43.682 19.3353C43.5896 19.5496 43.5454 19.7816 43.5526 20.0149C43.5421 20.2145 43.5741 20.4142 43.6464 20.6005C43.7188 20.7869 43.8299 20.9558 43.9724 21.096C44.1149 21.2362 44.2856 21.3446 44.4731 21.4139C44.6607 21.4832 44.8608 21.5119 45.0602 21.4981C45.3014 21.4961 45.5402 21.4508 45.7654 21.3644L47.0419 20.3675L47.0176 21.3158L47.1027 21.3887C47.431 21.3644 47.7106 21.3522 47.9538 21.3522C48.246 21.3485 48.5382 21.3607 48.8291 21.3887L48.8777 21.3522V21.1091L48.8291 21.0605L48.5252 21.024C48.0875 20.9754 48.0145 20.6471 48.0145 19.869L48.0146 19.4313ZM47.0419 19.8811C46.8669 20.1357 46.6377 20.3484 46.3707 20.504C46.1038 20.6595 45.8057 20.7541 45.4979 20.7808C44.89 20.7808 44.5861 20.4404 44.5861 19.7595C44.5765 19.5703 44.622 19.3824 44.7169 19.2184C44.8118 19.0545 44.9522 18.9215 45.121 18.8355C45.7339 18.5677 46.38 18.3837 47.042 18.2884L47.0419 19.8811ZM38.8475 18.1183C38.8475 16.8052 39.3946 16.1365 40.3308 16.1365C41.194 16.1365 41.7046 16.7079 41.7046 17.9237V18.1426C41.3694 18.1767 41.0323 18.1889 40.6955 18.179C40.0511 18.179 39.2122 18.1547 38.8475 18.1182L38.8475 18.1183ZM42.5192 20.3918C42.0524 20.7211 41.4977 20.9032 40.9265 20.9146C39.7715 20.9146 38.8475 20.2216 38.8475 18.5924H40.7198C41.3841 18.6094 42.0483 18.5564 42.7015 18.4344L42.7623 18.3736C42.7779 18.2363 42.7861 18.0983 42.7866 17.9602C42.8212 17.6607 42.7879 17.3572 42.6892 17.0724C42.5904 16.7875 42.4287 16.5286 42.2161 16.3148C42.0035 16.1011 41.7455 15.9379 41.4611 15.8376C41.1768 15.7373 40.8736 15.7023 40.5739 15.7353C39.911 15.751 39.271 15.9813 38.7502 16.3918C38.528 16.5279 38.334 16.7054 38.1788 16.9146C37.8559 17.4801 37.696 18.1239 37.7168 18.7748C37.6878 19.1451 37.7391 19.5174 37.8674 19.8661C37.9956 20.2147 38.1977 20.5316 38.4598 20.7948C38.722 21.0581 39.0379 21.2616 39.386 21.3914C39.7341 21.5212 40.1061 21.5742 40.4766 21.5468C41.1775 21.5467 41.8596 21.3207 42.4219 20.9024L42.6164 20.489L42.5192 20.3918ZM34.9935 18.5803C34.9935 20.3918 34.9935 20.6349 34.8597 20.8416C34.7746 20.9267 34.6287 20.9875 34.1059 21.024L34.0573 21.0605V21.3644L34.1059 21.4009C34.726 21.3644 35.4068 21.3523 35.5406 21.3523C35.6986 21.3523 36.3795 21.3644 36.9874 21.4009L37.036 21.3644V21.0605L36.9874 21.024C36.4646 20.9875 36.3308 20.9267 36.2457 20.8416C36.112 20.6349 36.112 20.3918 36.112 18.5681V15.8569C36.112 14.0575 36.112 13.7657 36.2457 13.5955C36.3308 13.5104 36.4646 13.4496 36.9874 13.4132L37.036 13.3767V13.0727L36.9874 13.0363C36.3795 13.0727 35.6865 13.0849 35.5527 13.0849C35.4068 13.0849 34.7382 13.0727 34.1059 13.0363L34.0573 13.0727V13.3767L34.1059 13.4132C34.6287 13.4497 34.7746 13.5104 34.8597 13.5955C34.9935 13.7657 34.9935 14.0575 34.9935 15.8569V16.6714C34.4464 16.7079 33.6196 16.7079 32.5983 16.7079C31.8324 16.7079 31.03 16.6958 30.1789 16.6714V15.8569C30.1789 14.0575 30.1789 13.7657 30.3127 13.5955C30.3978 13.5104 30.5437 13.4496 31.0664 13.4132L31.1151 13.3767V13.0727L31.0664 13.0363C30.4586 13.0727 29.7656 13.0849 29.6318 13.0849C29.4738 13.0849 28.7929 13.0727 28.185 13.0363L28.1364 13.0727V13.3767L28.185 13.4132C28.7078 13.4497 28.8415 13.5104 28.9266 13.5955C29.0604 13.7657 29.0604 14.0575 29.0604 15.8569V18.5803C29.0604 20.3918 29.0604 20.6349 28.9266 20.8416C28.8415 20.9267 28.7078 20.9875 28.185 21.024L28.1364 21.0605V21.3644L28.185 21.4009C28.8051 21.3644 29.4737 21.3523 29.6197 21.3523C29.7777 21.3523 30.4586 21.3644 31.0664 21.4009L31.1151 21.3644V21.0605L31.0664 21.024C30.5437 20.9875 30.3978 20.9267 30.3127 20.8416C30.1789 20.6349 30.1789 20.3918 30.1789 18.5681V17.2428C30.9813 17.2063 32.0756 17.2063 32.5619 17.2063C33.0117 17.2063 34.3491 17.1941 34.9934 17.2306L34.9935 18.5803Z" fill="#231F20"/>
<path d="M106.515 10.4836C106.728 10.4545 106.944 10.4423 107.159 10.4471C107.536 10.4471 108.01 10.4592 108.399 10.4957L108.436 10.4471V10.1917L108.387 10.1431C108.107 10.1431 107.84 10.1066 107.755 9.96077C107.658 9.56741 107.621 9.16159 107.645 8.75715V6.88488C107.686 6.61203 107.663 6.33349 107.579 6.07075C107.495 5.80802 107.352 5.56812 107.16 5.36956C106.969 5.17101 106.734 5.01912 106.475 4.92561C106.215 4.8321 105.938 4.79947 105.664 4.83025C105.369 4.82223 105.078 4.89812 104.825 5.04905C104.448 5.37731 104.229 5.57184 103.925 5.80285C103.763 5.50399 103.522 5.25532 103.228 5.08385C102.935 4.91238 102.599 4.82468 102.259 4.83027C101.926 4.81287 101.597 4.90697 101.323 5.09771C101.08 5.34086 100.618 5.71777 100.338 5.94875C100.333 5.6036 100.349 5.25843 100.387 4.91533L100.278 4.84242C99.7143 5.06071 99.1185 5.18397 98.5148 5.20716L98.4662 5.25577V5.51111L98.5148 5.55972H98.9038C99.1348 5.55972 99.2564 5.62052 99.2929 5.74208C99.3367 6.21896 99.3529 6.69796 99.3415 7.17671V8.11291C99.3415 8.53844 99.305 9.4989 99.2686 9.85148C99.2665 9.90936 99.245 9.96485 99.2075 10.009C99.17 10.0531 99.1187 10.0833 99.0619 10.0946C98.8935 10.1265 98.7226 10.1428 98.5512 10.1432L98.4904 10.1919V10.4472L98.5512 10.4958C99.0375 10.4593 99.3901 10.4472 99.84 10.4472C100.29 10.4472 100.642 10.4593 101.141 10.4958L101.177 10.4472V10.1919L101.129 10.1432C100.954 10.1378 100.779 10.1215 100.606 10.0946C100.472 10.0581 100.436 10.0095 100.399 9.85148C100.343 9.27375 100.318 8.69333 100.326 8.11291V7.17671C100.324 6.97379 100.332 6.77087 100.351 6.56882C100.459 6.2732 100.656 6.01847 100.915 5.83987C101.174 5.66127 101.483 5.56762 101.797 5.57188C102.916 5.57188 102.928 6.58099 102.928 7.44418V8.12501C102.928 8.5627 102.892 9.49884 102.855 9.85142C102.853 9.9093 102.832 9.96479 102.794 10.0089C102.757 10.053 102.705 10.0832 102.648 10.0946C102.505 10.1284 102.358 10.1447 102.211 10.1432L102.15 10.1918V10.4471L102.211 10.4957C102.709 10.4592 102.977 10.4471 103.414 10.4471C103.889 10.4471 104.18 10.4593 104.667 10.4957L104.703 10.4471V10.1918L104.655 10.1432C104.496 10.1382 104.337 10.122 104.18 10.0946C104.047 10.0581 104.01 10.0095 103.974 9.85142C103.917 9.27369 103.893 8.69327 103.901 8.11284V7.32256C103.901 6.55662 103.949 6.26483 104.107 6.05815C104.397 5.76229 104.788 5.5883 105.202 5.57185C106.49 5.57185 106.661 6.55666 106.661 7.66299V7.86968C106.661 8.59916 106.636 9.34079 106.575 9.91222C106.539 10.0581 106.49 10.204 106.442 10.3499C106.442 10.3864 106.478 10.4836 106.515 10.4836L106.515 10.4836ZM97.032 7.17668C97.032 6.76331 97.0563 5.18276 97.0928 4.91533L96.9834 4.84242C96.42 5.06071 95.8243 5.18397 95.2205 5.20716L95.1719 5.25577V5.51111L95.2205 5.55972H95.6096C95.8649 5.55972 95.9865 5.62052 95.9986 5.74208C96.0229 5.88799 96.0472 6.56882 96.0472 7.17671V8.11291C96.0472 8.53844 96.0107 9.4989 95.9743 9.85148C95.9723 9.90936 95.9507 9.96485 95.9132 10.009C95.8757 10.0531 95.8244 10.0833 95.7676 10.0946C95.5993 10.1265 95.4283 10.1428 95.257 10.1432L95.1962 10.1919V10.4472L95.257 10.4958C95.7433 10.4593 96.0959 10.4472 96.5457 10.4472C96.9955 10.4472 97.3481 10.4593 97.8466 10.4958L97.8831 10.4472V10.1919L97.8345 10.1432C97.6594 10.1378 97.4848 10.1215 97.3117 10.0946C97.1779 10.0581 97.1415 10.0095 97.105 9.85148C97.0485 9.27375 97.0242 8.69333 97.0321 8.11291L97.032 7.17668ZM96.5579 2.20412C96.3803 2.20111 96.2089 2.26875 96.0812 2.39216C95.9535 2.51556 95.8801 2.68463 95.8771 2.86216L95.877 2.87282C95.8808 3.04769 95.9529 3.21413 96.0779 3.33648C96.2029 3.45883 96.3708 3.52735 96.5457 3.52735C96.7206 3.52735 96.8886 3.45883 97.0136 3.33648C97.1386 3.21413 97.2107 3.04769 97.2144 2.87282C97.2196 2.70074 97.1562 2.53364 97.0382 2.40828C96.9202 2.28293 96.7572 2.20958 96.5852 2.20438C96.5761 2.2041 96.567 2.20402 96.5579 2.20414L96.5579 2.20412ZM93.8589 10.4472V10.1919L93.8102 10.1432C93.6522 10.1432 93.2267 10.1068 93.1659 10.0946C93.0321 10.0703 92.9835 10.0095 92.9592 9.85149C92.9027 9.27376 92.8784 8.69334 92.8863 8.11292V7.34701C92.8718 7.09274 92.9006 6.83786 92.9714 6.59321C93.1051 6.26496 93.4942 5.71786 93.9197 5.71786C94.0687 5.70787 94.2158 5.75517 94.3311 5.85009C94.4464 5.945 94.521 6.08037 94.5397 6.2285L94.5762 6.25281H94.7708L94.8072 6.21632C94.8034 5.80495 94.8359 5.39404 94.9045 4.9884L94.868 4.9033C94.7583 4.85019 94.6372 4.82514 94.5154 4.83038C94.2618 4.84153 94.0149 4.91503 93.7964 5.04438C93.578 5.17373 93.3948 5.35495 93.2631 5.57197L92.8255 6.13125C92.829 5.725 92.8533 5.31921 92.8984 4.91546L92.789 4.84254C92.2404 5.05403 91.6618 5.17714 91.0747 5.20728L91.0261 5.25589V5.51124L91.0747 5.55985H91.4638C91.7191 5.55985 91.8406 5.62065 91.8528 5.74221C91.8771 5.88811 91.9014 6.56895 91.9014 7.17684V8.12514C91.9014 8.56282 91.8649 9.49897 91.8285 9.85154C91.8264 9.90942 91.8049 9.96491 91.7674 10.009C91.7299 10.0532 91.6786 10.0833 91.6218 10.0947C91.4535 10.1266 91.2825 10.1429 91.1112 10.1433L91.0504 10.1919V10.4472L91.1112 10.4958C91.5975 10.4594 91.9501 10.4472 92.3999 10.4472C92.8133 10.4472 93.3604 10.4594 93.8224 10.4958L93.8589 10.4472ZM87.502 13.1706C86.4564 13.1706 85.7756 12.6599 85.7756 11.7238C85.7679 11.5014 85.819 11.281 85.9235 11.0846C86.0281 10.8883 86.1826 10.7229 86.3714 10.6052C86.5294 10.4836 86.578 10.4593 86.9063 10.4593H87.7938C88.803 10.4593 89.6175 10.5565 89.6175 11.59C89.6175 12.4289 88.7543 13.1705 87.5021 13.1705L87.502 13.1706ZM87.4535 5.25572C88.3531 5.25572 88.7422 6.04597 88.7422 6.79976C88.7622 6.9731 88.7448 7.14871 88.6913 7.31478C88.6377 7.48085 88.5492 7.63352 88.4317 7.76253C88.3142 7.89154 88.1705 7.99389 88.0101 8.0627C87.8498 8.13151 87.6766 8.16518 87.5021 8.16145C86.5903 8.16145 86.2377 7.38335 86.2377 6.60524C86.2123 6.43357 86.2251 6.2584 86.2752 6.09226C86.3254 5.92612 86.4116 5.77311 86.5278 5.64417C86.6439 5.51523 86.7872 5.41355 86.9472 5.3464C87.1072 5.27925 87.2801 5.24828 87.4535 5.25572H87.4535ZM90.5537 10.9821C90.5591 10.7373 90.4973 10.4958 90.3751 10.2836C90.253 10.0714 90.0751 9.89675 89.8607 9.77846C89.5775 9.6722 89.2751 9.62664 88.9732 9.64472H87.5507C86.9428 9.64472 86.4079 9.55962 86.4079 9.04898C86.4079 8.90308 86.5538 8.78151 86.9671 8.52619C87.0396 8.5363 87.1128 8.54037 87.186 8.53836C88.8151 8.53836 89.7513 7.62653 89.7513 6.49583C89.7455 6.17889 89.6575 5.86888 89.496 5.59616H90.3366L90.4703 5.23142L90.4217 5.12206C90.057 5.14637 89.7513 5.15849 89.1921 5.17067C88.7909 4.94617 88.3387 4.82892 87.879 4.83025C87.2286 4.86222 86.5969 5.05882 86.0432 5.40163C85.7769 5.5531 85.5577 5.77517 85.4097 6.04334C85.2616 6.31151 85.1905 6.61535 85.2043 6.92136C85.1904 7.30145 85.3204 7.67278 85.5683 7.96124C85.8162 8.2497 86.1638 8.43408 86.5416 8.47757L85.6541 9.00036C85.5421 9.15612 85.4825 9.34346 85.4839 9.53532C85.4839 9.90005 85.6541 10.2283 86.2377 10.3621L85.1678 10.9213C84.9804 11.2242 84.8834 11.5743 84.8882 11.9304C84.8882 13.0611 86.0188 13.5474 87.2711 13.5474C89.0948 13.5474 90.5537 12.5019 90.5537 10.9821L90.5537 10.9821ZM83.6364 5.6205C83.6364 3.93055 83.6607 2.10687 83.6972 1.83943L83.5878 1.76644C83.0253 1.9935 82.4302 2.12895 81.8249 2.16764L81.7763 2.21625V2.47156L81.8249 2.52017H82.2139C82.4693 2.52017 82.5908 2.58097 82.603 2.71469C82.6395 2.84842 82.6516 3.90616 82.6516 5.62042V8.12493C82.6516 8.56261 82.6151 9.49876 82.5787 9.85134C82.5766 9.90921 82.5551 9.96471 82.5176 10.0088C82.4801 10.053 82.4288 10.0831 82.372 10.0945C82.2036 10.1264 82.0327 10.1427 81.8613 10.1431L81.8005 10.1917V10.447L81.8613 10.4956C82.3476 10.4592 82.7002 10.447 83.1501 10.447C83.5999 10.447 83.9525 10.4592 84.451 10.4956L84.4874 10.447V10.1917L84.4388 10.1431C84.2637 10.1376 84.0891 10.1214 83.916 10.0945C83.7823 10.058 83.7458 10.0094 83.7094 9.85134C83.6529 9.27361 83.6286 8.69319 83.6364 8.11276L83.6364 5.6205ZM80.3659 7.17671C80.3659 6.76334 80.3902 5.18279 80.4267 4.91536L80.3173 4.84244C79.7539 5.06074 79.1582 5.18399 78.5544 5.20718L78.5058 5.25579V5.51114L78.5544 5.55975H78.9435C79.1988 5.55975 79.3204 5.62055 79.3325 5.74211C79.3568 5.88801 79.3811 6.56885 79.3811 7.17674V8.11293C79.3811 8.53847 79.3446 9.49893 79.3082 9.85151C79.3062 9.90939 79.2846 9.96488 79.2471 10.009C79.2096 10.0531 79.1583 10.0833 79.1015 10.0947C78.9332 10.1266 78.7622 10.1428 78.5909 10.1433L78.5301 10.1919V10.4472L78.5909 10.4958C79.0772 10.4593 79.4298 10.4472 79.8796 10.4472C80.3294 10.4472 80.682 10.4594 81.1805 10.4958L81.217 10.4472V10.1919L81.1684 10.1433C80.9933 10.1378 80.8187 10.1216 80.6456 10.0947C80.5119 10.0582 80.4754 10.0096 80.4389 9.85151C80.3824 9.27378 80.3581 8.69336 80.366 8.11293L80.3659 7.17671ZM79.8918 2.20415C79.7142 2.20114 79.5428 2.26878 79.4151 2.39218C79.2874 2.51559 79.214 2.68465 79.211 2.86219L79.2109 2.87284C79.2147 3.04771 79.2868 3.21416 79.4118 3.33651C79.5367 3.45886 79.7047 3.52738 79.8796 3.52738C80.0545 3.52738 80.2225 3.45886 80.3475 3.33651C80.4725 3.21416 80.5446 3.04771 80.5483 2.87284C80.5535 2.70076 80.4901 2.53367 80.3721 2.40831C80.2541 2.28295 80.0912 2.20961 79.9191 2.20441C79.91 2.20413 79.9009 2.20405 79.8918 2.20416L79.8918 2.20415ZM73.1685 2.17986C73.0104 2.17986 72.3296 2.16766 71.7217 2.13125L71.6731 2.16768V2.47168L71.7217 2.50811C72.2445 2.5446 72.3782 2.60533 72.4633 2.69047C72.597 2.86069 72.5971 3.15246 72.5971 4.95182V7.67518C72.5971 9.48671 72.597 9.72986 72.4633 9.93653C72.3782 10.0216 72.2445 10.0824 71.7217 10.1189L71.6731 10.1554V10.4593L71.7217 10.4958C72.3418 10.4593 73.0104 10.4472 73.1563 10.4472C73.3144 10.4472 73.9952 10.4594 74.6031 10.4958L74.6517 10.4593V10.1554L74.6031 10.1189C74.0803 10.0824 73.9344 10.0217 73.8493 9.93653C73.7156 9.74201 73.7156 9.51099 73.7156 7.67518V4.95181C73.7156 3.78465 73.7399 3.01871 73.7764 2.62966C74.2019 2.59317 74.5666 2.56886 74.9436 2.56886C75.2092 2.54279 75.4773 2.57635 75.7283 2.66708C75.9793 2.75782 76.2069 2.90344 76.3944 3.09333C76.582 3.28321 76.7248 3.51258 76.8124 3.76468C76.9 4.01678 76.9303 4.28527 76.9009 4.55055C76.9175 5.03111 76.7425 5.49858 76.4145 5.85011C76.0864 6.20165 75.6321 6.40846 75.1515 6.42505C75.0944 6.42703 75.0372 6.4263 74.98 6.42285C74.8134 6.43164 74.6464 6.4235 74.4815 6.39855L74.4207 6.44716L74.5301 6.77541C74.7368 6.78758 74.9557 6.79972 75.1988 6.79972C75.5536 6.8277 75.9103 6.78554 76.2487 6.67564C76.5872 6.56574 76.9006 6.39026 77.1713 6.15922C77.4419 5.92817 77.6643 5.64609 77.8259 5.32907C77.9875 5.01206 78.0851 4.66632 78.1131 4.31159L78.1167 4.25871C78.1167 2.61739 76.9009 2.13111 75.5028 2.13111C75.4056 2.13111 74.7612 2.15542 74.3722 2.15542C73.898 2.16759 73.5211 2.17979 73.1685 2.17979L73.1685 2.17986ZM68.8043 4.5141C68.8043 3.14027 68.8286 2.25275 68.8651 1.8029L68.7557 1.72998C68.1629 1.96061 67.5409 2.10791 66.9077 2.16766L66.8591 2.21627V2.47157L66.9077 2.52018H67.3818C67.6371 2.52018 67.7587 2.58098 67.7709 2.7147C67.8446 3.42548 67.8609 4.14105 67.8195 4.85445V5.10977C67.4338 4.92058 67.009 4.8248 66.5794 4.83019C65.8036 4.93634 65.0674 5.23751 64.4396 5.70552C64.1101 5.97188 63.8511 6.3153 63.6857 6.70546C63.5204 7.09561 63.4536 7.52049 63.4913 7.94256C63.4641 8.26873 63.5014 8.59706 63.6011 8.90881C63.7007 9.22056 63.8608 9.50963 64.0722 9.75951C64.2836 10.0094 64.5421 10.2152 64.8331 10.3651C65.124 10.5151 65.4416 10.6063 65.7678 10.6335C65.8194 10.6378 65.8711 10.6405 65.9229 10.6416C66.1857 10.6488 66.447 10.5991 66.6888 10.4957C67.0974 10.1653 67.4758 9.79909 67.8195 9.40152C67.8195 9.7784 67.8073 10.1067 67.7952 10.4349L67.856 10.4957C68.094 10.4667 68.3335 10.4505 68.5733 10.4471C68.8529 10.4471 69.169 10.4593 69.5459 10.4957L69.5824 10.4471V10.1918L69.5338 10.1432C69.3163 10.1706 69.0961 10.1188 68.9137 9.99729C68.8286 9.91219 68.8043 9.74197 68.8043 9.40155L68.8043 4.5141ZM67.8195 8.23441C67.8532 8.6383 67.7251 9.03904 67.4634 9.34848C67.2017 9.65793 66.8277 9.85073 66.4238 9.88446L66.3727 9.88787C65.1448 9.88787 64.5368 8.78153 64.5368 7.61435C64.5368 6.32562 65.0718 5.32868 66.2632 5.32868C66.5905 5.30578 66.9167 5.38616 67.1959 5.55847C67.4751 5.73079 67.6932 5.98636 67.8195 6.28918L67.8195 8.23441ZM62.2025 10.4472V10.1918L62.1539 10.1432C61.9959 10.1432 61.5704 10.1067 61.5096 10.0946C61.3758 10.0703 61.3272 10.0095 61.3029 9.85146C61.2464 9.27373 61.2221 8.69332 61.23 8.11289V7.34698C61.2155 7.09271 61.2443 6.83783 61.3151 6.59319C61.4488 6.26493 61.8378 5.71783 62.2634 5.71783C62.4124 5.70784 62.5595 5.75514 62.6748 5.85006C62.79 5.94498 62.8647 6.08035 62.8834 6.22847L62.9199 6.25278H63.1144L63.1509 6.2163C63.1471 5.80491 63.1796 5.39399 63.2482 4.98834L63.2117 4.90323C63.102 4.85013 62.9808 4.82508 62.8591 4.83032C62.6055 4.84146 62.3585 4.91496 62.1401 5.04432C61.9217 5.17367 61.7385 5.35488 61.6068 5.57191L61.1692 6.13118C61.1727 5.72494 61.197 5.31915 61.2421 4.91539L61.1327 4.84248C60.5841 5.05396 60.0055 5.17708 59.4184 5.20722L59.3698 5.25583V5.51118L59.4184 5.55979H59.8074C60.0628 5.55979 60.1843 5.62059 60.1965 5.74215C60.2208 5.88805 60.2451 6.56888 60.2451 7.17677V8.12509C60.2451 8.56277 60.2086 9.49891 60.1722 9.85149C60.1701 9.90937 60.1486 9.96486 60.1111 10.009C60.0736 10.0531 60.0223 10.0833 59.9655 10.0946C59.7971 10.1265 59.6262 10.1428 59.4549 10.1432L59.3941 10.1919V10.4472L59.4549 10.4958C59.9412 10.4593 60.2938 10.4472 60.7436 10.4472C61.157 10.4472 61.7041 10.4594 62.1661 10.4958L62.2025 10.4472ZM58.0324 8.52619C58.0324 7.76026 58.0567 7.0794 58.0567 6.60524C58.0703 6.35253 58.0274 6.09996 57.9311 5.86591C57.8349 5.63186 57.6876 5.4222 57.5002 5.2522C57.3127 5.08219 57.0897 4.95611 56.8474 4.88312C56.605 4.81013 56.3495 4.79207 56.0993 4.83025C55.3992 4.85774 54.7244 5.09964 54.1662 5.52319C54.1171 5.55021 54.0785 5.59306 54.0568 5.64478V6.33779L54.0933 6.39858L54.3607 6.45938L54.3972 6.43508C54.4602 6.17946 54.5672 5.93675 54.7133 5.71777C54.8393 5.6138 54.9851 5.53648 55.1418 5.49051C55.2985 5.44453 55.463 5.43086 55.6252 5.45031C56.5127 5.45031 57.0598 5.86367 57.0598 7.01866C56.0265 7.09341 55.0202 7.38329 54.1054 7.8697C53.9308 8.02454 53.7923 8.21589 53.6999 8.43019C53.6074 8.6445 53.5633 8.87651 53.5705 9.1098C53.5599 9.30945 53.5919 9.50906 53.6642 9.69544C53.7366 9.88181 53.8477 10.0507 53.9903 10.1909C54.1328 10.3311 54.3034 10.4395 54.491 10.5088C54.6785 10.5781 54.8786 10.6068 55.0781 10.593C55.3192 10.591 55.558 10.5457 55.7832 10.4593L57.0598 9.46235L57.0355 10.4107L57.1206 10.4836C57.4488 10.4593 57.7285 10.4471 57.9716 10.4471C58.2638 10.4434 58.5561 10.4556 58.847 10.4836L58.8956 10.4471V10.2039L58.847 10.1553L58.543 10.1189C58.1053 10.0702 58.0324 9.74197 58.0324 8.96387L58.0324 8.52619ZM57.0598 8.97605C56.8847 9.23064 56.6555 9.44333 56.3886 9.59888C56.1216 9.75443 55.8235 9.84896 55.5157 9.87571C54.9078 9.87571 54.6039 9.5353 54.6039 8.85446C54.5944 8.66524 54.6398 8.47731 54.7348 8.31335C54.8297 8.14939 54.97 8.01641 55.1389 7.93045C55.7517 7.66265 56.3978 7.47862 57.0598 7.38335L57.0598 8.97605ZM52.5253 6.59308C52.9869 5.55966 53.072 5.45023 53.4732 5.40161L53.5219 5.35299V5.09771L53.4732 5.03691C53.2058 5.06122 52.8658 5.08552 52.5375 5.08552C52.2579 5.08552 52.0877 5.0734 51.5644 5.03691L51.5036 5.09771V5.35303L51.5522 5.40164C52.1849 5.43813 52.2335 5.51111 52.2335 5.68128C52.1836 6.13808 52.0431 6.58034 51.8201 6.98217L50.7502 9.54745L49.4858 6.41071C49.3773 6.16778 49.3075 5.90933 49.2791 5.64477C49.2791 5.43808 49.4372 5.40162 50.0082 5.40162L50.0568 5.35301V5.08557L50.0082 5.03696C49.656 5.06126 49.2301 5.08557 48.841 5.08557C48.4884 5.08557 48.0755 5.07345 47.6257 5.03696L47.5644 5.09775V5.35308L47.6131 5.40169C47.7331 5.41143 47.8473 5.45731 47.9407 5.53327C48.0341 5.60924 48.1023 5.71173 48.1363 5.82722L49.3764 8.69646C49.656 9.31652 49.9474 10.0703 50.1541 10.6052H50.7745C51.0702 9.79834 51.4069 9.00706 51.7832 8.23447L52.5253 6.59308ZM46.264 10.4472V10.1918L46.2154 10.1432C46.0574 10.1432 45.6318 10.1067 45.571 10.0946C45.4373 10.0703 45.3887 10.0095 45.3644 9.85146C45.3079 9.27373 45.2836 8.69332 45.2914 8.11289V7.34698C45.277 7.09271 45.3058 6.83783 45.3765 6.59319C45.5103 6.26493 45.8993 5.71783 46.3249 5.71783C46.4738 5.70784 46.621 5.75514 46.7363 5.85006C46.8515 5.94498 46.9262 6.08035 46.9449 6.22847L46.9814 6.25278H47.1759L47.2124 6.2163C47.2086 5.80491 47.2411 5.39399 47.3096 4.98834L47.2731 4.90323C47.1635 4.85013 47.0423 4.82508 46.9206 4.83032C46.667 4.84146 46.42 4.91496 46.2016 5.04432C45.9832 5.17367 45.8 5.35488 45.6683 5.57191L45.2306 6.13118C45.2342 5.72494 45.2585 5.31915 45.3036 4.91539L45.1941 4.84248C44.6456 5.05396 44.067 5.17708 43.4799 5.20722L43.4313 5.25583V5.51118L43.4799 5.55979H43.8689C44.1242 5.55979 44.2458 5.62059 44.258 5.74215C44.2823 5.88805 44.3066 6.56888 44.3066 7.17677V8.12509C44.3066 8.56277 44.2701 9.49891 44.2337 9.85149C44.2316 9.90937 44.2101 9.96486 44.1726 10.009C44.1351 10.0531 44.0838 10.0833 44.027 10.0946C43.8586 10.1265 43.6877 10.1428 43.5163 10.1432L43.4555 10.1919V10.4472L43.5163 10.4958C44.0027 10.4593 44.3552 10.4472 44.8051 10.4472C45.2184 10.4472 45.7656 10.4594 46.2275 10.4958L46.264 10.4472ZM42.1547 8.5262C42.1547 7.76027 42.179 7.07941 42.179 6.60525C42.1926 6.35254 42.1497 6.09998 42.0534 5.86592C41.9571 5.63187 41.8099 5.42222 41.6224 5.25222C41.435 5.08221 41.212 4.95613 40.9696 4.88313C40.7273 4.81014 40.4718 4.79207 40.2216 4.83025C39.5215 4.85774 38.8467 5.09964 38.2885 5.52319C38.2393 5.55021 38.2008 5.59306 38.1791 5.64478V6.33779L38.2156 6.39858L38.483 6.45938L38.5195 6.43508C38.5825 6.17946 38.6895 5.93675 38.8356 5.71777C38.9616 5.6138 39.1074 5.53648 39.2641 5.49051C39.4208 5.44453 39.5853 5.43086 39.7474 5.45031C40.635 5.45031 41.1821 5.86367 41.1821 7.01866C40.1487 7.09341 39.1425 7.38329 38.2277 7.8697C38.0531 8.02454 37.9146 8.21589 37.8222 8.43019C37.7297 8.6445 37.6855 8.87651 37.6928 9.1098C37.6822 9.30945 37.7142 9.50906 37.7865 9.69544C37.8589 9.88181 37.97 10.0507 38.1125 10.1909C38.2551 10.3311 38.4257 10.4395 38.6133 10.5088C38.8008 10.5781 39.0009 10.6068 39.2003 10.593C39.4415 10.591 39.6803 10.5457 39.9055 10.4593L41.182 9.46235L41.1577 10.4107L41.2428 10.4836C41.5711 10.4593 41.8507 10.4471 42.0939 10.4471C42.3861 10.4434 42.6783 10.4556 42.9692 10.4836L43.0178 10.4471V10.2039L42.9692 10.1553L42.6653 10.1189C42.2276 10.0702 42.1546 9.74197 42.1546 8.96387L42.1547 8.5262ZM41.182 8.97605C41.007 9.23065 40.7778 9.44334 40.5108 9.59889C40.2439 9.75443 39.9458 9.84897 39.638 9.87572C39.0301 9.87572 38.7261 9.5353 38.7261 8.85447C38.7166 8.66525 38.7621 8.47732 38.857 8.31336C38.9519 8.1494 39.0923 8.01641 39.2611 7.93045C39.8739 7.66264 40.5201 7.47862 41.1821 7.38335L41.182 8.97605ZM34.9937 7.67511C34.9937 9.48664 34.9937 9.72979 34.86 9.93646C34.7748 10.0216 34.6289 10.0824 34.1062 10.1188L34.0575 10.1553V10.4593L34.1062 10.4957C34.7262 10.4593 35.4071 10.4471 35.5408 10.4471C35.6988 10.4471 36.3797 10.4593 36.9876 10.4957L37.0362 10.4593V10.1553L36.9876 10.1188C36.4648 10.0823 36.3311 10.0216 36.246 9.93646C36.1122 9.72977 36.1122 9.48661 36.1122 7.66294V4.95178C36.1122 3.15242 36.1122 2.86064 36.246 2.69043C36.3311 2.60533 36.4648 2.54453 36.9876 2.50807L37.0362 2.47164V2.16764L36.9876 2.13121C36.3797 2.16764 35.6867 2.17982 35.553 2.17982C35.4071 2.17982 34.7384 2.16763 34.1062 2.13121L34.0575 2.16764V2.47165L34.1062 2.50808C34.6289 2.54456 34.7748 2.6053 34.86 2.69044C34.9937 2.86066 34.9937 3.15243 34.9937 4.95179V5.76634C34.4466 5.80283 33.6199 5.80283 32.5986 5.80283C31.8326 5.80283 31.0302 5.79066 30.1791 5.76634V4.95178C30.1791 3.15242 30.1791 2.86064 30.3129 2.69043C30.398 2.60533 30.5439 2.54453 31.0667 2.50807L31.1153 2.47164V2.16764L31.0667 2.13121C30.4588 2.16764 29.7658 2.17982 29.632 2.17982C29.474 2.17982 28.7931 2.16763 28.1852 2.13121L28.1366 2.16764V2.47165L28.1852 2.50808C28.708 2.54456 28.8418 2.6053 28.9269 2.69044C29.0606 2.86066 29.0606 3.15243 29.0606 4.95179V7.67511C29.0606 9.48664 29.0606 9.72979 28.9269 9.93646C28.8418 10.0216 28.708 10.0824 28.1852 10.1188L28.1366 10.1553V10.4593L28.1852 10.4957C28.8053 10.4593 29.474 10.4471 29.6199 10.4471C29.7779 10.4471 30.4588 10.4593 31.0667 10.4957L31.1153 10.4593V10.1553L31.0667 10.1188C30.5439 10.0823 30.398 10.0216 30.3129 9.93646C30.1791 9.72977 30.1791 9.48661 30.1791 7.66294V6.33778C30.9816 6.30129 32.0758 6.30129 32.5621 6.30129C33.0119 6.30129 34.3493 6.28912 34.9937 6.3256L34.9937 7.67511Z" fill="#231F20"/>
</g>
<defs>
<clipPath id="clip0">
<rect width="107.652" height="23.1579" fill="white" transform="translate(0.7836 0.742691)"/>
</clipPath>
</defs>
</svg>
