<svg width="112" height="24" viewBox="0 0 112 24" fill="none" xmlns="http://www.w3.org/2000/svg">
<g clip-path="url(#clip0)">
<path d="M31.7424 6.08982C31.4144 6.08982 31.1127 6.36303 31.1127 6.71431V19.5422C30.1288 19.7764 29.1318 19.8805 28.1348 19.8805C25.9046 19.8805 25.0913 19.0608 25.0913 16.628V6.7013C25.0913 6.28497 24.7764 6.07681 24.4878 6.07681H21.077V16.667C21.077 21.6368 23.7138 23.2501 28.0036 23.2501C31.4275 23.2501 34.8121 22.2743 35.1007 22.1833V6.08982H31.7424ZM83.7969 23.0679C84.1249 23.0679 84.4266 22.7947 84.4266 22.4435V9.48545C85.4105 9.25127 86.4075 9.14719 87.4045 9.14719C89.6347 9.14719 90.448 9.96682 90.448 12.3997V22.4435C90.448 22.8598 90.7629 23.0679 91.0515 23.0679H94.4623V12.3737C94.4623 7.40384 91.8255 5.79059 87.5357 5.79059C84.1118 5.79059 80.7272 6.76635 80.4385 6.85742V23.094L83.7969 23.0679ZM70.2061 5.79059C65.7982 5.79059 63.004 8.17143 63.004 13.2454V15.7953C63.004 21.4157 66.0081 23.2501 69.2878 23.2501C70.9013 23.2501 72.5543 22.1312 73.0921 21.4287V22.4695C73.0921 22.7427 73.3414 23.0549 73.6956 23.0549H77.0933V6.76635C77.0802 6.76635 73.735 5.79059 70.2061 5.79059ZM73.0921 18.9307C72.3444 19.5422 71.7803 19.9455 70.2061 19.9976C67.9759 19.9976 67.0051 18.6445 67.0051 15.7563V13.4015C67.0051 10.0709 68.2383 9.1602 70.2061 9.1602C71.859 9.1602 72.7511 9.2903 73.0921 9.35535V18.9307ZM104.459 5.79059C100.051 5.79059 97.2566 8.17143 97.2566 13.2454V15.7953C97.2566 21.4157 100.274 23.2501 103.54 23.2501C105.154 23.2501 106.807 22.1312 107.345 21.4287V22.4695C107.345 22.7427 107.594 23.0549 107.948 23.0549H111.346V6.76635C111.346 6.76635 107.988 5.79059 104.459 5.79059ZM107.345 18.9307C106.61 19.5422 106.033 19.9455 104.459 19.9976C102.229 19.9976 101.258 18.6445 101.258 15.7563V13.4015C101.258 10.0709 102.491 9.1602 104.459 9.1602C106.112 9.1602 107.004 9.2903 107.345 9.35535V18.9307ZM0.900589 23.0549H4.48196C4.75745 23.0549 5.08542 22.7947 5.08542 22.4565V13.0502H11.7234C12.8254 13.0502 13.6518 13.9349 13.6518 14.8456V22.4435C13.6518 22.7687 13.9405 23.0419 14.2422 23.0419H17.8367V0.742691H14.2422C13.9405 0.742691 13.6518 1.0159 13.6518 1.30212V9.6806H6.75148C5.83318 9.6806 5.09854 8.92601 5.09854 8.09337V1.30212C5.09854 1.09396 4.87552 0.742691 4.48196 0.742691H0.900589V23.0549ZM54.0833 5.77758C52.1811 5.77758 50.3708 6.51916 49.5705 7.07859C48.3374 6.15487 46.6582 5.77758 44.5855 5.77758C41.437 5.77758 38.8133 6.74033 38.446 6.89645V23.0549H41.8437C42.1848 23.0549 42.4471 22.7817 42.4471 22.4305V9.43341C43.1687 9.23826 43.8246 9.13418 44.428 9.13418C46.7763 9.13418 47.3535 10.0709 47.3535 12.3867V22.4305C47.3535 22.7297 47.5896 23.0549 47.9569 23.0549H50.7643C51.1448 23.0549 51.3678 22.7557 51.3678 22.4305V9.9408C51.9843 9.40739 52.8895 9.14719 53.716 9.14719C55.5264 9.14719 56.261 9.95381 56.261 12.1525V22.4174C56.261 22.6907 56.4578 23.0419 56.8645 23.0419H60.2622V11.6191C60.2359 7.28675 57.5073 5.77758 54.0833 5.77758Z" fill="#87C546"/>
</g>
<defs>
<clipPath id="clip0">
<rect width="110.445" height="23.1579" fill="white" transform="translate(0.900589 0.742691)"/>
</clipPath>
</defs>
</svg>
