<svg width="114" height="32" viewBox="0 0 114 32" fill="none" xmlns="http://www.w3.org/2000/svg">
<path d="M59.5258 24.5286V16.0655H61.0566V19.5743H64.6238V16.0655H66.1546V24.4865H64.6238V20.9778H61.0566V24.4865L59.5258 24.5286Z" fill="#5092CE"/>
<path d="M68.2472 24.5286V16.0655H73.8648V17.469H69.785V19.6094H73.3522V21.0129H69.785V23.1181H73.8648V24.5216L68.2472 24.5286Z" fill="#5092CE"/>
<path d="M75.3324 24.5287L78.7029 16.1076H80.3812L83.7517 24.5287H82.1156L81.3502 22.4865H77.783L77.0176 24.5287H75.3324ZM78.2395 21.1111H80.7393L79.4683 17.7778L78.2395 21.1111Z" fill="#5092CE"/>
<path d="M85.3317 24.5286V16.0655H86.8625V23.083H90.8861V24.4865H85.3317V24.5286Z" fill="#5092CE"/>
<path d="M91.0406 17.5953V16.0655H97.9783V17.5953H95.2748V24.4725H93.744V17.5953H91.0406Z" fill="#5092CE"/>
<path d="M99.783 24.5286V16.0655H101.314V19.5743H104.881V16.0655H106.412V24.4865H104.909V20.9778H101.342V24.4865L99.783 24.5286Z" fill="#5092CE"/>
<path d="M32.6527 3.12514V1.08304H34.8997V3.04093H32.6527V3.12514ZM32.7089 13.469V4.3462H34.8997V13.469H32.7089Z" fill="#005181"/>
<path d="M43.923 5.20934C43.5207 4.85754 43.0515 4.59045 42.5436 4.42405C42.0356 4.25766 41.4993 4.19537 40.9667 4.24092C39.5006 4.24177 38.0561 4.59307 36.7535 5.26548V7.09706C37.4486 6.74487 38.1878 6.4876 38.9514 6.33215H39.0497C39.6708 6.19316 40.3028 6.10862 40.9386 6.07952C42.0182 6.0272 43.0765 6.39149 43.8949 7.09706C44.2684 7.45798 44.5582 7.89639 44.7439 8.38138C44.9295 8.86638 45.0064 9.38615 44.9692 9.90408V8.01636C45.0095 7.50059 44.9368 6.98225 44.7561 6.49745C44.5754 6.01266 44.2911 5.57307 43.923 5.20934Z" fill="#005181"/>
<path d="M36.7816 13.469H38.9795V7.30058C38.2159 7.45603 37.4766 7.71331 36.7816 8.0655V13.469Z" fill="#005181"/>
<path d="M40.9667 6.07952C40.3312 6.07082 39.6969 6.13916 39.0778 6.28303C39.5981 6.17988 40.1273 6.12816 40.6578 6.12864C41.0537 6.12816 41.4481 6.18008 41.8304 6.28303C42.1071 6.3265 42.3575 6.47165 42.5326 6.69004C42.6458 6.84496 42.7313 7.01827 42.7854 7.20232C42.8262 7.40314 42.8427 7.60811 42.8346 7.81285V13.469H45.0114V9.89706C45.0314 9.38933 44.9463 8.88293 44.7615 8.40958C44.5766 7.93623 44.2959 7.50612 43.937 7.14618C43.5394 6.77749 43.0713 6.49294 42.5609 6.30964C42.0505 6.12633 41.5082 6.04806 40.9667 6.07952Z" fill="url(#paint0_linear)"/>
<path d="M53.817 5.20934C53.4147 4.85754 52.9455 4.59045 52.4376 4.42405C51.9296 4.25766 51.3933 4.19537 50.8607 4.24092C49.3938 4.23484 47.9476 4.58653 46.6475 5.26548V7.09706C47.3425 6.74487 48.0818 6.4876 48.8454 6.33215H48.9437C49.5623 6.18523 50.1969 6.11686 50.8326 6.12864C51.9122 6.07632 52.9705 6.44062 53.7889 7.14619C54.1635 7.50599 54.4536 7.94441 54.6382 8.42982C54.8228 8.91524 54.8972 9.43555 54.8562 9.95321V8.01636C54.8883 7.50194 54.8124 6.98649 54.6334 6.50309C54.4545 6.01969 54.1764 5.57902 53.817 5.20934Z" fill="#005181"/>
<path d="M46.6264 13.469H48.8173V7.30058C48.056 7.45606 47.319 7.71335 46.6264 8.0655V13.469Z" fill="#005181"/>
<path d="M50.8607 6.07952C50.2251 6.07083 49.5909 6.13916 48.9718 6.28303C49.4921 6.17988 50.0213 6.12817 50.5517 6.12865C50.9477 6.12817 51.342 6.18008 51.7244 6.28303C52.0004 6.32841 52.2502 6.4732 52.4266 6.69005C52.5398 6.84496 52.6253 7.01828 52.6794 7.20233C52.7202 7.40314 52.7367 7.60812 52.7285 7.81286V13.469H54.9194V9.89707C54.9509 9.38029 54.8721 8.86273 54.688 8.37876C54.504 7.89478 54.219 7.45549 53.8521 7.09005C53.0237 6.37841 51.9512 6.01609 50.8607 6.07952Z" fill="url(#paint1_linear)"/>
<path d="M112.05 5.20934C111.648 4.85754 111.179 4.59045 110.671 4.42405C110.163 4.25766 109.627 4.19537 109.094 4.24092C107.628 4.24068 106.183 4.59204 104.881 5.26548V7.09706C105.574 6.746 106.311 6.48877 107.072 6.33215H107.177C107.796 6.18523 108.43 6.11686 109.066 6.12864C110.146 6.07632 111.204 6.44062 112.022 7.14619C112.397 7.50599 112.687 7.94441 112.872 8.42982C113.056 8.91524 113.131 9.43555 113.09 9.95321V8.01636C113.12 7.5021 113.043 6.98714 112.864 6.504C112.686 6.02085 112.408 5.58002 112.05 5.20934Z" fill="url(#paint2_linear)"/>
<path d="M104.909 13.469H107.1V7.30058C106.339 7.4572 105.602 7.71444 104.909 8.0655V13.469Z" fill="#005181"/>
<path d="M109.038 6.07953C108.405 6.07078 107.773 6.13912 107.156 6.28304C107.676 6.17925 108.206 6.12753 108.736 6.12865C109.132 6.12817 109.526 6.18009 109.909 6.28304C110.17 6.33668 110.404 6.48084 110.569 6.69005C110.684 6.84462 110.772 7.01792 110.829 7.20234C110.869 7.40315 110.886 7.60812 110.878 7.81286V13.469H113.069V9.89707C113.088 9.38999 113.004 8.88425 112.82 8.41111C112.637 7.93797 112.358 7.50747 112.001 7.1462C111.609 6.77177 111.143 6.48345 110.632 6.29975C110.122 6.11606 109.579 6.04104 109.038 6.07953Z" fill="url(#paint3_linear)"/>
<path d="M57.6931 12.3953C56.8877 11.4264 56.4855 10.1854 56.5696 8.92864C56.4873 7.67424 56.8894 6.43606 57.6931 5.469C58.567 4.6795 59.7031 4.24239 60.8811 4.24239C62.0591 4.24239 63.1952 4.6795 64.0691 5.469C64.8702 6.43711 65.2698 7.67518 65.1856 8.92864C65.2798 10.1855 64.8791 11.4293 64.0691 12.3953C63.1797 13.1526 62.0495 13.5686 60.8811 13.5686C59.7127 13.5686 58.5825 13.1526 57.6931 12.3953ZM59.2731 6.64093C58.8511 7.32477 58.6706 8.13024 58.7605 8.92864C58.6701 9.7293 58.8505 10.5372 59.2731 11.2234C59.7152 11.616 60.2861 11.8329 60.8776 11.8329C61.4691 11.8329 62.04 11.616 62.4821 11.2234C62.9047 10.5372 63.0851 9.7293 62.9947 8.92864C63.0846 8.13024 62.9041 7.32477 62.4821 6.64093C62.04 6.24829 61.4691 6.03142 60.8776 6.03142C60.2861 6.03142 59.7152 6.24829 59.2731 6.64093Z" fill="#005181"/>
<path d="M65.5928 4.34619H67.9382L70.2344 11.2795L72.4814 4.34619H74.8268L71.3579 13.469H69.0617L65.5928 4.34619Z" fill="#005181"/>
<path d="M75.206 10.4585C75.1979 10.27 75.2145 10.0813 75.2551 9.89707C75.3051 9.64448 75.408 9.40532 75.5571 9.19532C75.7028 8.89709 75.914 8.63562 76.175 8.4304C76.5263 8.16989 76.9244 7.9793 77.3477 7.869C77.9283 7.70559 78.5281 7.62062 79.1313 7.61637C79.6369 7.61637 80.1986 7.66549 80.7112 7.71461C80.7112 6.54268 80.009 5.98128 78.7732 5.98128C77.8678 5.97564 76.9687 6.13251 76.1188 6.44444V4.64795C77.0245 4.34604 77.9729 4.19202 78.9276 4.19181C79.989 4.14744 81.0308 4.48621 81.8628 5.14619C82.2121 5.53202 82.4817 5.98288 82.6565 6.47296C82.8312 6.96305 82.9075 7.48275 82.881 8.00233V10.4444C82.889 10.8544 82.8113 11.2614 82.6529 11.6397C82.4945 12.0179 82.2589 12.3589 81.9611 12.6409C81.5604 12.9766 81.0974 13.23 80.5985 13.3865C80.0997 13.5431 79.5748 13.5997 79.054 13.5532C77.9875 13.6443 76.9273 13.3171 76.0978 12.6409C75.8092 12.3563 75.5814 12.0161 75.4281 11.641C75.2748 11.2659 75.1993 10.8636 75.206 10.4585ZM77.3968 10.2058C77.3968 11.1743 77.9586 11.6865 79.1313 11.6865C80.1986 11.6865 80.7604 11.2234 80.7604 10.283V9.13918C80.3209 9.07399 79.8775 9.03882 79.4332 9.03391C78.1061 9.03391 77.3968 9.39181 77.3968 10.2058Z" fill="#005181"/>
<path d="M90.9352 3.12514V1.08304H93.1823V3.04093H90.9352V3.12514ZM90.9914 13.469V4.3462H93.1823V13.469H90.9914Z" fill="#005181"/>
<path d="M95.8858 12.3953C95.0804 11.4264 94.6782 10.1854 94.7622 8.92864C94.68 7.67424 95.0821 6.43606 95.8858 5.469C96.7596 4.6795 97.8957 4.24239 99.0737 4.24239C100.252 4.24239 101.388 4.6795 102.262 5.469C103.042 6.44829 103.439 7.67815 103.378 8.92864C103.472 10.1855 103.072 11.4293 102.262 12.3953C101.372 13.1526 100.242 13.5686 99.0737 13.5686C97.9053 13.5686 96.7751 13.1526 95.8858 12.3953ZM97.5149 6.64093C97.0958 7.32583 96.9178 8.13107 97.0093 8.92864C97.0093 10.0515 97.1567 10.8164 97.5149 11.2234C97.9581 11.6165 98.5302 11.8336 99.1229 11.8336C99.7156 11.8336 100.288 11.6165 100.731 11.2234C101.089 10.8164 101.237 10.0515 101.237 8.92864C101.328 8.13107 101.15 7.32583 100.731 6.64093C100.288 6.24779 99.7156 6.03067 99.1229 6.03067C98.5302 6.03067 97.9581 6.24779 97.5149 6.64093Z" fill="#005181"/>
<path d="M88.3863 11.7357C88.0833 11.7719 87.7774 11.6998 87.5226 11.5322C87.4183 11.4266 87.3409 11.2976 87.2969 11.1559C87.2529 11.0143 87.2436 10.8641 87.2698 10.7181V6.23391H88.7444V4.34619H87.2698V1.63742H85.0719V4.33918H83.5411V6.22689H85.0719V10.5567C85.0385 11.3574 85.3122 12.1405 85.8373 12.7462C86.1106 13.0234 86.4397 13.2394 86.8029 13.3797C87.1661 13.5201 87.5551 13.5816 87.9439 13.5602H88C88.4794 13.559 88.9548 13.4735 89.4044 13.3076V11.5322C89.0772 11.6509 88.734 11.7195 88.3863 11.7357Z" fill="#005181"/>
<path d="M5.83569 3.22338C7.14724 3.22547 8.44423 3.49832 9.64532 4.02482C10.8464 4.55132 11.9257 5.32012 12.8156 6.28303C13.8968 5.11903 15.252 4.24354 16.7579 3.73616C18.2639 3.22877 19.8728 3.10557 21.4386 3.37776C19.0906 1.247 16.0328 0.0665283 12.8612 0.0665283C9.68964 0.0665283 6.63177 1.247 4.28383 3.37776C4.79495 3.27656 5.31464 3.22486 5.83569 3.22338Z" fill="url(#paint4_linear)"/>
<path d="M22.3022 4.24092C22.1477 4.09356 22.0494 3.93917 21.8949 3.78478C21.7405 3.6304 21.4877 3.42689 21.4385 3.37777C19.8108 3.11915 18.1441 3.27606 16.5933 3.83391C17.2046 5.21516 17.5181 6.70956 17.5132 8.21987C19.027 8.16416 20.5314 8.47979 21.8949 9.13917C22.4109 7.56047 22.5504 5.88308 22.3022 4.24092Z" fill="url(#paint5_linear)"/>
<path d="M9.09387 3.83392C7.51963 3.27224 5.82928 3.11538 4.17847 3.37778C4.05703 3.52704 3.92055 3.66343 3.7712 3.7848C1.54635 6.02643 0.228479 9.01038 0.0706024 12.1637C0.372134 11.7353 0.713008 11.3359 1.08879 10.9708C2.02145 10.0365 3.13722 9.30489 4.36612 8.82186C5.59502 8.33882 6.91054 8.11476 8.23016 8.16374C8.18784 6.67386 8.4831 5.19369 9.09387 3.83392Z" fill="url(#paint6_linear)"/>
<path d="M3.84139 9.08302C2.82281 9.54686 1.90452 10.2047 1.13793 11.0199C0.745329 11.3651 0.387812 11.7483 0.070582 12.1637V12.7743C0.0503895 15.9697 1.2335 19.0559 3.38496 21.4199C3.12841 19.8554 3.25924 18.252 3.76602 16.7498C4.2728 15.2475 5.14009 13.8922 6.29207 12.8023C5.19537 11.7712 4.35599 10.4973 3.84139 9.08302Z" fill="url(#paint7_linear)"/>
<path d="M11.0319 24.5287C10.0984 23.5956 9.36729 22.4804 8.88404 21.2525C8.4008 20.0246 8.17582 18.7104 8.22313 17.3918C6.71288 17.441 5.21147 17.1433 3.83439 16.5216C3.44729 17.5824 3.25693 18.7049 3.27263 19.8339C3.27532 20.3662 3.32703 20.8971 3.42711 21.4199L3.78523 21.876C6.03568 24.1167 9.03864 25.4421 12.2116 25.5953C11.7837 25.2801 11.3885 24.9228 11.0319 24.5287Z" fill="url(#paint8_linear)"/>
<path d="M19.8586 22.3883C18.542 22.3787 17.241 22.1027 16.0342 21.5768C14.8273 21.0509 13.7396 20.2862 12.8366 19.3286C11.8196 20.4406 10.5401 21.2802 9.11491 21.7708C9.57715 22.7898 10.2357 23.7078 11.053 24.4725C11.4213 24.8525 11.8258 25.1957 12.2608 25.4971H12.8717C16.0554 25.4996 19.1264 24.3191 21.4877 22.1848C20.9555 22.3215 20.4081 22.3899 19.8586 22.3883Z" fill="url(#paint9_linear)"/>
<path d="M24.5493 14.6409C23.6254 15.5731 22.5181 16.3039 21.2975 16.787C20.0768 17.2701 18.7692 17.4952 17.4571 17.4479C17.5162 18.9625 17.2027 20.4685 16.5442 21.8339C17.5861 22.2213 18.6909 22.4116 19.8024 22.3953C20.3327 22.393 20.8617 22.3413 21.3824 22.2409C21.5306 22.116 21.6691 21.9799 21.7967 21.8339C24.0387 19.5849 25.365 16.5838 25.5183 13.4129C25.2421 13.857 24.9171 14.2689 24.5493 14.6409Z" fill="url(#paint10_linear)"/>
<path d="M21.8388 16.5216C22.8466 16.0638 23.7627 15.4265 24.5422 14.6409C24.9176 14.2652 25.2583 13.8566 25.5604 13.4199V12.8023C25.5578 9.64524 24.3959 6.59888 22.2952 4.24094C22.5675 5.79712 22.4439 7.39674 21.936 8.89275C21.428 10.3888 20.5518 11.7331 19.3881 12.8023C20.4818 13.836 21.3207 15.1091 21.8388 16.5216Z" fill="url(#paint11_linear)"/>
<path d="M60.3404 29.876L59.9893 30.9497H59.5258L60.6494 27.6374H61.162L62.2785 30.9497H61.822L61.4639 29.876H60.3404ZM61.4148 29.5181L61.0566 28.5497L60.9022 27.9392L60.7477 28.5497L60.3966 29.5181H61.4148Z" fill="#005181"/>
<path d="M62.9456 29.7778C62.9349 29.8746 62.9435 29.9726 62.971 30.0661C62.9985 30.1596 63.0442 30.2467 63.1056 30.3225C63.167 30.3982 63.2428 30.4609 63.3286 30.5072C63.4145 30.5534 63.5086 30.5822 63.6057 30.5918H63.7601C63.9833 30.5808 64.2047 30.5455 64.4202 30.4865L64.4764 30.7953C64.2148 30.8983 63.936 30.9507 63.6548 30.9497C63.3577 30.9593 63.0687 30.8523 62.8495 30.6517C62.6304 30.451 62.4985 30.1726 62.4821 29.876V29.7076C62.4656 29.5568 62.479 29.4043 62.5216 29.2588C62.5643 29.1132 62.6353 28.9775 62.7305 28.8595C62.8258 28.7415 62.9435 28.6434 63.0768 28.571C63.2101 28.4985 63.3564 28.4531 63.5074 28.4374H63.6057C63.7407 28.4399 63.8737 28.4699 63.9967 28.5256C64.1197 28.5814 64.2299 28.6617 64.3207 28.7616C64.4115 28.8615 64.4808 28.9789 64.5245 29.1066C64.5682 29.2343 64.5853 29.3695 64.5747 29.5041V29.8128H62.9456V29.7778ZM64.2166 29.469C64.2357 29.31 64.1944 29.1496 64.1007 29.0196C64.0071 28.8896 63.868 28.7995 63.711 28.7672H63.6548C63.4815 28.7921 63.3218 28.8751 63.2018 29.0026C63.0819 29.1301 63.0089 29.2946 62.9947 29.469H64.2166Z" fill="#005181"/>
<path d="M65.649 27.9392V28.5006H66.2599V28.8585H65.649V30.1287C65.649 30.4374 65.7473 30.5918 65.951 30.5918C66.0413 30.6006 66.1322 30.581 66.2108 30.5357V30.8936C66.0786 30.9431 65.937 30.9623 65.7965 30.9497C65.71 30.9522 65.624 30.9353 65.545 30.9C65.466 30.8648 65.3959 30.8122 65.3401 30.7462C65.2674 30.6627 65.2156 30.5633 65.1887 30.4559C65.1619 30.3486 65.1608 30.2365 65.1856 30.1287V28.8585H64.8275V28.5006H65.1856V28.0444L65.649 27.9392Z" fill="#005181"/>
<path d="M66.7164 29.1602V28.5006H67.1237L67.1728 28.9076C67.2524 28.7616 67.3719 28.6411 67.5174 28.5604C67.6628 28.4796 67.8283 28.4418 67.9944 28.4514C68.1226 28.4513 68.2493 28.4786 68.3661 28.5314C68.4829 28.5843 68.587 28.6615 68.6715 28.7579C68.7559 28.8542 68.8188 28.9676 68.8558 29.0902C68.8929 29.2129 68.9032 29.342 68.8862 29.469V30.8725H68.4298V29.469C68.4298 29.062 68.2753 28.7672 67.868 28.7672C67.7373 28.7713 67.6115 28.8181 67.51 28.9005C67.4086 28.9829 67.337 29.0963 67.3062 29.2234V30.8514H66.8498L66.7164 29.1602Z" fill="#005181"/>
<path d="M71.049 30.3322C71.0369 30.5211 71.0559 30.7108 71.1051 30.8936H70.6979L70.6417 30.5918C70.5636 30.7051 70.4585 30.7971 70.3359 30.8596C70.2133 30.922 70.0771 30.953 69.9395 30.9497C69.8526 30.9564 69.7652 30.9456 69.6825 30.918C69.5998 30.8904 69.5235 30.8465 69.4581 30.7889C69.3926 30.7314 69.3394 30.6613 69.3015 30.5829C69.2635 30.5044 69.2417 30.4192 69.2373 30.3322V30.283C69.2373 29.7216 69.7499 29.3637 70.6417 29.3637V29.3146C70.6979 29.062 70.438 28.8094 70.1853 28.7532H70.0799C69.8664 28.7517 69.6561 28.8049 69.469 28.9076L69.3707 28.6059C69.616 28.4581 69.899 28.385 70.1853 28.3953C70.3127 28.386 70.4407 28.4051 70.5599 28.4512C70.6791 28.4973 70.7866 28.5693 70.8746 28.6619C70.9626 28.7546 71.0289 28.8656 71.0688 28.9869C71.1086 29.1083 71.1211 29.237 71.1051 29.3637L71.049 30.3322ZM70.5925 29.6725C70.1361 29.6725 69.5743 29.7778 69.5743 30.2339C69.5703 30.3347 69.6053 30.4332 69.672 30.509C69.7386 30.5848 69.8319 30.632 69.9325 30.6409H69.9816C70.1111 30.636 70.2367 30.5954 70.3445 30.5236C70.4524 30.4517 70.5382 30.3515 70.5925 30.2339V29.7076V29.6725Z" fill="#005181"/>
<path d="M73.1415 26.9006V31.8129H72.8396V26.9006H73.1415Z" fill="#5092CE"/>
<path d="M75.3323 27.6023V30.9146H74.8759V27.6023H75.3323Z" fill="#005181"/>
<path d="M75.845 29.1602V28.5006H76.2522L76.3014 28.9076C76.381 28.7616 76.5005 28.6411 76.6459 28.5604C76.7914 28.4796 76.9568 28.4418 77.123 28.4514C77.2512 28.4513 77.3779 28.4786 77.4947 28.5314C77.6115 28.5843 77.7156 28.6615 77.8 28.7579C77.8845 28.8542 77.9474 28.9676 77.9844 29.0902C78.0214 29.2129 78.0318 29.342 78.0148 29.469V30.8725H77.5583V29.469C77.5583 29.062 77.4038 28.7672 76.9966 28.7672C76.8655 28.7701 76.7392 28.8165 76.6375 28.8991C76.5357 28.9817 76.4644 29.0958 76.4348 29.2234C76.4348 29.2725 76.3857 29.3778 76.3857 29.4269V30.8304H75.9082L75.845 29.1602Z" fill="#005181"/>
<path d="M79.4683 30.9497C79.1682 30.9417 78.8818 30.8223 78.665 30.6147C78.4482 30.4071 78.3165 30.1262 78.2957 29.8269V29.7076C78.2792 29.5536 78.2941 29.3979 78.3393 29.2497C78.3846 29.1016 78.4592 28.9641 78.5589 28.8455C78.6586 28.7269 78.7811 28.6297 78.9193 28.5595C79.0575 28.4894 79.2084 28.4479 79.363 28.4374H79.4683C79.7693 28.4388 80.0584 28.5551 80.2765 28.7625C80.4945 28.9699 80.6249 29.2528 80.641 29.5532V29.7076C80.6554 29.8621 80.639 30.018 80.5927 30.1662C80.5463 30.3144 80.471 30.4519 80.371 30.5707C80.2711 30.6895 80.1485 30.7873 80.0104 30.8584C79.8723 30.9295 79.7215 30.9724 79.5666 30.9848C79.5535 30.9976 79.5359 31.0048 79.5175 31.0048C79.4991 31.0048 79.4815 30.9976 79.4683 30.9848V30.9497ZM79.4683 30.6409C79.8756 30.6409 80.1705 30.2339 80.1705 29.7216C80.1705 29.2093 79.9669 28.8093 79.4683 28.8093C78.9698 28.8093 78.7661 29.2655 78.7661 29.7216C78.7661 30.1778 79.0681 30.6409 79.4683 30.6409Z" fill="#005181"/>
<path d="M81.3011 28.5006L81.7575 29.8269C81.8504 30.0212 81.9188 30.2263 81.9611 30.4374C82.0099 30.228 82.0781 30.0236 82.1648 29.8269L82.6282 28.5006H83.0847L82.1648 30.8936H81.7575L80.8236 28.5006H81.3011Z" fill="#005181"/>
<path d="M85.1281 30.3322C85.1174 30.5207 85.134 30.7098 85.1772 30.8936H84.77L84.7208 30.5918C84.6418 30.7042 84.5366 30.7955 84.4142 30.8579C84.2918 30.9203 84.156 30.9518 84.0186 30.9497C83.9317 30.9564 83.8443 30.9456 83.7616 30.918C83.6789 30.8904 83.6026 30.8465 83.5372 30.7889C83.4717 30.7314 83.4185 30.6613 83.3806 30.5829C83.3427 30.5044 83.3208 30.4192 83.3164 30.3322V30.283C83.3164 29.7216 83.829 29.3637 84.7208 29.3637V29.3146C84.77 29.062 84.5102 28.8094 84.2574 28.7532H84.1591C83.9454 28.7507 83.7349 28.804 83.5481 28.9076L83.4428 28.6059C83.6884 28.4589 83.9712 28.3858 84.2574 28.3953C84.3848 28.386 84.5128 28.4051 84.632 28.4512C84.7512 28.4973 84.8587 28.5693 84.9467 28.6619C85.0347 28.7546 85.101 28.8656 85.1409 28.9869C85.1808 29.1083 85.1932 29.237 85.1772 29.3637L85.1281 30.3322ZM84.7208 29.6725C84.2574 29.6725 83.6956 29.7778 83.6956 30.2339C83.6916 30.3347 83.7265 30.4332 83.7932 30.509C83.8599 30.5848 83.9532 30.632 84.0537 30.6409H84.1029C84.2291 30.6484 84.3541 30.6119 84.4565 30.5377C84.5589 30.4635 84.6324 30.3562 84.6646 30.2339V30.0795L84.7208 29.6725Z" fill="#005181"/>
<path d="M87.1434 28.5497C87.3443 28.509 87.5494 28.4925 87.7543 28.5006C87.9914 28.4889 88.2251 28.5609 88.4144 28.7041C88.4833 28.7697 88.5371 28.8495 88.5723 28.9379C88.6074 29.0264 88.623 29.1213 88.618 29.2164C88.623 29.3103 88.6073 29.4042 88.5721 29.4915C88.5369 29.5788 88.4831 29.6573 88.4144 29.7216C88.3209 29.8099 88.2105 29.8785 88.0898 29.9231C87.9691 29.9677 87.8407 29.9875 87.7122 29.9813H87.4524V30.9497H87.1434V28.5497ZM87.4453 29.7216H87.7051C88.0633 29.7216 88.3161 29.5672 88.3161 29.2164C88.3161 28.8655 88.1124 28.7532 87.7543 28.7532H87.4453V29.7216Z" fill="#5092CE"/>
<path d="M89.0533 30.1848L88.7935 30.9497H88.4916L89.3061 28.5006H89.6643L90.4788 30.8935H90.1769L89.9522 30.1286L89.0533 30.1848ZM89.8679 29.9251L89.6151 29.2655C89.5603 29.1357 89.5248 28.9985 89.5098 28.8585C89.4606 29.0128 89.4606 29.1602 89.4115 29.2655L89.1516 29.9251H89.8679Z" fill="#5092CE"/>
<path d="M90.7316 28.5497C90.9349 28.509 91.1424 28.4925 91.3496 28.5006C91.4743 28.4839 91.6012 28.4934 91.7221 28.5284C91.843 28.5634 91.9553 28.6233 92.0518 28.7041C92.1693 28.8288 92.241 28.9896 92.2554 29.1602C92.2476 29.2964 92.2002 29.4272 92.1192 29.5369C92.0381 29.6466 91.9269 29.7303 91.799 29.7778C91.8898 29.8211 91.9694 29.8848 92.0315 29.9639C92.0936 30.043 92.1366 30.1354 92.1571 30.2339C92.1991 30.461 92.2674 30.6823 92.3607 30.8936H92.0588C92.0096 30.6901 91.9605 30.5357 91.9043 30.3322C91.8481 30.1287 91.7007 29.876 91.4479 29.876H91.1389V30.8936H90.837V28.5497H90.7316ZM91.0406 29.6234H91.3566C91.6585 29.6234 91.9113 29.469 91.9113 29.1602C91.9113 28.8515 91.7077 28.7041 91.3566 28.7041C91.2512 28.697 91.1456 28.7138 91.0476 28.7532L91.0406 29.6234Z" fill="#5092CE"/>
<path d="M93.0769 28.8093H92.3747V28.5006H94.1653V28.7532H93.3999V30.8585H93.091L93.0769 28.8093Z" fill="#5092CE"/>
<path d="M94.4603 30.8936V28.5006H94.8114L95.5698 29.7076C95.7258 29.9513 95.862 30.2071 95.9771 30.4725C95.9771 30.1707 95.9279 29.862 95.9279 29.5041V28.5006H96.272V30.8936H95.963L95.1695 29.7076C95.0151 29.455 94.8676 29.1953 94.7131 28.8935V30.8795L94.4603 30.8936Z" fill="#5092CE"/>
<path d="M97.873 29.7778H96.9742V30.6409H97.9994V30.8936H96.6722V28.5006H97.9432V28.7532H96.9742V29.5181H97.894L97.873 29.7778Z" fill="#5092CE"/>
<path d="M98.3294 28.5497C98.5328 28.509 98.7402 28.4925 98.9474 28.5006C99.1974 28.4904 99.4438 28.5618 99.6496 28.7041C99.7671 28.8288 99.8389 28.9896 99.8532 29.1602C99.8454 29.2964 99.7981 29.4272 99.717 29.5369C99.6359 29.6466 99.5247 29.7303 99.3968 29.7778C99.4876 29.8211 99.5672 29.8848 99.6293 29.9639C99.6914 30.043 99.7344 30.1354 99.7549 30.2339C99.7969 30.461 99.8652 30.6823 99.9586 30.8936H99.6496C99.6004 30.6901 99.5513 30.5357 99.4951 30.3322C99.4944 30.2682 99.4805 30.2051 99.4541 30.1468C99.4278 30.0885 99.3897 30.0363 99.3422 29.9935C99.2947 29.9506 99.2389 29.9181 99.1782 29.8978C99.1175 29.8776 99.0532 29.8702 98.9895 29.876H98.6805V30.8936H98.3786L98.3294 28.5497ZM98.6384 29.6234H98.9474C99.2493 29.6234 99.5021 29.469 99.5021 29.1602C99.5021 28.8515 99.2985 28.7041 98.9474 28.7041C98.842 28.697 98.7364 28.7138 98.6384 28.7532V29.6234Z" fill="#5092CE"/>
<path d="M100.169 30.5357C100.337 30.6411 100.533 30.6948 100.731 30.69C101.033 30.69 101.237 30.5357 101.237 30.283C101.237 30.0304 101.138 29.9251 100.78 29.8269C100.614 29.7955 100.464 29.7092 100.353 29.5819C100.242 29.4546 100.177 29.2937 100.169 29.1251C100.193 28.9514 100.276 28.7911 100.403 28.671C100.531 28.5509 100.696 28.4784 100.871 28.4655H100.928C101.101 28.4727 101.271 28.5083 101.433 28.5707L101.335 28.8234C101.196 28.7391 101.033 28.7022 100.871 28.7181C100.764 28.7062 100.655 28.737 100.57 28.8039C100.485 28.8708 100.429 28.9685 100.415 29.076C100.415 29.2304 100.569 29.3848 100.871 29.5322C101.173 29.6795 101.489 29.89 101.489 30.2339C101.489 30.5778 101.229 30.9357 100.668 30.9357C100.455 30.9311 100.246 30.8783 100.057 30.7813L100.169 30.5357Z" fill="#5092CE"/>
<path d="M102.262 28.5006V29.5181H103.434V28.5006H103.736V30.8936H103.434V29.7778H102.262V30.8936H101.953V28.5006H102.262Z" fill="#5092CE"/>
<path d="M104.453 28.5006V30.8936H104.144V28.5006H104.453Z" fill="#5092CE"/>
<path d="M104.86 28.5497C105.061 28.509 105.266 28.4925 105.471 28.5006C105.708 28.4889 105.942 28.5609 106.131 28.7041C106.199 28.7707 106.253 28.8505 106.289 28.9386C106.325 29.0266 106.343 29.1212 106.342 29.2164C106.346 29.3109 106.329 29.4051 106.292 29.4924C106.256 29.5797 106.201 29.658 106.131 29.7216C106.037 29.8099 105.927 29.8785 105.806 29.9231C105.686 29.9677 105.557 29.9875 105.429 29.9813H105.169V30.9497H104.867L104.86 28.5497ZM105.162 29.7216H105.401C105.759 29.7216 106.012 29.5672 106.012 29.2164C106.012 28.8655 105.808 28.7532 105.45 28.7532H105.141L105.162 29.7216Z" fill="#5092CE"/>
<path d="M109.347 16.8795C109.349 16.9869 109.329 17.0937 109.289 17.1933C109.249 17.2929 109.189 17.3834 109.113 17.4594C109.037 17.5353 108.946 17.5952 108.846 17.6355C108.747 17.6757 108.64 17.6955 108.532 17.6936C108.316 17.7075 108.104 17.6351 107.941 17.4924C107.778 17.3496 107.679 17.1481 107.665 16.9322C107.651 16.7163 107.724 16.5037 107.866 16.3411C108.009 16.1786 108.211 16.0794 108.427 16.0655H108.582C108.79 16.0746 108.987 16.1648 109.13 16.3169C109.273 16.469 109.351 16.6709 109.347 16.8795ZM107.943 16.8795C107.943 17.0003 107.978 17.1183 108.045 17.2187C108.113 17.3191 108.208 17.3974 108.32 17.4436C108.431 17.4898 108.554 17.5019 108.673 17.4783C108.791 17.4548 108.9 17.3966 108.985 17.3112C109.071 17.2258 109.129 17.1171 109.153 16.9986C109.176 16.8802 109.164 16.7574 109.118 16.6459C109.072 16.5343 108.993 16.439 108.893 16.3719C108.792 16.3048 108.674 16.269 108.553 16.269C108.472 16.265 108.391 16.278 108.315 16.3073C108.239 16.3365 108.17 16.3814 108.113 16.4389C108.055 16.4964 108.01 16.5653 107.981 16.6412C107.952 16.7171 107.938 16.7983 107.943 16.8795ZM108.448 17.3427H108.209V16.5216H108.518C108.617 16.5216 108.722 16.5216 108.771 16.5778C108.82 16.6339 108.876 16.7813 108.82 16.8795C108.764 16.9778 108.771 16.9357 108.722 16.9357C108.82 16.9848 108.876 17.0339 108.876 17.1392C108.876 17.2444 108.926 17.2865 108.926 17.3427H108.722C108.683 17.2822 108.666 17.2106 108.673 17.1392C108.673 17.0339 108.617 17.0339 108.518 17.0339H108.413V17.3427H108.448ZM108.448 16.8795H108.553C108.652 16.8795 108.757 16.8304 108.757 16.7813C108.757 16.7322 108.708 16.676 108.603 16.676H108.497V16.8795H108.448Z" fill="#5092CE"/>
<defs>
<linearGradient id="paint0_linear" x1="42.0411" y1="7.70057" x2="42.0411" y2="12.2269" gradientUnits="userSpaceOnUse">
<stop stop-color="#063057"/>
<stop offset="1" stop-color="#005181"/>
</linearGradient>
<linearGradient id="paint1_linear" x1="494.719" y1="47.7892" x2="494.719" y2="95.4972" gradientUnits="userSpaceOnUse">
<stop stop-color="#063057"/>
<stop offset="1" stop-color="#005181"/>
</linearGradient>
<linearGradient id="paint2_linear" x1="1340.05" y1="31.5431" x2="1436.39" y2="31.5431" gradientUnits="userSpaceOnUse">
<stop stop-color="#063057"/>
<stop offset="1" stop-color="#005181"/>
</linearGradient>
<linearGradient id="paint3_linear" x1="1040.06" y1="47.8017" x2="1040.06" y2="95.5271" gradientUnits="userSpaceOnUse">
<stop stop-color="#063057"/>
<stop offset="1" stop-color="#005181"/>
</linearGradient>
<linearGradient id="paint4_linear" x1="12.8436" y1="9.30759" x2="12.8436" y2="3.44092" gradientUnits="userSpaceOnUse">
<stop stop-color="#A7A9AC"/>
<stop offset="1" stop-color="#E4E5E6"/>
</linearGradient>
<linearGradient id="paint5_linear" x1="17.2253" y1="5.19531" x2="22.4633" y2="6.60048" gradientUnits="userSpaceOnUse">
<stop stop-color="#A5D7F4"/>
<stop offset="1" stop-color="#55A8D8"/>
</linearGradient>
<linearGradient id="paint6_linear" x1="4.36104" y1="8.83041" x2="5.84093" y2="3.2931" gradientUnits="userSpaceOnUse">
<stop stop-color="#005181"/>
<stop offset="1" stop-color="#063057"/>
</linearGradient>
<linearGradient id="paint7_linear" x1="3.97481" y1="15.6936" x2="0.55063" y2="11.6072" gradientUnits="userSpaceOnUse">
<stop stop-color="#5092CE"/>
<stop offset="1" stop-color="#296EA9"/>
</linearGradient>
<linearGradient id="paint8_linear" x1="120.742" y1="241.186" x2="53.8565" y2="235.371" gradientUnits="userSpaceOnUse">
<stop stop-color="#A5D7F4"/>
<stop offset="1" stop-color="#55A8D8"/>
</linearGradient>
<linearGradient id="paint9_linear" x1="14.9642" y1="22.3672" x2="9.90514" y2="28.4055" gradientUnits="userSpaceOnUse">
<stop stop-color="#E4E5E6"/>
<stop offset="1" stop-color="#A7A9AC"/>
</linearGradient>
<linearGradient id="paint10_linear" x1="295.729" y1="181.403" x2="283.23" y2="252.278" gradientUnits="userSpaceOnUse">
<stop stop-color="#005181"/>
<stop offset="1" stop-color="#063057"/>
</linearGradient>
<linearGradient id="paint11_linear" x1="216.224" y1="111.329" x2="271.351" y2="150.928" gradientUnits="userSpaceOnUse">
<stop stop-color="#5092CE"/>
<stop offset="1" stop-color="#296EA9"/>
</linearGradient>
</defs>
</svg>
