<svg width="245" height="41" viewBox="0 0 245 41" fill="none" xmlns="http://www.w3.org/2000/svg">
<path d="M61.2 18.6C61.2 11.8 64.7 6.29999 72.5 6.29999C77.8 6.29999 82.9 10.5 82.9 17.9C82.9 23.8 79.3 27.9 76.3 28.5C78.1 29.1 81.4 29.4 83.7 29.4V30.9C83.7 32.3 83.1 33.1 81.2 33.1C77.8 33.1 72.7 31.7 69.8 30.1C66 29.3 61.2 25.6 61.2 18.6ZM71.9 10.4C68.2 10.4 66 13.4 66 17.9C66 23.5 68.4 26.3 72.5 26.3C76 26.3 78.1 22.9 78.1 18.5C78.1 13.2 76.2 10.4 71.9 10.4Z" fill="white"/>
<path d="M92.2 30.3C87.7 30.3 84.2 27.3 84.2 22V11.6H85C87.6 11.6 88.8 12.7 88.8 14.8V21.5C88.8 24.8 90.4 26.2 92.5 26.2C94.4 26.2 95.7 24.9 95.7 21.8V11.6H96.5C99.1 11.6 100.3 12.7 100.3 14.8V21.6C100.2 27.4 97.6 30.3 92.2 30.3Z" fill="white"/>
<path d="M110.1 11.2C115.6 11.2 118.7 15.6 118.7 20.4C118.7 25.9 115.6 30.2 109.7 30.2C104.2 30.2 101.1 25.8 101.1 21C101.1 15.6 104.3 11.2 110.1 11.2ZM109.7 15.3C107.1 15.3 105.8 17.5 105.8 20.5C105.8 24.1 107.1 26.3 110.1 26.3C112.7 26.3 114 24.1 114 21.2C114.1 17.4 112.7 15.3 109.7 15.3Z" fill="white"/>
<path d="M121.1 8.69999C121.7 7.99999 122.5 7.39999 123.2 7.39999H124.2V11.5H130.5V13.4C130.5 14.3 129.7 15.6 127.8 15.6H124.2V22.7C124.2 25.1 125.2 26 127.1 26C128.6 26 129.7 25.8 130.4 25.4H130.6V27C130.6 28.9 129.2 30 126.6 30C122 30 119.8 27.5 119.8 23.2V12.2C119.8 10.6 120.1 9.89999 121.1 8.69999Z" fill="white"/>
<path d="M137.5 22.7H134.5C134.8 25 136.9 26.5 139.6 26.5C141.5 26.5 143.7 26.1 145.2 24.8H145.4V26.2C145.4 28.5 143.8 30.3 138.8 30.3C134.3 30.3 129.8 26.7 129.8 21.1C129.8 15 133.5 11.2 138.7 11.2C142.5 11.2 146 13.9 146 18.3C146 21.6 143.5 22.7 137.5 22.7ZM138.3 15C136.1 15 134.6 16.8 134.5 18.9V19.5H136.5C140.8 19.5 141.8 19 141.8 17.7C141.8 15.9 140.4 15 138.3 15Z" fill="white"/>
<path d="M162.5 30.3C156.3 30.3 150.9 25.8 150.9 18.6C150.9 11.8 155.7 6.29999 163.6 6.29999C167.9 6.29999 169.8 8.69999 169.8 10.9V12.5H169.6C168 11.2 165.4 10.5 163 10.5C158.7 10.5 155.6 13.6 155.6 17.9C155.6 23.7 158.8 26 162.9 26C165.1 26 165.7 25.2 165.7 23.8V22C165.7 20.5 165.5 19.3 165.4 18.6H167.8C169.1 18.6 170.2 19.7 170.2 20.7V24.4C170.2 28 168.3 30.3 162.5 30.3Z" fill="white"/>
<path d="M178 22.7H175C175.3 25 177.4 26.5 180.1 26.5C182 26.5 184.2 26.1 185.7 24.8H185.9V26.2C185.9 28.5 184.3 30.3 179.3 30.3C174.8 30.3 170.3 26.7 170.3 21.1C170.3 15 174 11.2 179.2 11.2C183 11.2 186.5 13.9 186.5 18.3C186.5 21.6 184 22.7 178 22.7ZM178.8 15C176.6 15 175.1 16.8 175 18.9V19.5H177C181.3 19.5 182.3 19 182.3 17.7C182.3 15.9 180.9 15 178.8 15Z" fill="white"/>
<path d="M202.2 29.9C200.2 29.9 198.9 28.6 198.9 26.9V19.7C198.9 16.6 197.5 15.3 195.2 15.3C193.2 15.3 191.9 16.8 191.9 19.4V29.9H190.5C188.6 29.9 187.3 28.6 187.3 26.9V19C187.3 15.1 189.8 11.2 195.5 11.2C199.8 11.2 203.3 14.1 203.3 19.2V29.8H202.2V29.9Z" fill="white"/>
<path d="M207.9 10.3C206.4 10.3 205.3 9.1 205.3 7.6C205.3 6.1 206.5 5 207.9 5C209.3 5 210.6 6.2 210.6 7.6C210.6 9 209.4 10.3 207.9 10.3ZM211.2 30.1C207.7 30.1 205.8 28.1 205.8 24.4V12H207.1C209.1 12 210.3 13.1 210.3 15.4V23.9C210.3 25.7 211.1 26.3 213.1 26.3H213.9V27.3C213.9 29.3 213.1 30.1 211.2 30.1Z" fill="white"/>
<path d="M221.8 30.3C217.3 30.3 213.8 27.3 213.8 22V11.6H214.6C217.2 11.6 218.4 12.7 218.4 14.8V21.5C218.4 24.8 220 26.2 222.1 26.2C224 26.2 225.3 24.9 225.3 21.8V11.6H226.1C228.7 11.6 229.9 12.7 229.9 14.8V21.6C229.7 27.4 227.1 30.3 221.8 30.3Z" fill="white"/>
<path d="M237 30.3C233.7 30.3 231.2 28.6 231.2 26.7V24.6H231.4C232.4 25.5 234.7 26.3 236.9 26.3C239.1 26.3 240.2 25.7 240.2 24.3C240.2 23.3 239.6 22.7 236.4 22.3C232.5 21.8 230.7 20.2 230.7 17.5C230.7 14.1 233.8 11.2 238.4 11.2C242.5 11.2 244.2 13.3 244.2 15.1V16.8H244C243.1 15.9 241 15.1 238.8 15.1C236 15.1 235.1 15.9 235.1 17.1C235.1 18 235.6 18.4 238.8 18.9C242.6 19.5 244.6 21.2 244.6 24.1C244.6 28 241.9 30.3 237 30.3Z" fill="white"/>
<path d="M18.4 31.2C16.4 31.1 14 31.4 11.6 31C4.79998 29.8 0.0999766 23.8 0.699977 17C1.29998 10.3 6.99998 5.10001 13.8 5.30001C15.7 5.40001 16.9 4.90001 18.4 3.70001C23.4 -0.299987 30.2 0.100013 35 4.50001C35.7 5.10001 36.2 5.60001 37.3 5.50001C44.7 4.80001 51.1 10 51.7 17.1C52.3 24.4 46.8 30.8 39.4 31.1C37.5 31.2 36.4 31.8 35.5 33.3C33.9 35.8 31.9 38 29.3 39.6C28.6 40 27.8 40.5 27 40C26.1 39.5 26.2 38.7 26.2 37.8C26.3 36.2 26.3 34.5 26.4 32.9C26.5 31.6 26 31 24.6 31.1C22.6 31.2 20.7 31.2 18.4 31.2ZM29.9 34.9C31.3 33.7 32.4 32.6 33 31.2C34.3 28.5 36.2 27.6 39.2 27.7C43.3 27.9 46.2 25.6 47.8 21.7C49.3 18.2 48.4 14.1 45.6 11.4C42.6 8.50001 39.1 8.00001 35.2 9.30001C32.8 10.1 32.7 10.5 33.9 12.8C34.3 13.7 34.7 14.5 33.7 15.2C32.6 15.9 32.1 15 31.6 14.2C30.1 11.8 28 10.8 25.1 11.4C24.2 11.6 23.2 11.8 22.9 10.6C22.7 9.50001 23.5 9.10001 24.4 8.80001C25.7 8.50001 27 8.30001 28.4 8.80001C30.2 9.40001 31.6 8.10001 32.1 7.00001C32.6 6.00001 30.8 5.50001 29.9 5.10001C25.3 3.10001 20 5.00001 17.6 9.50001C16.9 10.8 16.6 11.7 18.5 12.4C20.3 13 21.3 14.5 22 16.3C22.3 17.1 22.3 17.8 21.4 18.2C20.6 18.6 20 18.2 19.6 17.5C17.2 13.6 15.8 13.4 12 16.1C11.3 16.6 10.7 16.8 9.99998 16.1C9.39998 15.5 9.59998 14.9 9.99998 14.3C10.7 13.3 11.7 12.7 12.8 12.1C14.1 11.4 14.3 10 14 9.00001C13.7 8.00001 12.5 8.60001 11.7 8.80001C6.89998 9.80001 3.39998 14.3 3.89998 18.8C4.39998 24.1 8.29998 27.7 13.5 27.8C17.9 27.9 22.3 27.8 26.7 27.8C28.3 27.8 29.3 28.4 29.4 30.1C29.5 31.6 29.7 33.1 29.9 34.9Z" fill="white"/>
<path d="M24.8 22.3C27.3 22.5 28.7 21.4 29 19C29.1 18 29.3 16.9 30.6 17.1C32 17.3 31.7 18.5 31.8 19.6C31.8 20.5 30.6 21.6 31.6 22.2C32.7 22.9 34.2 22.6 35.5 22C37.6 21 38.7 19.1 38.4 16.8C38.3 16.2 38.3 15.6 38.4 15C38.6 14 38.8 12.7 40.2 12.9C41.6 13.1 41.3 14.2 41.1 15.2C40.8 17.1 41.8 18.2 43.5 18.6C44.5 18.8 45.4 19.1 45.1 20.3C44.8 21.6 43.7 21.6 42.8 21.2C41.3 20.5 40.4 20.9 39.4 22.3C37.2 25.1 34.1 25.8 30.7 24.8C29.5 24.4 28.5 24.2 27.3 24.8C26.5 25.2 25.5 25.2 24.7 25C23.7 24.8 22.6 24.6 22.8 23.3C23 22.1 23.9 21.9 24.8 22.3Z" fill="white"/>
<path d="M12.8999 24.5C10.8999 24.4 9.19995 23.7 7.79995 22.2C7.19995 21.6 6.99995 20.9 7.59995 20.2C8.19995 19.5 8.89995 19.6 9.49995 20.2C11.3999 22 13.2999 22.3 15.4999 20.8C16.1999 20.3 16.8999 20.5 17.3999 21.2C17.7999 21.9 17.4999 22.5 16.9999 23C15.8999 24 14.4999 24.4 12.8999 24.5Z" fill="white"/>
</svg>
