<svg width="315" height="172" xmlns="http://www.w3.org/2000/svg" xmlns:xlink="http://www.w3.org/1999/xlink"><defs><path id="a" d="M.06.77h279.045v114.652H.06z"/></defs><g fill="none" fill-rule="evenodd"><path d="M57.573 26.133c-26.996 0-48.96 21.963-48.96 48.961 0 26.997 21.964 48.962 48.96 48.962h204.073c26.994 0 48.959-21.965 48.959-48.962 0-26.998-21.965-48.961-48.959-48.961H57.573" fill="#FFFFFE"/><path d="M57.573 26.133c-26.996 0-48.96 21.963-48.96 48.961 0 26.997 21.964 48.962 48.96 48.962h204.073c26.994 0 48.959-21.965 48.959-48.962 0-26.998-21.965-48.961-48.959-48.961H57.573zm204.073 102.094H57.573c-29.296 0-53.13-23.837-53.13-53.133 0-29.296 23.834-53.131 53.13-53.131h204.073c29.296 0 53.13 23.835 53.13 53.131s-23.834 53.133-53.13 53.133z" fill="#BFC0BF"/><g fill="#1A1919"><path d="M244.167 82.071a7.36 7.36 0 110-14.721 7.361 7.361 0 110 14.721m0-21.709c-7.922 0-14.346 6.425-14.346 14.351 0 7.922 6.424 14.342 14.346 14.342 7.927 0 14.347-6.42 14.347-14.342 0-7.926-6.42-14.351-14.347-14.351M178.366 82.071a7.359 7.359 0 01-7.357-7.358 7.36 7.36 0 117.357 7.358m0-21.709c-7.922 0-14.345 6.425-14.345 14.351 0 7.922 6.423 14.342 14.345 14.342 7.927 0 14.352-6.42 14.352-14.342 0-7.926-6.425-14.351-14.352-14.351M228.896 82.472c-.907.264-2.295.524-2.823.524-2.452 0-2.986-.845-2.986-3.192V66.549h5.866V61.01h-5.866v-7.83h-6.6l-1.387 7.83h-4.598v.004h-.374c-3.76.018-6.596 2.312-8.415 5.905l-2.295-5.909h-4.733v27.53h8.089V76.562c0-6.037 3.567-9.894 7.795-10.013h4.425v13.686c0 6.442 3.302 8.838 8.679 8.838 2.775 0 4.902-.586 6.178-1.009l-.955-5.592M268.315 69.719v18.82h-7.864v-27.53h4.773l1.599 4.205"/><path d="M266.788 66.241c2.391-2.774 5.662-4.875 9.494-4.875 6.552 0 9.247 5.223 9.247 10.067V89.54h-8.098V71.666c0-2.36-1.964-3.641-4.095-3.641-2.268 0-3.726 1.299-5.007 2.686M141.482 53.044L153.86 76.62V53.044h7.466v37.5h-8.167l-13.222-25.923v25.923h-7.469v-37.5z"/></g><g fill="#9E9F9E"><path d="M302.418 23.307h-1.964v6.605h-1.533v-6.605h-1.928v-1.343h5.425zM303.518 21.964h2.074l1.378 5.205 1.401-5.205h2.096v7.949h-1.264v-6.218h-.036l-1.606 6.218h-1.123l-1.621-6.218h-.035v6.218h-1.264z"/></g><g transform="translate(0 17)"><mask id="b" fill="#fff"><use xlink:href="#a"/></mask><path d="M57.329 18.903c-10.463 0-20.305 4.078-27.716 11.48-7.402 7.406-11.479 17.248-11.479 27.711 0 10.461 4.077 20.303 11.479 27.714 7.406 7.397 17.248 11.475 27.716 11.479 10.462-.004 20.304-4.082 27.715-11.484 7.393-7.406 11.471-17.248 11.475-27.709-.004-10.463-4.082-20.305-11.479-27.715-7.411-7.398-17.253-11.476-27.711-11.476m0 96.519C25.721 115.422 0 89.701 0 58.094 0 26.486 25.721.77 57.329.77c31.604 0 57.319 25.716 57.324 57.324-.005 31.607-25.72 57.328-57.324 57.328" fill="#F6BC25" mask="url(#b)"/></g><path fill="#F6BC25" d="M119.774 13.411h4.469v-4.47h-4.469zM119.774 4.512h4.469V.033h-4.469zM107.198 17.743h4.174v-4.364h-4.174z"/><path fill="#1A1919" d="M98.923 26.123h4.21v-4.174h-4.21zM111.371 21.949h4.681v-4.205h-4.681zM94.731 21.949h4.192V17.95h-4.192zM107.198 26.123h4.174v-4.174h-4.174zM115.352 8.941h4.422v-4.43h-4.422zM107.198 13.379h8.154V8.941h-8.154zM103.133 21.949h4.064V13.38h-4.064z"/><path d="M103.134 26.123v4.206h-4.21v-4.206H91.94v3.03h-3.743v3.738h4.179v4.166h-4.179v-4.166h-4.443v6.535h-4.201v4.17h-2.787v4.188H73.7c-3.443 5.121-12.074 21.084-14.68 27.583-9.406-13.087-16.707-18.274-22.458-20.15-3.1-.934-6.838 2.444-1.687 7.759C46.707 75.988 50.433 86.762 54.03 95.357c1.903 4.532 10.432 5.237 12.145.621 3.642-9.753 8.922-20.712 15.175-29.713v-4.663h3.338v-4.206h3.509v-4.874h4.192v-4.699h-4.24v-4.271h4.24v4.271h4.148l-.008-4.227h3.324v-5.103h3.743v-3.51h3.602v-8.86h-4.064" fill="#1A1919"/><g fill-rule="nonzero"><path d="M36.119 170.706v-6.37h.052a4.355 4.355 0 001.729 1.495 5.234 5.234 0 002.301.507c.988 0 1.85-.19 2.587-.572a5.475 5.475 0 001.846-1.534 6.62 6.62 0 001.105-2.21 9.238 9.238 0 00.364-2.6c0-.953-.121-1.868-.364-2.743a6.698 6.698 0 00-1.118-2.301 5.636 5.636 0 00-1.898-1.586c-.763-.399-1.673-.598-2.73-.598-.832 0-1.595.165-2.288.494-.693.33-1.265.858-1.716 1.586h-.052v-1.716h-3.51v18.148h3.692zm3.094-7.124c-.59 0-1.092-.121-1.508-.364a2.921 2.921 0 01-1.001-.949 4.098 4.098 0 01-.546-1.365 7.468 7.468 0 01-.169-1.586c0-.555.052-1.092.156-1.612.104-.52.282-.98.533-1.378.251-.399.58-.724.988-.975.407-.251.914-.377 1.521-.377.59 0 1.088.126 1.495.377.407.251.741.58 1.001.988.26.407.446.871.559 1.391.113.52.169 1.049.169 1.586 0 .537-.052 1.066-.156 1.586-.104.52-.282.975-.533 1.365-.251.39-.58.706-.988.949-.407.243-.914.364-1.521.364zm16.126 2.756c1.057 0 2.015-.165 2.873-.494a6.119 6.119 0 002.197-1.417 6.317 6.317 0 001.404-2.223c.33-.867.494-1.837.494-2.912s-.165-2.05-.494-2.925a6.295 6.295 0 00-1.404-2.236 6.266 6.266 0 00-2.197-1.43c-.858-.338-1.816-.507-2.873-.507-1.057 0-2.01.169-2.86.507a6.291 6.291 0 00-2.184 1.43 6.295 6.295 0 00-1.404 2.236c-.33.875-.494 1.85-.494 2.925 0 1.075.165 2.045.494 2.912.33.867.797 1.608 1.404 2.223a6.142 6.142 0 002.184 1.417c.85.33 1.803.494 2.86.494zm0-2.756c-.624 0-1.144-.121-1.56-.364a2.839 2.839 0 01-1.001-.975 4.19 4.19 0 01-.533-1.378 8.067 8.067 0 010-3.159c.104-.52.282-.98.533-1.378a2.994 2.994 0 011.001-.975c.416-.251.936-.377 1.56-.377s1.148.126 1.573.377c.425.251.763.576 1.014.975s.429.858.533 1.378a8.067 8.067 0 010 3.159 4.19 4.19 0 01-.533 1.378c-.251.407-.59.732-1.014.975-.425.243-.949.364-1.573.364zM72.037 166l2.288-9.022h.052L76.769 166h3.796l4.238-13.442h-3.796l-2.47 9.1h-.052l-2.288-9.1h-3.588l-2.236 9.126h-.052l-2.47-9.126h-3.9L68.215 166h3.822zm21.04.338c1.525 0 2.825-.347 3.9-1.04 1.075-.693 1.872-1.846 2.392-3.458h-3.25c-.121.416-.45.81-.988 1.183-.537.373-1.179.559-1.924.559-1.04 0-1.837-.269-2.392-.806-.555-.537-.858-1.404-.91-2.6h9.698a9.49 9.49 0 00-.26-2.99 7.319 7.319 0 00-1.183-2.548 5.967 5.967 0 00-2.093-1.781c-.85-.442-1.846-.663-2.99-.663-1.023 0-1.954.182-2.795.546a6.608 6.608 0 00-2.171 1.495 6.59 6.59 0 00-1.404 2.249 7.84 7.84 0 00-.494 2.808c0 1.04.16 1.993.481 2.86.32.867.776 1.612 1.365 2.236a5.947 5.947 0 002.158 1.443c.85.338 1.803.507 2.86.507zm2.834-8.502h-6.006c.017-.26.074-.555.169-.884.095-.33.26-.641.494-.936.234-.295.546-.542.936-.741.39-.2.88-.299 1.469-.299.901 0 1.573.243 2.015.728.442.485.75 1.196.923 2.132zM105.979 166v-6.058c0-.607.06-1.17.182-1.69a3.7 3.7 0 01.611-1.365c.286-.39.663-.698 1.131-.923.468-.225 1.04-.338 1.716-.338.225 0 .46.013.702.039.243.026.45.056.624.091v-3.432a2.88 2.88 0 00-.806-.13c-.468 0-.919.07-1.352.208-.433.139-.84.334-1.222.585a4.6 4.6 0 00-1.014.91 4.54 4.54 0 00-.702 1.157h-.052v-2.496h-3.51V166h3.692zm12.668.338c1.525 0 2.825-.347 3.9-1.04 1.075-.693 1.872-1.846 2.392-3.458h-3.25c-.121.416-.45.81-.988 1.183-.537.373-1.179.559-1.924.559-1.04 0-1.837-.269-2.392-.806-.555-.537-.858-1.404-.91-2.6h9.698a9.49 9.49 0 00-.26-2.99 7.319 7.319 0 00-1.183-2.548 5.967 5.967 0 00-2.093-1.781c-.85-.442-1.846-.663-2.99-.663-1.023 0-1.954.182-2.795.546a6.608 6.608 0 00-2.171 1.495 6.59 6.59 0 00-1.404 2.249 7.84 7.84 0 00-.494 2.808c0 1.04.16 1.993.481 2.86.32.867.776 1.612 1.365 2.236a5.947 5.947 0 002.158 1.443c.85.338 1.803.507 2.86.507zm2.834-8.502h-6.006c.017-.26.074-.555.169-.884.095-.33.26-.641.494-.936.234-.295.546-.542.936-.741.39-.2.88-.299 1.469-.299.901 0 1.573.243 2.015.728.442.485.75 1.196.923 2.132zm11.836 8.502c.884 0 1.677-.16 2.379-.481.702-.32 1.27-.845 1.703-1.573h.052V166h3.51v-18.564h-3.692v6.76h-.052a3.963 3.963 0 00-1.703-1.495 5.286 5.286 0 00-2.275-.507c-.988 0-1.855.195-2.6.585a5.574 5.574 0 00-1.859 1.547 6.791 6.791 0 00-1.118 2.223 9.073 9.073 0 00-.377 2.613c0 .936.126 1.837.377 2.704a7.198 7.198 0 001.118 2.301 5.324 5.324 0 001.885 1.586c.763.39 1.647.585 2.652.585zm.91-2.756c-.572 0-1.062-.126-1.469-.377a3.243 3.243 0 01-1.014-.988 4.26 4.26 0 01-.585-1.391 6.845 6.845 0 01-.182-1.56c0-.555.056-1.088.169-1.599.113-.511.295-.966.546-1.365.251-.399.585-.72 1.001-.962.416-.243.927-.364 1.534-.364s1.11.121 1.508.364a3 3 0 01.975.949c.251.39.429.84.533 1.352.104.511.156 1.044.156 1.599 0 .555-.052 1.092-.156 1.612a4.37 4.37 0 01-.52 1.391 2.765 2.765 0 01-.975.975c-.407.243-.914.364-1.521.364zm25.726 2.756a5.117 5.117 0 003.783-1.69c.529-.572.958-1.304 1.287-2.197.33-.893.494-1.954.494-3.185 0-1.23-.165-2.292-.494-3.185-.33-.893-.758-1.625-1.287-2.197a5.126 5.126 0 00-3.783-1.69c-.832 0-1.634.16-2.405.481a3.94 3.94 0 00-1.833 1.521h-.052v-6.76h-3.692V166h3.51v-1.716h.052a3.366 3.366 0 001.768 1.586c.78.312 1.664.468 2.652.468zm-1.274-2.756c-.537 0-1.005-.117-1.404-.351a2.952 2.952 0 01-.988-.949 4.28 4.28 0 01-.572-1.378 7.071 7.071 0 01-.182-1.612c0-.572.06-1.118.182-1.638.121-.52.312-.98.572-1.378.26-.399.59-.715.988-.949.399-.234.867-.351 1.404-.351.555 0 1.027.117 1.417.351.39.234.715.55.975.949.26.399.45.858.572 1.378.121.52.182 1.066.182 1.638 0 .555-.06 1.092-.182 1.612a4.28 4.28 0 01-.572 1.378c-.26.399-.585.715-.975.949-.39.234-.862.351-1.417.351zm11.68 7.124c1.265 0 2.253-.234 2.964-.702.71-.468 1.265-1.248 1.664-2.34l5.616-15.106h-3.822l-2.938 9.204h-.052l-3.042-9.204h-3.926l4.706 12.61c.104.26.156.537.156.832 0 .399-.117.763-.351 1.092-.234.33-.594.52-1.079.572a7.66 7.66 0 01-1.092-.026l-1.066-.104v3.042c.381.035.758.065 1.131.091.373.026.75.039 1.131.039z" fill="#9E9F9E"/><path d="M195.539 166.338c.884 0 1.677-.16 2.379-.481.702-.32 1.27-.845 1.703-1.573h.052V166h3.51v-18.564h-3.692v6.76h-.052a3.963 3.963 0 00-1.703-1.495 5.286 5.286 0 00-2.275-.507c-.988 0-1.855.195-2.6.585a5.574 5.574 0 00-1.859 1.547 6.791 6.791 0 00-1.118 2.223 9.073 9.073 0 00-.377 2.613c0 .936.126 1.837.377 2.704a7.198 7.198 0 001.118 2.301 5.324 5.324 0 001.885 1.586c.763.39 1.647.585 2.652.585zm.91-2.756c-.572 0-1.062-.126-1.469-.377a3.243 3.243 0 01-1.014-.988 4.26 4.26 0 01-.585-1.391 6.845 6.845 0 01-.182-1.56c0-.555.056-1.088.169-1.599.113-.511.295-.966.546-1.365.251-.399.585-.72 1.001-.962.416-.243.927-.364 1.534-.364s1.11.121 1.508.364a3 3 0 01.975.949c.251.39.429.84.533 1.352.104.511.156 1.044.156 1.599 0 .555-.052 1.092-.156 1.612a4.37 4.37 0 01-.52 1.391 2.765 2.765 0 01-.975.975c-.407.243-.914.364-1.521.364zm13.812-13.104v-3.042h-3.692v3.042h3.692zm0 15.522v-13.442h-3.692V166h3.692zm9.366 5.07c1.543 0 2.773-.208 3.692-.624.919-.416 1.62-.923 2.106-1.521a4.552 4.552 0 00.949-1.937c.147-.693.221-1.309.221-1.846v-12.584h-3.51v1.794h-.052c-.45-.78-1.01-1.335-1.677-1.664-.667-.33-1.443-.494-2.327-.494-.936 0-1.764.182-2.483.546a5.34 5.34 0 00-1.807 1.469 6.558 6.558 0 00-1.105 2.132 8.379 8.379 0 00-.377 2.509c0 .919.108 1.79.325 2.613a6.074 6.074 0 001.027 2.158 4.933 4.933 0 001.794 1.456c.728.355 1.595.533 2.6.533.815 0 1.59-.169 2.327-.507a3.655 3.655 0 001.703-1.573h.052v1.768c.017.953-.212 1.742-.689 2.366-.477.624-1.235.936-2.275.936-.659 0-1.24-.134-1.742-.403-.503-.269-.84-.75-1.014-1.443h-3.666c.052.763.264 1.417.637 1.963a4.6 4.6 0 001.404 1.339 6.401 6.401 0 001.872.767 8.599 8.599 0 002.015.247zm.312-8.242c-.572 0-1.049-.121-1.43-.364a2.886 2.886 0 01-.923-.936 3.9 3.9 0 01-.494-1.287 7.34 7.34 0 01-.143-1.443c0-.503.056-.984.169-1.443.113-.46.295-.867.546-1.222.251-.355.563-.637.936-.845.373-.208.819-.312 1.339-.312.607 0 1.11.113 1.508.338.399.225.72.529.962.91.243.381.416.819.52 1.313.104.494.156 1.018.156 1.573 0 .485-.065.949-.195 1.391-.13.442-.325.836-.585 1.183-.26.347-.59.624-.988.832-.399.208-.858.312-1.378.312zm13.916-12.35v-3.042h-3.692v3.042h3.692zm0 15.522v-13.442h-3.692V166h3.692zm9.782.338c1.785 0 3.25-.468 4.394-1.404 1.144-.936 1.837-2.297 2.08-4.082h-3.562c-.121.832-.42 1.495-.897 1.989-.477.494-1.157.741-2.041.741-.572 0-1.057-.13-1.456-.39a2.913 2.913 0 01-.949-1.001 4.585 4.585 0 01-.507-1.365 7.302 7.302 0 010-3.003c.104-.511.282-.98.533-1.404.251-.425.576-.771.975-1.04s.893-.403 1.482-.403c1.577 0 2.487.771 2.73 2.314h3.614c-.052-.867-.26-1.616-.624-2.249a5.08 5.08 0 00-1.417-1.586 6.142 6.142 0 00-1.976-.949 8.428 8.428 0 00-2.301-.312c-1.092 0-2.063.182-2.912.546a6.129 6.129 0 00-2.158 1.521 6.522 6.522 0 00-1.339 2.314 8.955 8.955 0 00-.455 2.899c0 1.005.165 1.928.494 2.769.33.84.789 1.564 1.378 2.171a6.14 6.14 0 002.145 1.417c.84.338 1.764.507 2.769.507zm15.268 0c1.525 0 2.825-.347 3.9-1.04 1.075-.693 1.872-1.846 2.392-3.458h-3.25c-.121.416-.45.81-.988 1.183-.537.373-1.179.559-1.924.559-1.04 0-1.837-.269-2.392-.806-.555-.537-.858-1.404-.91-2.6h9.698a9.49 9.49 0 00-.26-2.99 7.319 7.319 0 00-1.183-2.548 5.967 5.967 0 00-2.093-1.781c-.85-.442-1.846-.663-2.99-.663-1.023 0-1.954.182-2.795.546a6.608 6.608 0 00-2.171 1.495 6.59 6.59 0 00-1.404 2.249 7.84 7.84 0 00-.494 2.808c0 1.04.16 1.993.481 2.86.32.867.776 1.612 1.365 2.236a5.947 5.947 0 002.158 1.443c.85.338 1.803.507 2.86.507zm2.834-8.502h-6.006c.017-.26.074-.555.169-.884.095-.33.26-.641.494-.936.234-.295.546-.542.936-.741.39-.2.88-.299 1.469-.299.901 0 1.573.243 2.015.728.442.485.75 1.196.923 2.132zM271.807 166v-6.058c0-.607.06-1.17.182-1.69a3.7 3.7 0 01.611-1.365c.286-.39.663-.698 1.131-.923.468-.225 1.04-.338 1.716-.338.225 0 .46.013.702.039.243.026.45.056.624.091v-3.432a2.88 2.88 0 00-.806-.13c-.468 0-.919.07-1.352.208-.433.139-.84.334-1.222.585a4.6 4.6 0 00-1.014.91 4.54 4.54 0 00-.702 1.157h-.052v-2.496h-3.51V166h3.692zm12.148.13c.364 0 .737-.009 1.118-.026a8.785 8.785 0 001.04-.104v-2.86c-.173.035-.355.06-.546.078a6.61 6.61 0 01-.598.026c-.624 0-1.04-.104-1.248-.312-.208-.208-.312-.624-.312-1.248v-6.656h2.704v-2.47h-2.704v-4.03h-3.692v4.03h-2.236v2.47h2.236v7.93c0 .676.113 1.222.338 1.638.225.416.533.737.923.962.39.225.84.377 1.352.455.511.078 1.053.117 1.625.117z" fill="#0074C2"/></g></g></svg>