<svg width="63" height="39" viewBox="0 0 63 39" fill="none" xmlns="http://www.w3.org/2000/svg">
<path d="M58.3041 27.1611C60.0996 20.8326 49.2377 12.1924 34.0433 7.86283C18.8489 3.53323 5.07586 5.15367 3.28033 11.4822C1.4848 17.8107 12.3467 26.4508 27.5411 30.7804C42.7355 35.11 56.5086 33.4896 58.3041 27.1611Z" fill="#00A155"/>
<path d="M43.8476 35.8913C38.7705 35.8913 32.9922 35.0804 27.0319 33.3844C18.9544 31.0802 11.7399 27.5125 6.73699 23.3367C1.63294 19.0797 -0.592084 14.6809 0.473228 10.9375C2.62408 3.34931 18.0441 1.07219 34.8464 5.86293C42.9306 8.16709 50.1383 11.7348 55.1413 15.9107C60.2453 20.1676 62.4703 24.5664 61.405 28.3099C60.0228 33.202 53.0983 35.8913 43.8476 35.8913ZM17.8419 4.19394C9.09012 4.19394 2.59037 6.65351 1.3093 11.1807C0.351863 14.566 2.47574 18.6473 7.29662 22.661C12.2119 26.7625 19.305 30.2694 27.2746 32.5398C43.6116 37.1954 58.5462 35.1885 60.569 28.0666C61.5331 24.6813 59.4025 20.6001 54.5816 16.5864C49.6664 12.4848 42.5733 8.97793 34.6037 6.70756C28.6433 5.00479 22.8717 4.19394 17.8419 4.19394Z" fill="#00A155"/>
<path d="M18.4757 10.3766L18.7117 13.9106H18.4757C18.1588 12.8497 17.707 12.0929 17.1204 11.6267C16.5338 11.1605 15.8326 10.9307 15.01 10.9307C14.3223 10.9307 13.702 11.1064 13.1424 11.4578C12.5827 11.8091 12.1512 12.3632 11.8276 13.1335C11.5107 13.8971 11.3489 14.8566 11.3489 15.9918C11.3489 16.931 11.4972 17.7486 11.8006 18.4378C12.104 19.127 12.5558 19.6541 13.1559 20.0257C13.7627 20.3906 14.4504 20.5798 15.2258 20.5798C15.9 20.5798 16.4934 20.4379 17.0058 20.1473C17.5182 19.8568 18.0846 19.2824 18.7049 18.4243L18.9409 18.5797C18.4217 19.5054 17.8149 20.1811 17.1204 20.6136C16.426 21.046 15.6034 21.2555 14.6527 21.2555C12.9334 21.2555 11.6051 20.6136 10.6611 19.3365C9.95992 18.3838 9.60257 17.2688 9.60257 15.9782C9.60257 14.9377 9.83181 13.9849 10.297 13.12C10.7623 12.2484 11.4028 11.5794 12.2119 11.0997C13.0277 10.6199 13.911 10.3834 14.8752 10.3834C15.6236 10.3834 16.3653 10.5658 17.0935 10.9375C17.3092 11.0524 17.4576 11.1064 17.552 11.1064C17.6868 11.1064 17.8082 11.0591 17.9093 10.9578C18.0442 10.8226 18.1385 10.6267 18.1925 10.3834H18.4757V10.3766Z" fill="white"/>
<path d="M19.7635 21.0122V20.7284H20.1545C20.5928 20.7284 20.9029 20.5866 21.085 20.3095C21.1996 20.1406 21.2535 19.7622 21.2535 19.1743V12.4578C21.2535 11.8091 21.1794 11.4037 21.0378 11.2416C20.8423 11.0186 20.5456 10.9037 20.1478 10.9037H19.7635V10.6199H23.9843C25.535 10.6199 26.715 10.7956 27.5241 11.147C28.3332 11.4983 28.9804 12.0862 29.4726 12.9105C29.9648 13.7349 30.2076 14.6809 30.2076 15.762C30.2076 17.208 29.7693 18.4175 28.8928 19.3906C27.9084 20.4717 26.4115 21.019 24.3955 21.019H19.7635V21.0122ZM22.7234 20.2622C23.3707 20.4041 23.9168 20.4784 24.3551 20.4784C25.535 20.4784 26.5194 20.0595 27.3016 19.2284C28.0837 18.3973 28.4747 17.2688 28.4747 15.8431C28.4747 14.4039 28.0837 13.2754 27.3016 12.4443C26.5194 11.6132 25.5215 11.201 24.2944 11.201C23.8359 11.201 23.31 11.2753 22.7234 11.424V20.2622Z" fill="white"/>
<path d="M26.1418 22.0406V25.0475C26.1418 25.6962 26.216 26.1016 26.3576 26.257C26.5531 26.48 26.8431 26.5949 27.2274 26.5949H27.6252V26.8787H23.2156V26.5949H23.5999C24.0382 26.5949 24.3483 26.453 24.5304 26.1692C24.6315 26.0138 24.6855 25.6421 24.6855 25.0543V18.3918C24.6855 17.7431 24.618 17.3377 24.4832 17.1823C24.2877 16.9593 23.991 16.8445 23.5999 16.8445H23.2156V16.5607H26.9847C27.9084 16.5607 28.6298 16.6553 29.1625 16.8445C29.6951 17.0336 30.1401 17.358 30.5042 17.804C30.8683 18.2567 31.0504 18.7905 31.0504 19.4054C31.0504 20.25 30.7739 20.9325 30.221 21.4595C29.6682 21.9866 28.886 22.2501 27.8747 22.2501C27.6252 22.2501 27.3555 22.2298 27.0723 22.196C26.7891 22.1622 26.4722 22.1082 26.1418 22.0406ZM26.1418 21.6014C26.4115 21.6555 26.6475 21.6893 26.8565 21.7163C27.0656 21.7433 27.2409 21.7568 27.3892 21.7568C27.9151 21.7568 28.3669 21.5541 28.7512 21.1419C29.1355 20.7365 29.3243 20.2027 29.3243 19.554C29.3243 19.1081 29.2299 18.6959 29.0478 18.3107C28.8658 17.9256 28.6096 17.6418 28.2725 17.4526C27.9353 17.2634 27.5578 17.1688 27.133 17.1688C26.8768 17.1688 26.5464 17.2161 26.1418 17.3107V21.6014Z" fill="white"/>
<path d="M34.7924 21.3366H39.5729V18.3838C39.5729 17.8567 39.5392 17.5121 39.4717 17.3432C39.4178 17.2148 39.3166 17.1067 39.1548 17.0188C38.9391 16.8972 38.7098 16.8364 38.4671 16.8364H38.103V16.5526H42.5058V16.8364H42.1418C41.899 16.8364 41.6698 16.8972 41.454 17.0121C41.2922 17.0932 41.1843 17.2148 41.1236 17.3837C41.063 17.5459 41.036 17.8837 41.036 18.3905V25.0462C41.036 25.5665 41.0697 25.9111 41.1371 26.08C41.1911 26.2084 41.2922 26.3165 41.4473 26.4044C41.6698 26.526 41.9058 26.5868 42.1485 26.5868H42.5126V26.8706H38.103V26.5868H38.4671C38.8851 26.5868 39.1953 26.4652 39.3841 26.2152C39.5122 26.053 39.5729 25.6611 39.5729 25.0462V21.9042H34.7924V25.0462C34.7924 25.5665 34.8262 25.9111 34.8936 26.08C34.9475 26.2084 35.0487 26.3165 35.2105 26.4044C35.4262 26.526 35.6555 26.5868 35.8982 26.5868H36.269V26.8706H31.8595V26.5868H32.2236C32.6483 26.5868 32.9585 26.4652 33.1473 26.2152C33.2686 26.053 33.3293 25.6611 33.3293 25.0462V18.3905C33.3293 17.8635 33.2956 17.5189 33.2282 17.3499C33.1743 17.2215 33.0731 17.1134 32.918 17.0256C32.6955 16.904 32.4595 16.8432 32.2168 16.8432H31.8527V16.5594H36.2623V16.8432H35.8915C35.6487 16.8432 35.4195 16.904 35.2037 17.0188C35.0487 17.0999 34.9408 17.2215 34.8801 17.3905C34.8194 17.5594 34.7857 17.8905 34.7857 18.3973V21.3366H34.7924Z" fill="white"/>
<path d="M46.0119 22.0393V25.0462C46.0119 25.6949 46.0861 26.1003 46.2277 26.2557C46.4232 26.4787 46.7131 26.5936 47.0975 26.5936H47.4953V26.8774H43.0857V26.5936H43.47C43.9083 26.5936 44.2184 26.4517 44.4005 26.1679C44.5016 26.0125 44.5556 25.6408 44.5556 25.053V18.3905C44.5556 17.7418 44.4881 17.3364 44.3533 17.181C44.1577 16.958 43.8611 16.8431 43.47 16.8431H43.0857V16.5593H46.8547C47.7785 16.5593 48.4999 16.6539 49.0326 16.8431C49.5652 17.0323 50.0102 17.3567 50.3743 17.8026C50.7384 18.2486 50.9205 18.7892 50.9205 19.4041C50.9205 20.2487 50.644 20.9312 50.0911 21.4582C49.5382 21.9853 48.7561 22.2488 47.7447 22.2488C47.4953 22.2488 47.2256 22.2285 46.9424 22.1947C46.6457 22.1609 46.3423 22.1069 46.0119 22.0393ZM46.0119 21.6001C46.2816 21.6542 46.5176 21.6879 46.7266 21.715C46.9356 21.742 47.111 21.7555 47.2593 21.7555C47.7852 21.7555 48.2369 21.5528 48.6213 21.1406C49.0056 20.7352 49.1944 20.2014 49.1944 19.5527C49.1944 19.1068 49.1 18.6946 48.9179 18.3094C48.7359 17.9243 48.4797 17.6405 48.1426 17.4513C47.8054 17.2621 47.4278 17.1675 47.0031 17.1675C46.7469 17.1675 46.4165 17.2148 46.0119 17.3094V21.6001Z" fill="white"/>
<path d="M61.223 15.9985C61.4995 15.9985 61.7759 16.0728 62.0388 16.2147C62.3018 16.3566 62.5108 16.5593 62.6592 16.8296C62.8075 17.0931 62.8817 17.3769 62.8817 17.6607C62.8817 17.9513 62.8075 18.2216 62.6592 18.4919C62.5108 18.7554 62.3085 18.9581 62.0456 19.1067C61.7826 19.2554 61.5062 19.323 61.2163 19.323C60.9263 19.323 60.6566 19.2486 60.3937 19.1067C60.1307 18.9581 59.9285 18.7554 59.7801 18.4919C59.6318 18.2283 59.5576 17.9513 59.5576 17.6607C59.5576 17.3702 59.6318 17.0931 59.7801 16.8296C59.9285 16.5661 60.1375 16.3566 60.4004 16.2147C60.6769 16.0661 60.9466 15.9985 61.223 15.9985ZM61.223 16.1404C60.9668 16.1404 60.7173 16.208 60.4813 16.3364C60.2386 16.4647 60.0498 16.6539 59.915 16.8972C59.7801 17.1404 59.7127 17.3972 59.7127 17.6607C59.7127 17.9243 59.7801 18.1743 59.915 18.4175C60.0498 18.6608 60.2386 18.8432 60.4746 18.9784C60.7173 19.1135 60.9668 19.1811 61.2298 19.1811C61.4927 19.1811 61.7422 19.1135 61.9849 18.9784C62.2276 18.8432 62.4164 18.654 62.5445 18.4175C62.6794 18.1743 62.7468 17.9243 62.7468 17.6607C62.7468 17.3972 62.6794 17.1404 62.5445 16.8972C62.4097 16.6539 62.2209 16.4647 61.9782 16.3364C61.7287 16.208 61.4792 16.1404 61.223 16.1404ZM60.306 16.6404H61.2095C61.4388 16.6404 61.6073 16.6945 61.7287 16.7958C61.8501 16.8972 61.904 17.0188 61.904 17.1675C61.904 17.2891 61.8635 17.3905 61.7826 17.4783C61.7017 17.5661 61.5669 17.6405 61.3848 17.6878L61.877 18.3837C61.9377 18.4648 61.9917 18.5256 62.0388 18.5527C62.0658 18.5729 62.113 18.5865 62.1602 18.5865V18.6608H61.7287L61.041 17.708H60.8657V18.431C60.8724 18.4851 60.8994 18.5189 60.9331 18.5459C60.9668 18.5662 61.041 18.5797 61.1421 18.5797V18.654H60.2858V18.5797C60.36 18.5797 60.4139 18.5729 60.4476 18.5527C60.4813 18.5324 60.5016 18.5054 60.5151 18.4716C60.5285 18.4446 60.5285 18.377 60.5285 18.2554V17.0256C60.5285 16.9107 60.5285 16.8431 60.5218 16.8229C60.5083 16.7891 60.4881 16.7621 60.4611 16.7418C60.4341 16.7215 60.3802 16.7148 60.3128 16.7148V16.6404H60.306ZM60.8589 17.6134C61.041 17.6134 61.1758 17.5932 61.2635 17.5594C61.3511 17.5256 61.4118 17.4715 61.459 17.4107C61.5062 17.3432 61.5264 17.2688 61.5264 17.1877C61.5264 17.0594 61.4792 16.958 61.3916 16.8702C61.3039 16.7823 61.1893 16.7418 61.0544 16.7418C60.9938 16.7418 60.9263 16.7553 60.8589 16.7823V17.6134Z" fill="#00A155"/>
</svg>
